<svg width="230" height="193" viewBox="0 0 230 193" fill="none" xmlns="http://www.w3.org/2000/svg">
<g filter="url(#filter0_d_403_4)">
<mask id="path-1-outside-1_403_4" maskUnits="userSpaceOnUse" x="38" y="2" width="80" height="181" fill="black">
<rect fill="white" x="38" y="2" width="80" height="181"/>
<path d="M90.4951 4.99999H114.245L98.7451 180H57.2451L41.7451 4.99999H65.4951L77.9951 143.25L90.4951 4.99999Z"/>
</mask>
<path d="M90.4951 4.99999H114.245L98.7451 180H57.2451L41.7451 4.99999H65.4951L77.9951 143.25L90.4951 4.99999Z" fill="#FFB71A"/>
<path d="M90.4951 4.99999V1.99999H87.7541L87.5073 4.72984L90.4951 4.99999ZM114.245 4.99999L117.233 5.26467L117.523 1.99999H114.245V4.99999ZM98.7451 180V183H101.491L101.733 180.265L98.7451 180ZM57.2451 180L54.2568 180.265L54.4991 183H57.2451V180ZM41.7451 4.99999V1.99999H38.4677L38.7568 5.26467L41.7451 4.99999ZM65.4951 4.99999L68.4829 4.72984L68.2361 1.99999H65.4951V4.99999ZM77.9951 143.25L75.0073 143.52L80.9829 143.52L77.9951 143.25ZM90.4951 7.99999H114.245V1.99999H90.4951V7.99999ZM111.257 4.73531L95.7568 179.735L101.733 180.265L117.233 5.26467L111.257 4.73531ZM98.7451 177H57.2451V183H98.7451V177ZM60.2334 179.735L44.7334 4.73531L38.7568 5.26467L54.2568 180.265L60.2334 179.735ZM41.7451 7.99999H65.4951V1.99999H41.7451V7.99999ZM62.5073 5.27013L75.0073 143.52L80.9829 142.98L68.4829 4.72984L62.5073 5.27013ZM80.9829 143.52L93.4829 5.27013L87.5073 4.72984L75.0073 142.98L80.9829 143.52Z" fill="white" mask="url(#path-1-outside-1_403_4)"/>
</g>
<g filter="url(#filter1_d_403_4)">
<mask id="path-3-outside-2_403_4" maskUnits="userSpaceOnUse" x="118" y="1" width="67" height="183" fill="black">
<rect fill="white" x="118" y="1" width="67" height="183"/>
<path d="M145.716 130V156.5C145.716 157.333 146.132 157.75 146.966 157.75H156.966C157.799 157.75 158.216 157.333 158.216 156.5V111.5L138.466 102.75C136.966 102.25 134.882 101.417 132.216 100.25C129.549 98.9167 127.132 97 124.966 94.5C122.966 92 121.966 88.5833 121.966 84.25V27.25C121.966 20.25 124.132 14.6667 128.466 10.5C132.799 6.16665 138.466 3.99999 145.466 3.99999H158.466C165.466 3.99999 171.132 6.16665 175.466 10.5C179.799 14.6667 181.966 20.25 181.966 27.25V64.25L158.216 62.25V28.5C158.216 27.6667 157.799 27.25 156.966 27.25H146.966C146.132 27.25 145.716 27.6667 145.716 28.5V80.75L165.466 89.5C166.966 90.1667 169.049 91.0833 171.716 92.25C174.382 93.4167 176.716 95.25 178.716 97.75C180.882 100.25 181.966 103.667 181.966 108V157.75C181.966 164.75 179.799 170.417 175.466 174.75C171.132 178.917 165.466 181 158.466 181H145.466C138.466 181 132.799 178.917 128.466 174.75C124.132 170.417 121.966 164.75 121.966 157.75V130H145.716Z"/>
</mask>
<path d="M145.716 130V156.5C145.716 157.333 146.132 157.75 146.966 157.75H156.966C157.799 157.75 158.216 157.333 158.216 156.5V111.5L138.466 102.75C136.966 102.25 134.882 101.417 132.216 100.25C129.549 98.9167 127.132 97 124.966 94.5C122.966 92 121.966 88.5833 121.966 84.25V27.25C121.966 20.25 124.132 14.6667 128.466 10.5C132.799 6.16665 138.466 3.99999 145.466 3.99999H158.466C165.466 3.99999 171.132 6.16665 175.466 10.5C179.799 14.6667 181.966 20.25 181.966 27.25V64.25L158.216 62.25V28.5C158.216 27.6667 157.799 27.25 156.966 27.25H146.966C146.132 27.25 145.716 27.6667 145.716 28.5V80.75L165.466 89.5C166.966 90.1667 169.049 91.0833 171.716 92.25C174.382 93.4167 176.716 95.25 178.716 97.75C180.882 100.25 181.966 103.667 181.966 108V157.75C181.966 164.75 179.799 170.417 175.466 174.75C171.132 178.917 165.466 181 158.466 181H145.466C138.466 181 132.799 178.917 128.466 174.75C124.132 170.417 121.966 164.75 121.966 157.75V130H145.716Z" fill="white"/>
<path d="M145.716 130H148.716V127H145.716V130ZM158.216 111.5H161.216V109.548L159.431 108.757L158.216 111.5ZM138.466 102.75L139.681 100.007L139.55 99.9492L139.415 99.9039L138.466 102.75ZM132.216 100.25L130.874 102.933L130.943 102.968L131.013 102.998L132.216 100.25ZM124.966 94.5L122.623 96.3741L122.66 96.4202L122.699 96.4648L124.966 94.5ZM128.466 10.5L130.545 12.6625L130.566 12.6421L130.587 12.6213L128.466 10.5ZM175.466 10.5L173.345 12.6213L173.365 12.6421L173.386 12.6625L175.466 10.5ZM181.966 64.25L181.714 67.2394L184.966 67.5132V64.25H181.966ZM158.216 62.25H155.216V65.008L157.964 65.2394L158.216 62.25ZM145.716 80.75H142.716V82.7021L144.501 83.4929L145.716 80.75ZM165.466 89.5L166.684 86.7586L166.681 86.7571L165.466 89.5ZM178.716 97.75L176.373 99.6241L176.41 99.6702L176.449 99.7148L178.716 97.75ZM175.466 174.75L177.545 176.912L177.566 176.892L177.587 176.871L175.466 174.75ZM128.466 174.75L126.345 176.871L126.365 176.892L126.386 176.912L128.466 174.75ZM121.966 130V127H118.966V130H121.966ZM142.716 130V156.5H148.716V130H142.716ZM142.716 156.5C142.716 157.379 142.938 158.589 143.907 159.559C144.876 160.528 146.087 160.75 146.966 160.75V154.75C147.012 154.75 147.597 154.763 148.15 155.316C148.702 155.869 148.716 156.454 148.716 156.5H142.716ZM146.966 160.75H156.966V154.75H146.966V160.75ZM156.966 160.75C157.845 160.75 159.055 160.528 160.025 159.559C160.994 158.589 161.216 157.379 161.216 156.5H155.216C155.216 156.454 155.229 155.869 155.782 155.316C156.335 154.763 156.92 154.75 156.966 154.75V160.75ZM161.216 156.5V111.5H155.216V156.5H161.216ZM159.431 108.757L139.681 100.007L137.251 105.493L157.001 114.243L159.431 108.757ZM139.415 99.9039C138.044 99.4471 136.058 98.6566 133.418 97.5015L131.013 102.998C133.707 104.177 135.888 105.053 137.517 105.596L139.415 99.9039ZM133.557 97.5667C131.28 96.4281 129.17 94.7699 127.233 92.5352L122.699 96.4648C125.095 99.2301 127.818 101.405 130.874 102.933L133.557 97.5667ZM127.308 92.6259C125.863 90.8189 124.966 88.1419 124.966 84.25H118.966C118.966 89.0248 120.069 93.1811 122.623 96.3741L127.308 92.6259ZM124.966 84.25V27.25H118.966V84.25H124.966ZM124.966 27.25C124.966 20.9202 126.898 16.1698 130.545 12.6625L126.386 8.33749C121.367 13.1635 118.966 19.5798 118.966 27.25H124.966ZM130.587 12.6213C134.276 8.93196 139.138 6.99999 145.466 6.99999V0.999986C137.793 0.999986 131.322 3.40135 126.345 8.37867L130.587 12.6213ZM145.466 6.99999H158.466V0.999986H145.466V6.99999ZM158.466 6.99999C164.793 6.99999 169.655 8.93196 173.345 12.6213L177.587 8.37867C172.61 3.40135 166.138 0.999986 158.466 0.999986V6.99999ZM173.386 12.6625C177.034 16.1698 178.966 20.9202 178.966 27.25H184.966C184.966 19.5798 182.564 13.1635 177.545 8.33749L173.386 12.6625ZM178.966 27.25V64.25H184.966V27.25H178.966ZM182.218 61.2606L158.468 59.2606L157.964 65.2394L181.714 67.2394L182.218 61.2606ZM161.216 62.25V28.5H155.216V62.25H161.216ZM161.216 28.5C161.216 27.6209 160.994 26.4106 160.025 25.4412C159.055 24.4718 157.845 24.25 156.966 24.25V30.25C156.92 30.25 156.335 30.2365 155.782 29.6838C155.229 29.1311 155.216 28.5458 155.216 28.5H161.216ZM156.966 24.25H146.966V30.25H156.966V24.25ZM146.966 24.25C146.087 24.25 144.876 24.4718 143.907 25.4412C142.938 26.4105 142.716 27.6209 142.716 28.5H148.716C148.716 28.5458 148.702 29.1311 148.15 29.6838C147.597 30.2365 147.012 30.25 146.966 30.25V24.25ZM142.716 28.5V80.75H148.716V28.5H142.716ZM144.501 83.4929L164.251 92.2429L166.681 86.7571L146.931 78.0071L144.501 83.4929ZM164.247 92.2414C165.755 92.9116 167.845 93.831 170.513 94.9985L172.918 89.5015C170.254 88.3357 168.176 87.4217 166.684 86.7586L164.247 92.2414ZM170.513 94.9985C172.692 95.9514 174.646 97.4649 176.373 99.6241L181.058 95.8759C178.786 93.035 176.073 90.8819 172.918 89.5015L170.513 94.9985ZM176.449 99.7148C178.012 101.519 178.966 104.161 178.966 108H184.966C184.966 103.173 183.753 98.9811 180.983 95.7852L176.449 99.7148ZM178.966 108V157.75H184.966V108H178.966ZM178.966 157.75C178.966 164.077 177.034 168.939 173.345 172.629L177.587 176.871C182.564 171.894 184.966 165.423 184.966 157.75H178.966ZM173.386 172.588C169.703 176.129 164.827 178 158.466 178V184C166.104 184 172.562 181.704 177.545 176.912L173.386 172.588ZM158.466 178H145.466V184H158.466V178ZM145.466 178C139.104 178 134.228 176.129 130.545 172.588L126.386 176.912C131.37 181.704 137.827 184 145.466 184V178ZM130.587 172.629C126.898 168.939 124.966 164.077 124.966 157.75H118.966C118.966 165.423 121.367 171.894 126.345 176.871L130.587 172.629ZM124.966 157.75V130H118.966V157.75H124.966ZM121.966 133H145.716V127H121.966V133Z" fill="#FFB71A" mask="url(#path-3-outside-2_403_4)"/>
</g>
<defs>
<filter id="filter0_d_403_4" x="32.7451" y="0" width="90.5" height="193" filterUnits="userSpaceOnUse" color-interpolation-filters="sRGB">
<feFlood flood-opacity="0" result="BackgroundImageFix"/>
<feColorMatrix in="SourceAlpha" type="matrix" values="0 0 0 0 0 0 0 0 0 0 0 0 0 0 0 0 0 0 127 0" result="hardAlpha"/>
<feOffset dy="4"/>
<feGaussianBlur stdDeviation="4.5"/>
<feComposite in2="hardAlpha" operator="out"/>
<feColorMatrix type="matrix" values="0 0 0 0 0 0 0 0 0 0 0 0 0 0 0 0 0 0 0.55 0"/>
<feBlend mode="normal" in2="BackgroundImageFix" result="effect1_dropShadow_403_4"/>
<feBlend mode="normal" in="SourceGraphic" in2="effect1_dropShadow_403_4" result="shape"/>
</filter>
<filter id="filter1_d_403_4" x="114.266" y="0.3" width="75.4" height="192.4" filterUnits="userSpaceOnUse" color-interpolation-filters="sRGB">
<feFlood flood-opacity="0" result="BackgroundImageFix"/>
<feColorMatrix in="SourceAlpha" type="matrix" values="0 0 0 0 0 0 0 0 0 0 0 0 0 0 0 0 0 0 127 0" result="hardAlpha"/>
<feOffset dy="4"/>
<feGaussianBlur stdDeviation="3.85"/>
<feComposite in2="hardAlpha" operator="out"/>
<feColorMatrix type="matrix" values="0 0 0 0 0 0 0 0 0 0 0 0 0 0 0 0 0 0 0.55 0"/>
<feBlend mode="normal" in2="BackgroundImageFix" result="effect1_dropShadow_403_4"/>
<feBlend mode="normal" in="SourceGraphic" in2="effect1_dropShadow_403_4" result="shape"/>
</filter>
</defs>
</svg>
