<?xml version="1.0" encoding="UTF-8"?>
<svg version="1.1" xmlns="http://www.w3.org/2000/svg" width="512" height="512">
<path d="M0 0 C6.4234066 3.81965479 10.48333513 8.85203635 12.48046875 16.08984375 C12.70751953 19.06591797 12.70751953 19.06591797 12.67578125 22.14453125 C12.66611328 23.80742188 12.66611328 23.80742188 12.65625 25.50390625 C12.63111328 27.21707031 12.63111328 27.21707031 12.60546875 28.96484375 C12.59644531 30.13015625 12.58742188 31.29546875 12.578125 32.49609375 C12.55464307 35.36088952 12.52180016 38.2252591 12.48046875 41.08984375 C13.76141418 41.079851 13.76141418 41.079851 15.0682373 41.06965637 C23.1865341 41.00909873 31.3047531 40.96364526 39.4232254 40.93440723 C43.59523799 40.91886949 47.7670612 40.89785399 51.93896484 40.86352539 C55.97849846 40.83050079 60.01785199 40.81290182 64.05751038 40.80521202 C65.58499479 40.79974464 67.11247137 40.78907317 68.63987732 40.77265358 C93.4074421 40.51742642 116.70364238 46.84909901 135.12695312 64.078125 C150.02968569 78.73708331 160.53355697 98.20373243 161.65625 119.41015625 C161.6661067 121.97946982 161.62180311 124.52488691 161.48046875 127.08984375 C162.66382813 127.0434375 163.8471875 126.99703125 165.06640625 126.94921875 C177.26999566 126.60958446 186.45153879 127.35118659 195.7265625 136.1015625 C203.49816281 144.911684 204.79088496 154.48601406 204.78125 165.796875 C204.78553513 166.91744797 204.78982025 168.03802094 204.79423523 169.19255066 C204.79996236 171.55682705 204.80049075 173.92112106 204.79614258 176.28540039 C204.79298833 179.88003009 204.81644343 183.4738316 204.84179688 187.06835938 C204.84407077 189.37369689 204.84477295 191.67903659 204.84375 193.984375 C204.85295975 195.04823929 204.86216949 196.11210358 204.87165833 197.20820618 C204.8065698 207.84310213 202.43801818 216.87300936 195.48046875 225.08984375 C187.01960568 233.26510807 178.36924088 234.40571074 167.06860352 234.24365234 C165.20564201 234.20245203 163.34299112 234.14757981 161.48046875 234.08984375 C161.51527344 234.63769531 161.55007813 235.18554688 161.5859375 235.75 C162.34430676 257.95938556 152.05127696 278.09975074 137.54296875 294.24609375 C130.63322669 301.49017817 122.6747107 306.65650926 113.85546875 311.27734375 C113.26572266 311.59832031 112.67597656 311.91929687 112.06835938 312.25 C98.59920012 319.03363484 84.45577948 319.67801768 69.72631836 319.60742188 C67.79757665 319.61285613 65.8688391 319.61998602 63.94010925 319.62866211 C58.75002692 319.64674233 53.56026618 319.63989211 48.37017894 319.62714577 C42.910642 319.61693957 37.45113056 319.62643229 31.99159241 319.63269043 C22.82857374 319.63994419 13.66568451 319.63043834 4.50268555 319.61132812 C-6.05726746 319.58955734 -16.6169115 319.59662155 -27.17685705 319.61863375 C-36.28139943 319.63684493 -45.38584935 319.6393184 -54.49040407 319.62887907 C-59.91159811 319.62267632 -65.3326474 319.6217193 -70.75383186 319.63502502 C-75.85207491 319.64666676 -80.94992343 319.63840727 -86.04812431 319.615448 C-87.90755944 319.61020533 -89.76702837 319.61159743 -91.62644958 319.62049866 C-117.43656291 319.73256667 -138.89212455 311.42467338 -157.51953125 293.08984375 C-171.83442451 278.80446573 -180.6497353 258.43510889 -180.70703125 238.15234375 C-180.66076915 236.79752515 -180.60547897 235.4427246 -180.51953125 234.08984375 C-181.63070312 234.13625 -182.741875 234.18265625 -183.88671875 234.23046875 C-192.50677606 234.48454176 -199.85834824 234.57170584 -207.51953125 230.08984375 C-208.23496094 229.67734375 -208.95039063 229.26484375 -209.6875 228.83984375 C-216.98245844 224.02216012 -221.06573208 216.91154299 -223.09741211 208.50308228 C-223.92117253 203.79367634 -223.82439409 199.05358129 -223.8203125 194.28515625 C-223.82459763 193.16599823 -223.82888275 192.04684021 -223.83329773 190.89376831 C-223.83901932 188.53546828 -223.83955738 186.17715061 -223.83520508 183.81884766 C-223.83204732 180.2330886 -223.85552513 176.64815715 -223.88085938 173.0625 C-223.88313297 170.76171978 -223.88383558 168.46093736 -223.8828125 166.16015625 C-223.89202225 165.09942902 -223.90123199 164.03870178 -223.91072083 162.9458313 C-223.84264036 151.85735706 -221.45022302 143.08165839 -213.51953125 135.08984375 C-205.78533273 128.80832947 -198.98471996 126.7608207 -189.14453125 126.96484375 C-188.31308594 126.97386719 -187.48164063 126.98289062 -186.625 126.9921875 C-184.58971788 127.01558155 -182.55458561 127.0514465 -180.51953125 127.08984375 C-180.57173828 126.14238281 -180.57173828 126.14238281 -180.625 125.17578125 C-181.27260654 103.77392687 -172.16506966 83.75976212 -157.69140625 68.36328125 C-156.9746875 67.61304687 -156.25796875 66.8628125 -155.51953125 66.08984375 C-154.9678125 65.46335937 -154.41609375 64.836875 -153.84765625 64.19140625 C-141.1430935 50.29185987 -120.86332273 42.90336413 -102.51953125 41.08984375 C-100.04531859 41.00849375 -97.56929572 40.97189774 -95.09375 40.97631836 C-94.40007828 40.97617233 -93.70640656 40.97602631 -92.99171448 40.97587585 C-90.73012004 40.9765649 -88.46861105 40.98430936 -86.20703125 40.9921875 C-84.62662806 40.99405527 -83.04622429 40.99547748 -81.46582031 40.99647522 C-77.32963429 41.00027213 -73.19348402 41.01007793 -69.05731201 41.0211792 C-64.82727543 41.03145443 -60.597233 41.03598587 -56.3671875 41.04101562 C-48.0846191 41.05170304 -39.80207964 41.06874507 -31.51953125 41.08984375 C-31.54047852 40.37965088 -31.56142578 39.66945801 -31.58300781 38.93774414 C-31.66687811 35.67609181 -31.71841482 32.41466731 -31.76953125 29.15234375 C-31.80304688 28.03537109 -31.8365625 26.91839844 -31.87109375 25.76757812 C-31.96254387 17.97145541 -31.31285759 11.0886506 -25.73925781 5.21313477 C-18.48923015 -1.36685201 -9.52098152 -3.43936232 0 0 Z M-126.9921875 99.24609375 C-136.51469696 110.74129698 -137.67176304 123.20708594 -137.66479492 137.63574219 C-137.66815353 138.6500531 -137.67151215 139.66436401 -137.67497253 140.70941162 C-137.68441687 144.03936003 -137.68642239 147.3692578 -137.6875 150.69921875 C-137.69071721 153.03175883 -137.69408162 155.36429871 -137.69758606 157.69683838 C-137.70356112 162.57882149 -137.70542764 167.46078693 -137.70483398 172.34277344 C-137.70473248 178.57069404 -137.71838006 184.79850034 -137.73560619 191.02639389 C-137.74677417 195.84279898 -137.74875172 200.65917686 -137.74822426 205.47559357 C-137.74939732 207.77029056 -137.75378088 210.06498842 -137.76155663 212.35967255 C-138.11218518 240.47807641 -138.11218518 240.47807641 -124.4296875 264.34375 C-115.13867706 272.83675955 -104.60431553 276.20199244 -92.15878296 276.23028564 C-91.42723263 276.23325677 -90.69568231 276.23622789 -89.94196379 276.23928905 C-87.49563997 276.24794636 -85.04936526 276.24948179 -82.60302734 276.25097656 C-80.84676001 276.25560692 -79.09049368 276.26063187 -77.33422852 276.26602173 C-72.56534344 276.27912864 -67.79647243 276.2855876 -63.02757215 276.29003239 C-60.04528204 276.29296647 -57.06299574 276.29707197 -54.08070755 276.30153656 C-44.741628 276.31520833 -35.4025572 276.32487599 -26.06346834 276.32873845 C-15.29851665 276.33321554 -4.53369217 276.3507486 6.23122084 276.37973905 C14.5617882 276.40139137 22.89231987 276.41144466 31.22291505 276.41277957 C36.19365926 276.41382525 41.16428385 276.41968228 46.13499832 276.43759918 C50.81522594 276.45414085 55.4952448 276.4562059 60.17549133 276.44746017 C61.88664181 276.446693 63.59780379 276.45099008 65.30892563 276.46091843 C81.12763647 276.54726767 94.44363934 274.44368177 106.37109375 263.359375 C117.22461265 251.68179262 118.63306213 237.73087577 118.62573242 222.52807617 C118.62909103 221.51215897 118.63244965 220.49624176 118.63591003 219.44953918 C118.64535363 216.11478427 118.64735978 212.78007992 118.6484375 209.4453125 C118.6516545 207.11037679 118.65501891 204.77544128 118.65852356 202.44050598 C118.66449824 197.55432671 118.66636515 192.66816509 118.66577148 187.78198242 C118.66566992 181.54499536 118.67932353 175.30812229 118.69654369 169.07116222 C118.70770406 164.2505085 118.70968946 159.429882 118.70916176 154.60921669 C118.71033573 152.3109021 118.71472452 150.01258666 118.72249413 147.7142849 C118.83580544 119.67988997 118.83580544 119.67988997 104.703125 96.2109375 C96.2214767 88.18025619 86.46302052 84.93505272 74.96113586 84.94940186 C74.21254576 84.94643073 73.46395566 84.94345961 72.69268101 84.94039845 C70.18874535 84.93173933 67.68485765 84.93020557 65.1809082 84.92871094 C63.38361001 84.92408075 61.5863128 84.91905582 59.78901672 84.91366577 C54.90863209 84.90055822 50.0282612 84.89409991 45.14786172 84.88965511 C42.09656544 84.88672146 39.0452729 84.88261607 35.9939785 84.87815094 C26.44079268 84.86447973 16.88761542 84.85481149 7.3344205 84.85094905 C-3.68127216 84.84647047 -14.69684061 84.82893023 -25.71249551 84.79994845 C-34.23497765 84.77830703 -42.75742491 84.76824344 -51.27993423 84.76690793 C-56.36634049 84.76586158 -61.45262993 84.75999 -66.53900719 84.74208832 C-71.32675194 84.72556532 -76.11429257 84.72347263 -80.90205574 84.73222733 C-82.65394005 84.73299546 -84.40583553 84.72868458 -86.15769196 84.71876907 C-102.16229855 84.63353541 -115.58546255 87.00734887 -126.9921875 99.24609375 Z " fill="#686868" transform="translate(265.51953125,0.91015625)"/>
<path d="M0 0 C1.41392098 -0.00299849 2.82784114 -0.00640259 4.24176025 -0.01017761 C8.05617476 -0.01895342 11.87056678 -0.02135305 15.68499041 -0.0219934 C18.07687515 -0.02270777 20.46875431 -0.0248494 22.86063766 -0.02749062 C31.23033761 -0.03672411 39.6000217 -0.04082817 47.96972656 -0.04003906 C55.73017065 -0.03943941 63.49054498 -0.04997433 71.25097144 -0.06578273 C77.94691242 -0.07892899 84.64283081 -0.08421998 91.33878458 -0.08358365 C95.3231066 -0.08333066 99.30736658 -0.08607031 103.29167557 -0.0967617 C107.04612502 -0.10656243 110.80045466 -0.10644147 114.55490875 -0.09924507 C116.56038506 -0.09772873 118.56586167 -0.10596221 120.57131958 -0.11468506 C133.23291319 -0.07171702 145.84580203 1.10160363 158.02880859 4.70776367 C159.34075195 5.09194458 159.34075195 5.09194458 160.67919922 5.48388672 C193.73085688 15.63555227 220.74503789 38.60004549 236.95532227 68.984375 C245.99127849 86.6220553 250.81517113 105.28355168 251.27880859 125.08276367 C251.31796387 126.04206787 251.35711914 127.00137207 251.39746094 127.98974609 C251.4236698 135.16660744 249.45938755 139.75172594 244.71630859 145.14526367 C238.14775512 150.85329495 231.03490832 150.70941039 222.71630859 150.14526367 C216.68416432 148.09864329 212.62464285 144.14625842 209.63037109 138.56713867 C207.37990613 133.94468995 207.00359095 129.65907259 206.71630859 124.58276367 C205.10887435 104.85087332 198.73034035 85.4542463 183.98583984 71.50854492 C182.71630859 70.14526367 182.71630859 70.14526367 182.71630859 68.14526367 C182.14396484 67.8900293 181.57162109 67.63479492 180.98193359 67.37182617 C178.47326856 66.01368683 176.6096401 64.40129937 174.46630859 62.52026367 C161.08547853 51.68159425 143.56828581 45.05283447 126.3500824 45.00482178 C125.11539719 44.99911163 123.88071198 44.99340149 122.60861206 44.98751831 C121.25836192 44.98627325 119.90811166 44.98514809 118.55786133 44.98413086 C117.12143325 44.97949626 115.68500639 44.97447074 114.24858093 44.96908569 C110.35975014 44.95601878 106.47093657 44.94952757 102.58208728 44.94507504 C100.14617927 44.94213418 97.71027587 44.93802743 95.27437019 44.93357086 C87.63480956 44.91990901 79.99525956 44.91023677 72.35568756 44.90636897 C63.57116121 44.90189571 54.78679103 44.88437639 46.00231212 44.85536838 C39.19011577 44.83366328 32.37796306 44.82365995 25.56573254 44.82232785 C21.5076168 44.82128583 17.44964811 44.81550823 13.39156914 44.79750824 C9.56736092 44.78087471 5.74340789 44.77894499 1.9191761 44.78764725 C0.52695653 44.78840962 -0.86527764 44.7841826 -2.25746155 44.774189 C-25.87595838 44.61478998 -48.12427249 52.62502082 -65.28369141 69.14526367 C-79.93860009 84.75833913 -87.50558973 103.2254773 -89.22119141 124.45776367 C-89.8973599 132.62156014 -90.78009218 139.92870704 -97.06103516 145.80932617 C-103.71490533 150.84544778 -110.24405948 150.80253216 -118.28369141 150.14526367 C-124.35528352 148.60777986 -127.62631734 145.05668571 -131.15478516 140.04760742 C-137.61103607 129.16804273 -133.37040575 109.68769944 -130.60400391 98.02416992 C-125.5852334 78.75471236 -116.99589635 61.50670035 -104.28369141 46.14526367 C-103.85781738 45.62899414 -103.43194336 45.11272461 -102.99316406 44.58081055 C-81.6074291 19.04514153 -50.29116676 3.56888845 -17.26845169 0.3583889 C-11.5179019 -0.05222606 -5.7626321 -0.00200254 0 0 Z " fill="#686868" transform="translate(197.28369140625,361.854736328125)"/>
<path d="M0 0 C6.52984143 5.30549616 9.92921656 11.40483717 12.5625 19.3046875 C13.35381511 31.14397889 12.32590663 39.96176853 4.6484375 49.2265625 C-2.13629399 55.98588301 -10.33833999 59.2023819 -19.8125 59.6171875 C-29.76278878 59.32604308 -37.17251403 55.49804101 -44.16015625 48.60546875 C-50.459218 41.71828822 -52.80207104 34.02582132 -52.6484375 24.76171875 C-51.86413535 15.6260511 -48.03599328 7.28094242 -41.0703125 1.2578125 C-28.6795555 -7.85636134 -12.85904709 -8.94363211 0 0 Z " fill="#686868" transform="translate(222.4375,154.6953125)"/>
<path d="M0 0 C8.75644589 4.59139485 14.34147637 10.96080271 17.89453125 20.1953125 C20.34646906 28.68409031 19.54894237 37.03510332 16.0859375 45.09375 C10.85293988 54.02156108 3.61680107 59.91376318 -6.2890625 62.78125 C-16.96385655 64.05205882 -26.04107911 62.15701194 -34.875 55.8203125 C-41.8260588 49.93455006 -45.37581615 42.76194922 -46.23046875 33.76171875 C-46.5740564 23.53167359 -44.76786686 16.25516305 -38.2890625 8.28125 C-28.64371772 -1.9431774 -13.12921715 -5.27120986 0 0 Z " fill="#686868" transform="translate(322.9140625,150.90625)"/>
</svg>
