<?xml version="1.0" encoding="UTF-8"?>
<svg version="1.1" xmlns="http://www.w3.org/2000/svg" width="512" height="512">
<path d="M0 0 C5.22863365 4.26294372 10.09664603 8.90234864 14.94580078 13.58642578 C15.59677734 14.18583984 16.24775391 14.78525391 16.91845703 15.40283203 C32.29844019 29.91019203 44.22520827 49.49634712 52.94580078 68.58642578 C53.47689453 69.72208984 54.00798828 70.85775391 54.55517578 72.02783203 C63.75295989 92.48578999 69.87810256 115.29683774 70.21923828 137.80126953 C70.23823433 138.94767914 70.23823433 138.94767914 70.25761414 140.11724854 C70.70730615 173.8400986 64.64298519 205.82477772 47.94580078 235.58642578 C47.30266949 236.779788 46.66074504 237.9738014 46.02001953 239.16845703 C37.29248349 255.1872411 26.09918685 269.95569082 12.94580078 282.58642578 C12.10017578 283.43205078 11.25455078 284.27767578 10.38330078 285.14892578 C9.57892578 285.95330078 8.77455078 286.75767578 7.94580078 287.58642578 C7.48302734 288.08400391 7.02025391 288.58158203 6.54345703 289.09423828 C-15.62638166 312.40238165 -48.10696651 327.79950264 -78.74169922 335.96142578 C-80.00143555 336.30101318 -80.00143555 336.30101318 -81.28662109 336.64746094 C-101.45822317 341.70556236 -121.46328889 342.05273134 -142.11232901 342.02233386 C-145.40508866 342.01920307 -148.69780696 342.02537603 -151.99056065 342.03137261 C-159.76311196 342.04531653 -167.53555309 342.04393827 -175.30810547 342.0324707 C-183.2836134 342.02096269 -191.25878608 342.03513324 -199.23424995 342.06186718 C-206.13165401 342.08410776 -213.02895344 342.0906439 -219.92639077 342.08479077 C-224.02457567 342.08144433 -228.12254516 342.08368193 -232.22069931 342.10104179 C-236.07061759 342.11664672 -239.92004161 342.11240781 -243.76994133 342.09373665 C-245.17022682 342.09008979 -246.57055013 342.09304309 -247.9708004 342.10362244 C-264.96575379 342.22208963 -280.48933221 337.4761044 -293.12060547 325.71142578 C-313.03471029 303.82602573 -314.69063324 278.07919543 -314.59150124 249.91069293 C-314.5812084 246.05739984 -314.5908125 242.20414037 -314.5970459 238.35084534 C-314.60428194 231.87811341 -314.59484839 225.40556521 -314.57568359 218.93286133 C-314.55398734 211.52108253 -314.56092968 204.10974535 -314.58298922 196.69797748 C-314.60133776 190.2683647 -314.60360626 183.83888235 -314.59323454 177.40925175 C-314.58709647 173.5985359 -314.58588658 169.78802501 -314.59938049 165.97732353 C-314.77861752 107.28896316 -295.88041126 56.17809564 -255.05419922 13.58642578 C-252.47784769 11.13809172 -249.77962111 8.8662107 -247.05419922 6.58642578 C-246.10931641 5.75369141 -245.16443359 4.92095703 -244.19091797 4.06298828 C-236.27926642 -2.87372692 -227.97827361 -8.84761357 -219.05419922 -14.41357422 C-217.95720703 -15.10193359 -216.86021484 -15.79029297 -215.72998047 -16.49951172 C-200.02388889 -25.90457957 -182.71014513 -32.68860041 -165.05419922 -37.41357422 C-164.18005371 -37.65624023 -163.3059082 -37.89890625 -162.40527344 -38.14892578 C-106.07834892 -53.26904451 -44.90942044 -35.41547885 0 0 Z " fill="#BB8C07" transform="translate(314.05419921875,42.41357421875)"/>
<path d="M0 0 C4.71114442 1.77969826 8.50371115 4.14996422 12.625 7 C13.33140625 7.48694336 14.0378125 7.97388672 14.765625 8.47558594 C21.00306731 12.85597156 26.47671874 17.74746782 32 23 C33.41054709 24.21547143 34.82672811 25.42445387 36.25 26.625 C40.24108265 30.12524385 43.6715299 33.866564 47 38 C47.6499292 38.80606689 47.6499292 38.80606689 48.31298828 39.62841797 C71.87674237 69.14898689 86.09422941 105.35755635 86.17700195 143.27807617 C86.18357315 144.59460175 86.19014435 145.91112732 86.19691467 147.26754761 C86.21781179 151.60934257 86.22830264 155.95113731 86.23828125 160.29296875 C86.24233399 161.7958967 86.24645106 163.29882449 86.25063133 164.80175209 C86.26965044 171.8651871 86.28388902 178.92861187 86.2922433 185.99206752 C86.30200762 194.11048314 86.32831979 202.22862555 86.36874419 210.34694499 C86.39902095 216.64619798 86.41372301 222.94537312 86.41702431 229.24469739 C86.41936129 232.99598552 86.42814377 236.74698069 86.45348549 240.49818993 C86.47697569 244.03191756 86.48091685 247.56516359 86.47072411 251.09894943 C86.47000243 252.99174415 86.48894409 254.8845156 86.50878906 256.77720642 C86.40147245 274.69028605 79.05797296 289.2504179 67.01171875 302.125 C62.66944591 306.31189961 57.94206041 309.41670688 52.6875 312.3125 C52.10798584 312.63814941 51.52847168 312.96379883 50.93139648 313.29931641 C41.00950747 318.49039043 30.54152271 319.44566768 19.51831055 319.40405273 C17.58137077 319.41434761 17.58137077 319.41434761 15.6053009 319.42485046 C12.09624106 319.44263416 8.58743337 319.44163964 5.0783422 319.43590808 C2.124835 319.43278921 -0.82862562 319.43893954 -3.78212613 319.44494683 C-10.77056256 319.45894716 -17.7588767 319.45747335 -24.74731445 319.44604492 C-31.89202203 319.43461702 -39.03635186 319.44855929 -46.18100959 319.4754414 C-52.36587501 319.49781781 -58.55062384 319.50418573 -64.73552674 319.49836498 C-68.40655852 319.49504 -72.0773496 319.49710265 -75.74834633 319.51461601 C-97.08005957 319.60672712 -117.96254606 318.55775332 -138.25 311.3125 C-139.73137451 310.79768066 -139.73137451 310.79768066 -141.24267578 310.27246094 C-179.02502687 296.79572092 -214.06745925 269.94786219 -233 234 C-233 233.67 -233 233.34 -233 233 C-232.18136475 232.90501221 -231.36272949 232.81002441 -230.51928711 232.7121582 C-169.64470089 225.54067825 -116.86713704 204.66989514 -72 162 C-71.43345703 161.46213867 -70.86691406 160.92427734 -70.28320312 160.37011719 C-61.68820863 152.15026333 -54.05900102 143.56631109 -47 134 C-46.57235352 133.42781738 -46.14470703 132.85563477 -45.70410156 132.26611328 C-16.45508085 93.02017141 -2.45726646 48.69646081 0 0 Z " fill="#BB8C07" transform="translate(426,193)"/>
</svg>
