<?xml version="1.0" encoding="UTF-8"?>
<svg version="1.1" xmlns="http://www.w3.org/2000/svg" width="512" height="512">
<path d="M0 0 C1.01790619 0.00215515 2.03581238 0.0043103 3.08456421 0.00653076 C17.69363523 0.05620146 32.02575853 0.30709809 46.375 3.3125 C47.34985352 3.51117676 48.32470703 3.70985352 49.32910156 3.91455078 C88.37782454 12.08284366 124.83813271 27.70153311 156.375 52.3125 C157.27089844 52.99699219 158.16679687 53.68148437 159.08984375 54.38671875 C174.64561709 66.50203669 189.29582193 80.73146847 201.375 96.3125 C202.14972656 97.27027344 202.92445313 98.22804688 203.72265625 99.21484375 C238.26056965 142.61986011 256.81394766 197.76289597 256.69067383 253.03979492 C256.6875221 255.97938487 256.71104926 258.9179558 256.73632812 261.85742188 C256.78098737 275.23056192 255.57551542 288.12666711 253.375 301.3125 C253.09281616 303.01805054 253.09281616 303.01805054 252.80493164 304.75805664 C245.77946967 343.86954746 228.79665906 381.05202178 204.375 412.3125 C203.61574219 413.28445313 202.85648437 414.25640625 202.07421875 415.2578125 C189.73986402 430.63741644 175.93895499 445.19015196 160.375 457.3125 C159.43914062 458.07691406 158.50328125 458.84132813 157.5390625 459.62890625 C125.58628299 485.2157721 86.41988322 501.72551276 46.375 509.3125 C45.56562988 509.47621094 44.75625977 509.63992188 43.92236328 509.80859375 C13.88110013 515.67977137 -20.7615176 514.58512909 -50.625 508.3125 C-52.14794678 507.99901611 -52.14794678 507.99901611 -53.70166016 507.67919922 C-90.84546555 499.78695344 -125.70945445 483.68345578 -155.625 460.3125 C-156.59695312 459.55324219 -157.56890625 458.79398437 -158.5703125 458.01171875 C-173.94991644 445.67736402 -188.50265196 431.87645499 -200.625 416.3125 C-201.77162109 414.90871094 -201.77162109 414.90871094 -202.94140625 413.4765625 C-228.5282721 381.52378299 -245.03801276 342.35738322 -252.625 302.3125 C-252.78871094 301.50312988 -252.95242187 300.69375977 -253.12109375 299.85986328 C-258.59069558 271.87335724 -258.46977511 238.21828161 -252.625 210.3125 C-252.42632324 209.33764648 -252.22764648 208.36279297 -252.02294922 207.35839844 C-241.93598313 159.13741149 -219.89911449 114.53770064 -185.40722656 79.14160156 C-183.63301167 77.32072238 -181.87518486 75.48496071 -180.1171875 73.6484375 C-173.01562574 66.30860161 -165.60158994 59.73928631 -157.40917969 53.64355469 C-155.59628085 52.2910746 -153.80174757 50.91656557 -152.0078125 49.5390625 C-143.60124472 43.15234877 -134.85975388 37.61076633 -125.65234375 32.45166016 C-123.78933792 31.40484113 -121.94116361 30.33571119 -120.09375 29.26171875 C-83.4933446 8.69459905 -41.63834482 -0.15855121 0 0 Z M-46.625 70.3125 C-47.32818359 70.48088379 -48.03136719 70.64926758 -48.75585938 70.82275391 C-90.57096877 81.09918159 -128.08677166 108.06591395 -153.625 142.3125 C-154.25019531 143.14265625 -154.87539062 143.9728125 -155.51953125 144.828125 C-171.36039937 166.64177946 -181.52055435 191.14549027 -187.625 217.3125 C-187.81707031 218.11558594 -188.00914062 218.91867188 -188.20703125 219.74609375 C-193.89196681 244.78584811 -192.57528505 274.51964563 -186.625 299.3125 C-186.42132813 300.19035156 -186.21765625 301.06820312 -186.0078125 301.97265625 C-175.6763408 345.27555307 -149.15104037 383.82016206 -113.625 410.3125 C-112.37976563 411.25029297 -112.37976563 411.25029297 -111.109375 412.20703125 C-71.09241412 441.26696713 -20.03630002 453.68536828 28.8269043 446.11547852 C80.36107322 437.46834368 125.55775358 410.04927789 156.3125 367.6875 C171.94390881 345.62745877 182.23559303 321.62937316 188.375 295.3125 C188.66310547 294.10787109 188.66310547 294.10787109 188.95703125 292.87890625 C194.64196681 267.83915189 193.32528505 238.10535437 187.375 213.3125 C187.17132813 212.43464844 186.96765625 211.55679688 186.7578125 210.65234375 C176.4263408 167.34944693 149.90104037 128.80483794 114.375 102.3125 C113.54484375 101.68730469 112.7146875 101.06210938 111.859375 100.41796875 C88.38827806 83.37348169 61.73537043 72.78931958 33.375 67.3125 C32.2921875 67.09722656 31.209375 66.88195312 30.09375 66.66015625 C4.75772719 62.18717284 -21.75228368 64.19156438 -46.625 70.3125 Z " fill="#686868" transform="translate(255.625,-0.3125)"/>
<path d="M0 0 C6.97411261 4.8659683 12.2560506 11.57089038 14.8046875 19.74609375 C15.2254741 22.55190565 15.28264792 25.2872714 15.2421875 28.12109375 C15.22973999 29.24535767 15.22973999 29.24535767 15.21704102 30.39233398 C14.7686313 45.08772579 4.21567556 53.5070405 -5.6328125 63.30859375 C-6.44041016 64.12005859 -7.24800781 64.93152344 -8.08007812 65.76757812 C-12.33170997 70.01235803 -16.66510875 74.07147982 -21.21899414 77.98803711 C-24.8746497 81.2399674 -28.26832349 84.75668236 -31.6953125 88.24609375 C-35.74479714 92.36933949 -39.77890198 96.44621075 -44.1640625 100.21484375 C-48.74709911 104.15796767 -52.95871339 108.43719773 -57.1953125 112.74609375 C-62.05571299 117.68943623 -66.95411601 122.46319482 -72.21240234 126.98144531 C-75.8153347 130.18779782 -79.1369338 133.6746435 -82.5078125 137.12109375 C-100.39495453 155.15389654 -119.35879717 167.14313217 -145.2578125 167.99609375 C-166.84086832 167.72441892 -184.97455082 159.03434953 -200.421875 144.375 C-202.66055776 142.25298099 -204.92378975 140.19847461 -207.2578125 138.18359375 C-211.41273846 134.58150617 -215.46538764 130.87069355 -219.5234375 127.16015625 C-221.79889637 125.1042592 -224.1077333 123.10531795 -226.4453125 121.12109375 C-234.30886473 114.22437171 -240.42326644 107.49981843 -241.64453125 96.81640625 C-242.2482 86.24562849 -240.47114253 77.82933592 -233.33203125 69.59765625 C-226.06099069 62.69089628 -216.98147617 59.27380946 -207.0234375 59.4921875 C-194.45878412 60.62022959 -186.96628731 67.49662389 -178.1953125 75.74609375 C-176.88207235 76.96414779 -175.5682608 78.18158604 -174.25390625 79.3984375 C-171.67815168 81.7910273 -169.1112291 84.19260443 -166.55078125 86.6015625 C-156.3667839 97.19339604 -156.3667839 97.19339604 -143.1953125 101.74609375 C-138.75699004 99.47971632 -135.55008961 96.22762187 -132.13110352 92.68164062 C-130.31873703 90.86950271 -128.45190251 89.20606777 -126.5 87.546875 C-122.0153186 83.6526095 -117.85525896 79.48181337 -113.6953125 75.24609375 C-109.64582786 71.12284801 -105.61172302 67.04597675 -101.2265625 63.27734375 C-96.64352589 59.33421983 -92.43191161 55.05498977 -88.1953125 50.74609375 C-83.33884904 45.80675549 -78.44509474 41.03458234 -73.19140625 36.51953125 C-69.52735762 33.26419254 -66.12826207 29.74157427 -62.6953125 26.24609375 C-57.92120367 21.38502483 -53.09096464 16.70710397 -47.92333984 12.26464844 C-45.90690809 10.49264992 -44.07734621 8.59328675 -42.2578125 6.62109375 C-30.98941478 -4.77987335 -14.19818227 -8.10963792 0 0 Z " fill="#686868" transform="translate(369.1953125,174.25390625)"/>
</svg>
