<?xml version="1.0" encoding="UTF-8"?>
<svg version="1.1" xmlns="http://www.w3.org/2000/svg" width="512" height="512">
<path d="M0 0 C0.98584076 0.00054382 1.97168152 0.00108765 2.98739624 0.00164795 C19.35690674 0.04301309 35.11789842 1.0175184 51.1875 4.375 C52.20424805 4.58398926 53.22099609 4.79297852 54.26855469 5.00830078 C91.50281869 12.92102642 126.12956103 29.09107587 156.1875 52.375 C157.08597656 53.06078125 157.98445313 53.7465625 158.91015625 54.453125 C174.46302342 66.57992476 189.09791145 80.79632064 201.1875 96.375 C201.950625 97.30957031 202.71375 98.24414062 203.5 99.20703125 C226.76049892 128.24537846 242.97874735 163.75883508 251 200 C251.18264404 200.81952148 251.36528809 201.63904297 251.5534668 202.48339844 C255.21702825 220.19709882 256.71457952 237.75069569 256.5625 255.8125 C256.55601944 257.28411591 256.55601944 257.28411591 256.54940796 258.78546143 C256.47523759 273.17685419 255.96848053 287.21878729 253.1875 301.375 C253.02652832 302.27057617 252.86555664 303.16615234 252.69970703 304.08886719 C244.81047508 347.69563051 225.12100867 388.83356217 196.1875 422.375 C195.55328125 423.12007813 194.9190625 423.86515625 194.265625 424.6328125 C182.45448485 438.13779833 169.70389772 450.80918743 155.1875 461.375 C154.03755169 462.23149066 152.88781411 463.08826433 151.73828125 463.9453125 C143.54660474 469.9859414 135.03104922 475.34505071 126.1875 480.375 C125.55569824 480.73948242 124.92389648 481.10396484 124.27294922 481.47949219 C98.24416464 496.37750327 68.82611377 506.02291257 39.1875 510.375 C37.98504639 510.55160156 36.78259277 510.72820312 35.54370117 510.91015625 C23.82743596 512.51411689 12.18834274 512.77574553 0.375 512.75 C-0.61183777 512.74912384 -1.59867554 512.74824768 -2.61541748 512.74734497 C-67.56969852 512.55782667 -129.98321624 487.47829016 -176.8125 442.375 C-177.47185547 441.74287598 -178.13121094 441.11075195 -178.81054688 440.45947266 C-188.29880305 431.31502521 -197.0387044 422.01765991 -204.8125 411.375 C-205.67056152 410.22394983 -206.52863451 409.07290823 -207.38671875 407.921875 C-213.42486829 399.73069386 -218.78345521 391.21695895 -223.8125 382.375 C-224.17698242 381.74319824 -224.54146484 381.11139648 -224.91699219 380.46044922 C-239.84723018 354.37535999 -249.32635054 325.03914886 -253.8125 295.375 C-254.07740234 293.69132324 -254.07740234 293.69132324 -254.34765625 291.97363281 C-256.0045586 280.36052257 -256.21123513 268.84320055 -256.1875 257.125 C-256.18695618 256.11298523 -256.18641235 255.10097046 -256.18585205 254.05828857 C-256.1451051 237.52382605 -255.22136907 221.60435136 -251.8125 205.375 C-251.60351074 204.35970215 -251.39452148 203.3444043 -251.17919922 202.29833984 C-242.40130189 160.98633315 -223.39863066 122.3544774 -195.8125 90.375 C-195.17828125 89.62992187 -194.5440625 88.88484375 -193.890625 88.1171875 C-182.07948485 74.61220167 -169.32889772 61.94081257 -154.8125 51.375 C-153.66255169 50.51850934 -152.51281411 49.66173567 -151.36328125 48.8046875 C-143.17160474 42.7640586 -134.65604922 37.40494929 -125.8125 32.375 C-125.18069824 32.01051758 -124.54889648 31.64603516 -123.89794922 31.27050781 C-97.86916464 16.37249673 -68.45111377 6.72708743 -38.8125 2.375 C-37.61004639 2.19839844 -36.40759277 2.02179687 -35.16870117 1.83984375 C-23.45224155 0.2358565 -11.81347836 -0.02463344 0 0 Z M-134.8125 120.375 C-135.59109375 121.10074219 -136.3696875 121.82648438 -137.171875 122.57421875 C-163.26474948 147.60302211 -180.17110568 182.39636943 -187.8125 217.375 C-187.97621094 218.08720703 -188.13992187 218.79941406 -188.30859375 219.53320312 C-193.89266066 244.79995216 -192.83936563 274.35311648 -186.8125 299.375 C-186.60351074 300.26348633 -186.39452148 301.15197266 -186.17919922 302.06738281 C-179.78313587 328.46611618 -167.68863199 353.12335375 -150.8125 374.375 C-150.36793457 374.93525879 -149.92336914 375.49551758 -149.46533203 376.07275391 C-117.65032211 415.72236985 -71.86015092 441.16332544 -21.30224609 447.10498047 C1.6982021 449.59943975 24.72533408 447.90272241 47.1875 442.375 C48.24227539 442.12242432 48.24227539 442.12242432 49.31835938 441.86474609 C97.81895854 429.94530101 138.88111138 396.38471414 164.94042969 354.50439453 C176.05241248 336.0873925 183.31328668 316.26855768 188.1875 295.375 C188.47560547 294.17037109 188.47560547 294.17037109 188.76953125 292.94140625 C194.45145229 267.91492962 193.15556022 238.15273965 187.1875 213.375 C186.97851074 212.48651367 186.76952148 211.59802734 186.55419922 210.68261719 C180.15813587 184.28388382 168.06363199 159.62664625 151.1875 138.375 C150.52065186 137.53461182 150.52065186 137.53461182 149.84033203 136.67724609 C118.10281016 97.12420002 72.26387436 71.49185208 21.78076172 65.64501953 C-37.05618948 59.51870923 -92.34069708 79.90543922 -134.8125 120.375 Z " fill="#686868" transform="translate(255.8125,-0.375)"/>
<path d="M0 0 C6.05901354 5.1420364 10.33058411 12.0271058 11.32217216 20.00954628 C11.43341281 22.52791469 11.45601511 25.03120229 11.44311523 27.55200195 C11.44997849 28.50110443 11.45684174 29.45020691 11.46391296 30.42807007 C11.48211939 33.54595166 11.47835144 36.66332697 11.47265625 39.78125 C11.47722168 41.96307029 11.48252833 44.14488915 11.48854065 46.32670593 C11.49746022 50.89356334 11.49506249 55.46024578 11.48510742 60.02709961 C11.47363191 65.85747178 11.49381387 71.68723701 11.52302456 77.51752949 C11.54144109 82.02249441 11.541083 86.52731543 11.53538704 91.03230858 C11.53523443 93.18073565 11.54122884 95.32917285 11.55367851 97.47756386 C11.66084973 119.00646541 11.66084973 119.00646541 7.0390625 127.73046875 C6.49507813 128.76300781 5.95109375 129.79554688 5.390625 130.859375 C-2.81134817 142.42007473 -14.95536661 148.85133535 -26.93139648 155.91113281 C-33.66998194 159.89771262 -40.23486921 164.11234466 -46.7734375 168.41796875 C-53.30632515 172.71051204 -59.83912667 176.98880187 -66.5234375 181.04296875 C-67.63847656 181.71972656 -68.75351563 182.39648438 -69.90234375 183.09375 C-78.51834398 187.70435549 -88.45197981 188.1532383 -97.9453125 186.078125 C-108.00358177 182.43903068 -113.3172448 176.07009648 -117.83203125 166.59765625 C-121.30333879 157.78125578 -120.4977513 149.35815091 -116.9609375 140.73046875 C-111.70084135 130.41258784 -102.52386008 124.81555946 -92.7734375 119.16796875 C-85.12113091 114.65787143 -77.57285488 110.01027343 -70.0859375 105.23046875 C-68.70498901 104.34959595 -68.70498901 104.34959595 -67.29614258 103.45092773 C-64.84685355 101.88368175 -62.39910993 100.31495614 -59.9609375 98.73046875 C-58.93641479 98.19040192 -57.91189209 97.65033508 -56.85632324 97.09390259 C-53.65340471 94.97883702 -53.65340471 94.97883702 -53.22836304 91.39352417 C-53.20550618 90.05142172 -53.21547433 88.7085137 -53.25146484 87.36669922 C-53.24726028 86.63115311 -53.24305573 85.89560699 -53.23872375 85.13777161 C-53.23101684 82.70689718 -53.26461525 80.27829937 -53.296875 77.84765625 C-53.29578061 76.15096546 -53.2914696 74.45427397 -53.28408813 72.75759888 C-53.27067005 68.2862409 -53.28951283 63.81568527 -53.31854248 59.34442139 C-53.363853 52.21000265 -53.37939798 45.0760303 -53.35899734 37.94150162 C-53.35936745 35.46078895 -53.38504188 32.98123909 -53.41268921 30.5007019 C-53.4580282 19.27127879 -52.11168004 10.04392345 -44.15625 1.5546875 C-30.72825177 -9.60345338 -14.02838423 -10.03797811 0 0 Z " fill="#686868" transform="translate(276.9609375,140.26953125)"/>
</svg>
