<?xml version="1.0" encoding="UTF-8"?>
<svg version="1.1" xmlns="http://www.w3.org/2000/svg" width="512" height="512">
<path d="M0 0 C5.99600622 4.12483811 11.14171896 8.863583 16.25195312 14.02490234 C17.03340698 14.80606415 17.81486084 15.58722595 18.61999512 16.39205933 C21.17852147 18.95196894 23.7299079 21.51886935 26.28125 24.0859375 C28.06299786 25.87141905 29.84519044 27.65645692 31.62780762 29.44107056 C35.82450386 33.64459927 40.01672701 37.85255395 44.20675993 42.06272185 C48.98158064 46.85998304 53.76215676 51.6514915 58.54319859 56.44255137 C68.36849997 66.28869575 78.18663719 76.14195777 88 86 C91.02106651 84.64730366 93.1023373 83.14144948 95.42633057 80.79399109 C96.08498611 80.13374939 96.74364166 79.47350769 97.42225647 78.79325867 C98.13401535 78.0695961 98.84577423 77.34593353 99.57910156 76.6003418 C100.3373674 75.83754913 101.09563324 75.07475647 101.87687683 74.28884888 C103.52306611 72.63170088 105.16697588 70.97228605 106.80887604 69.31088829 C109.41071644 66.67889446 112.01916961 64.05362498 114.62957764 61.43013 C122.05050198 53.96945246 129.4587673 46.49625105 136.86376953 39.01977539 C141.39427654 34.44646796 145.93213776 29.88056052 150.4743576 25.31888771 C152.2011753 23.5815241 153.92507312 21.84125313 155.64594269 20.09799767 C158.05823521 17.65438528 160.47971837 15.22023051 162.90332031 12.7878418 C163.60698227 12.07025192 164.31064423 11.35266205 165.03562927 10.61332703 C172.41250293 3.25003775 179.99805907 -2.14120716 190.76000977 -2.38012695 C197.96857433 -2.36212055 203.77666464 -1.92509118 210 2 C210.93199219 2.5259375 210.93199219 2.5259375 211.8828125 3.0625 C218.74365239 7.3393872 222.93905235 14.29262042 225 22 C225.93358302 32.37796939 225.87843592 42.13921544 218.9304657 50.48626709 C210.50145474 59.60094531 201.74976657 68.37796244 192.95703125 77.140625 C191.33585485 78.75993197 189.71490231 80.3794631 188.09416199 81.99920654 C183.86655031 86.22303434 179.63594236 90.44384817 175.40466309 94.66400146 C171.07196724 98.98639352 166.74216739 103.31168447 162.41210938 107.63671875 C153.94420826 116.09395554 145.47313299 124.54800515 137 133 C138.35751918 136.03665104 139.87590079 138.11813513 142.23724365 140.45083618 C142.90445435 141.11501556 143.57166504 141.77919495 144.25909424 142.46350098 C144.9905365 143.18146851 145.72197876 143.89943604 146.47558594 144.63916016 C147.24652588 145.40396698 148.01746582 146.1687738 148.81176758 146.95675659 C150.4869589 148.61763963 152.16437717 150.27627884 153.84374237 151.93294144 C156.50576963 154.56017751 159.16063738 157.19445205 161.8135376 159.8309021 C169.35783183 167.32631291 176.91298957 174.81068216 184.47753906 182.28564453 C189.1049609 186.85930856 193.72243823 191.44282205 198.33405304 196.03242111 C200.08923795 197.77523475 201.8482031 199.51425024 203.61107635 201.24928665 C206.0856492 203.6851493 208.54739692 206.13334342 211.00683594 208.58447266 C211.73018127 209.2902948 212.45352661 209.99611694 213.1987915 210.72332764 C221.06072106 218.61548102 226.86993408 227.42970466 227.3125 238.8125 C227.06509828 249.64869524 222.68294456 257.9186754 214.99609375 265.390625 C207.59067078 271.36133784 198.25799717 272.92184894 189 272 C177.15749325 269.23508281 169.06720057 261.37916035 160.72631836 252.95336914 C159.95447205 252.18181488 159.18262573 251.41026062 158.38739014 250.61532593 C155.86676458 248.09331993 153.35327517 245.5643302 150.83984375 243.03515625 C149.08194589 241.27352368 147.32360255 239.51233554 145.56483459 237.75157166 C140.95898046 233.13811711 136.35916685 228.51868605 131.76062012 223.89794922 C127.0588163 219.17451305 122.35017589 214.45789469 117.64257812 209.74023438 C108.42278905 200.49905881 99.20918002 191.25174733 90 182 C86.94046772 183.36574035 84.84613245 184.90892311 82.49101257 187.28193665 C81.81408356 187.95900665 81.13715454 188.63607666 80.43971252 189.33366394 C79.70768112 190.07602798 78.97564972 190.81839203 78.22143555 191.58325195 C77.44205627 192.36555176 76.662677 193.14785156 75.85968018 193.95385742 C74.16761952 195.65352943 72.47787342 197.35550803 70.79016685 199.05950356 C68.11683564 201.75835417 65.43731306 204.45091466 62.75605774 207.14189148 C56.57791847 213.34484521 50.40905592 219.5569825 44.24072266 225.76968384 C38.14377935 231.91028713 32.04288492 238.04689385 25.93512917 244.17674828 C23.29935591 246.82545934 20.66969679 249.48013927 18.04020691 252.13508606 C16.41601907 253.76654269 14.79154766 255.39771709 13.16674805 257.02856445 C12.44078934 257.7648558 11.71483063 258.50114716 10.96687317 259.25975037 C2.51261135 267.71575132 -5.14907324 273.00292914 -17.375 273.4375 C-27.28852933 273.14864425 -34.86861385 270.16605771 -42.0546875 263.2890625 C-48.6710907 255.50349568 -50.37758254 247.33263407 -50.27734375 237.38671875 C-49.2518681 224.86436111 -40.38677847 216.07663239 -31.88330078 207.65625 C-31.09238541 206.86504257 -30.30147003 206.07383514 -29.48658752 205.25865173 C-26.89421256 202.66766025 -24.29484541 200.08380815 -21.6953125 197.5 C-19.88741073 195.69583185 -18.0799526 193.89121904 -16.2729187 192.08618164 C-12.01626312 187.83635905 -7.75518908 183.59101724 -3.49189556 179.34785748 C1.36582322 174.51257756 6.21779065 169.67154369 11.069309 164.83004379 C21.0398679 154.88032905 31.01754466 144.9377781 41 135 C39.63507839 131.9408575 38.09577844 129.8537702 35.71806335 127.50447083 C35.04099335 126.83043213 34.36392334 126.15639343 33.66633606 125.46192932 C32.92397202 124.73304001 32.18160797 124.0041507 31.41674805 123.25317383 C30.63444824 122.47700714 29.85214844 121.70084045 29.04614258 120.90115356 C27.34639427 119.21571359 25.6444189 117.53251731 23.94049644 115.85129738 C21.24094436 113.1865245 18.54854108 110.51472205 15.85810852 107.84074402 C8.20719588 100.23872971 0.54538618 92.64778331 -7.12573242 85.06616211 C-11.81838931 80.42808254 -16.50029134 75.77930472 -21.17674828 71.12488365 C-22.95788606 69.35613085 -24.74280602 67.59117804 -26.53161049 65.83017921 C-29.03987396 63.36054565 -31.53539033 60.87865196 -34.02856445 58.39379883 C-35.13300148 57.31564659 -35.13300148 57.31564659 -36.25975037 56.2157135 C-43.85123072 48.59534869 -49.23821882 39.82338469 -49.375 28.8125 C-49.16988497 18.79604913 -46.23993914 11.20858809 -39.2890625 3.9453125 C-28.34532674 -5.35499536 -12.5342983 -7.29055609 0 0 Z " fill="#BB8C07" transform="translate(167,122)"/>
</svg>
