<?xml version="1.0" encoding="UTF-8"?>
<svg version="1.1" xmlns="http://www.w3.org/2000/svg" width="512" height="512">
<path d="M0 0 C3.02031564 0.01611226 6.03929397 0.00001086 9.05957031 -0.01904297 C37.48809404 -0.05024534 73.16483206 1.46819428 94.38769531 22.52783203 C106.17737992 35.34955135 108.81475146 50.17590886 108.1953125 66.92529297 C107.11873802 82.11160893 97.71240844 93.32834167 87.14550781 103.39111328 C80.27180614 110.10262021 73.79339663 116.69797934 68.02050781 124.39111328 C67.31539063 125.27927734 66.61027344 126.16744141 65.88378906 127.08251953 C47.19317868 151.05738626 34.53668909 178.75319582 28.02050781 208.39111328 C27.85534668 209.138125 27.69018555 209.88513672 27.52001953 210.65478516 C17.83273489 256.85722233 29.31442728 307.51513543 54.82128906 346.78564453 C61.7789704 357.19151861 69.48609862 366.84011433 77.93066406 376.07861328 C79.70407622 378.04096842 81.40201026 380.03772737 83.08300781 382.07861328 C86.37943912 385.9393793 90.13842787 389.13395353 94.02050781 392.39111328 C95.06124709 393.27087856 96.10158339 394.15112067 97.14160156 395.03173828 C97.69372314 395.4988623 98.24584473 395.96598633 98.81469727 396.44726562 C99.95292577 397.41069534 101.09078335 398.37456345 102.22827148 399.33886719 C104.6039757 401.35203499 106.98179827 403.35930247 109.38769531 405.33642578 C119.63924395 413.91262406 127.8859321 425.98016508 129.24145508 439.61328125 C130.14137215 458.23449521 126.33902406 472.51483738 113.58300781 486.57861328 C90.7943824 508.04271352 45.85529036 512.44415329 15.79003906 512.59423828 C14.84515121 512.60129791 13.90026337 512.60835754 12.92674255 512.6156311 C-26.1255856 512.84127328 -26.1255856 512.84127328 -42.97949219 509.39111328 C-44.47440186 509.10107422 -44.47440186 509.10107422 -45.99951172 508.80517578 C-86.09527088 500.88261078 -125.88955619 484.11300884 -157.41162109 457.69873047 C-158.9422329 456.42218783 -160.49776949 455.17571976 -162.05371094 453.93017578 C-175.96063285 442.68283219 -189.26122956 429.73041058 -199.97949219 415.39111328 C-200.84139635 414.26996187 -201.70338086 413.14887222 -202.56542969 412.02783203 C-242.96740424 358.83951829 -262.63881169 289.69829955 -253.85449219 223.14111328 C-253.31807227 219.53817043 -252.67717545 215.96610804 -251.97949219 212.39111328 C-251.78613281 211.38290527 -251.59277344 210.37469727 -251.39355469 209.3359375 C-243.46385696 169.25302868 -226.68990801 129.46634055 -200.28271484 97.95458984 C-199.01846667 96.43787098 -197.78549458 94.89525155 -196.55371094 93.35205078 C-184.97962738 79.13194812 -171.73485113 65.3210088 -156.97949219 54.39111328 C-156.38120605 53.93285156 -155.78291992 53.47458984 -155.16650391 53.00244141 C-110.51895327 18.83395274 -56.27080411 -0.35499213 0 0 Z " fill="#BB8C07" transform="translate(254.9794921875,-0.39111328125)"/>
<path d="M0 0 C8.04007983 7.16615811 9.81381357 19.50080147 12.25 29.5625 C12.6521875 31.17995117 12.6521875 31.17995117 13.0625 32.83007812 C15 40.70364318 15 40.70364318 15 43 C16.051875 43.09925781 17.10375 43.19851562 18.1875 43.30078125 C24.24937871 44.06518629 30.09921925 45.63871231 36 47.1875 C37.13695312 47.46658203 38.27390625 47.74566406 39.4453125 48.03320312 C47.78580508 50.22475947 54.72802824 53.06156021 59.5 60.5625 C62.12088211 66.6857268 62.43224016 74.19694528 60.08203125 80.4375 C54.99727029 89.12602359 48.5457246 91.96175697 39.11767578 94.45117188 C38.41884277 94.63228516 37.72000977 94.81339844 37 95 C35.75259033 95.32581055 35.75259033 95.32581055 34.47998047 95.65820312 C30.03063161 96.81254187 25.57588888 97.94486822 21.11328125 99.046875 C20.36860596 99.23088867 19.62393066 99.41490234 18.85668945 99.60449219 C17 100 17 100 15 100 C14.63648438 101.68802734 14.63648438 101.68802734 14.265625 103.41015625 C12.60687981 111.04506607 10.9148524 118.67472786 9 126.25 C8.71125 127.41015625 8.4225 128.5703125 8.125 129.765625 C5.68533514 136.77966148 1.40642753 141.26035158 -4.796875 145.1171875 C-10.12676097 147.25292195 -16.9272418 146.78432277 -22.41796875 145.3828125 C-27.81958624 143.02156385 -31.09084126 139.02264176 -34 134 C-35.61263287 129.74458733 -36.72854307 125.41593541 -37.8125 121 C-38.26012695 119.29457031 -38.26012695 119.29457031 -38.71679688 117.5546875 C-40.21874765 111.70962397 -41.43294248 106.00933682 -42 100 C-43.41925781 99.65388672 -43.41925781 99.65388672 -44.8671875 99.30078125 C-49.25086478 98.22420663 -53.62635977 97.1165793 -58 96 C-59.20172852 95.69521729 -59.20172852 95.69521729 -60.42773438 95.38427734 C-62.83041797 94.76913245 -65.22800052 94.13689713 -67.625 93.5 C-68.36991699 93.31091064 -69.11483398 93.12182129 -69.88232422 92.92700195 C-77.3682213 90.90257269 -82.41983463 87.36134079 -87 81 C-89.66692056 75.28517024 -90.15942288 69.3439149 -88.08984375 63.375 C-85.16377659 57.05243687 -82.05315305 52.63392733 -75.5 49.9921875 C-64.92061361 46.49327585 -53.87402068 44.37187471 -43 42 C-42.76925781 41.01717041 -42.53851563 40.03434082 -42.30078125 39.02172852 C-41.42630489 35.33010671 -40.51551136 31.6482135 -39.59423828 27.96801758 C-39.20264735 26.38283046 -38.82056658 24.79525923 -38.44873047 23.20532227 C-36.18858064 13.57393314 -34.13883829 5.43178573 -26 -1 C-17.28899472 -5.99634219 -8.54092498 -4.70562188 0 0 Z " fill="#BB8C07" transform="translate(451,110)"/>
<path d="M0 0 C4.58145041 2.90469037 8.12684957 7.29323353 10.11328125 12.33984375 C10.97668618 19.71968379 11.24509635 26.63006102 6.59765625 32.7265625 C1.35922573 38.41990935 -3.38649274 40.8303842 -11.19921875 41.71484375 C-17.90320832 41.0330821 -23.81675612 39.01980801 -28.38671875 33.90234375 C-33.37057386 27.65803691 -33.68876398 21.05952908 -32.88671875 13.33984375 C-31.18917204 7.45630116 -27.97288191 3.7632228 -22.88671875 0.33984375 C-15.03678229 -3.69912771 -7.91499235 -3.84130026 0 0 Z " fill="#BB8C07" transform="translate(373.88671875,279.66015625)"/>
<path d="M0 0 C5.19044615 3.12996658 9.16052841 7.40007553 11.44140625 13.05859375 C11.7421875 16.30078125 11.7421875 16.30078125 11.75390625 19.93359375 C11.77066406 21.12726563 11.78742187 22.3209375 11.8046875 23.55078125 C11.14721295 29.89929891 8.24349405 34.00349738 3.44140625 38.05859375 C-2.54144887 42.24250382 -8.37276671 43.07614882 -15.55859375 42.05859375 C-21.73740291 40.26131535 -26.07126907 36.40064206 -29.55859375 31.05859375 C-32.4396717 24.97961828 -32.71773068 18.7171197 -30.68359375 12.296875 C-28.01439789 6.42288806 -25.13691146 3.26096133 -19.55859375 0.05859375 C-13.55997257 -1.94094664 -5.96862045 -2.19608783 0 0 Z " fill="#BB8C07" transform="translate(500.55859375,363.94140625)"/>
</svg>
