<svg width="24" height="25" viewBox="0 0 24 25" fill="none" xmlns="http://www.w3.org/2000/svg">
<g clip-path="url(#clip0_502_7)">
<path d="M21 11.9792V15.625H18C17.2044 15.625 16.4413 15.9542 15.8787 16.5403C15.3161 17.1263 15 17.9212 15 18.75V21.875H4.5C4.10218 21.875 3.72064 21.7104 3.43934 21.4174C3.15804 21.1243 3 20.7269 3 20.3125V4.6875C3 4.2731 3.15804 3.87567 3.43934 3.58265C3.72064 3.28962 4.10218 3.125 4.5 3.125H13.5C13.8978 3.125 14.2794 2.96038 14.5607 2.66735C14.842 2.37433 15 1.9769 15 1.5625C15 1.1481 14.842 0.750671 14.5607 0.457646C14.2794 0.16462 13.8978 0 13.5 0L4.5 0C3.30653 0 2.16193 0.49386 1.31802 1.37294C0.474106 2.25201 0 3.4443 0 4.6875L0 20.3125C0 21.5557 0.474106 22.748 1.31802 23.6271C2.16193 24.5061 3.30653 25 4.5 25H16.484C17.677 25 18.8212 24.5066 19.665 23.6281L22.682 20.4854C23.5257 19.6066 23.9997 18.4147 24 17.1719V11.9792C24 11.5648 23.842 11.1673 23.5607 10.8743C23.2794 10.5813 22.8978 10.4167 22.5 10.4167C22.1022 10.4167 21.7206 10.5813 21.4393 10.8743C21.158 11.1673 21 11.5648 21 11.9792Z" fill="#696969"/>
<path d="M17.793 1.86783L5.293 14.8887C5.10545 15.084 5.00006 15.3489 5 15.6251V18.7501C5 19.0264 5.10536 19.2913 5.29289 19.4867C5.48043 19.682 5.73478 19.7918 6 19.7918H9C9.26519 19.7917 9.51951 19.6819 9.707 19.4866L22.038 6.64178C22.4553 6.22266 22.762 5.69877 22.9287 5.12048C23.0954 4.54219 23.1165 3.92894 22.99 3.3397C22.8484 2.79168 22.5715 2.29187 22.1867 1.89006C21.802 1.48825 21.3229 1.19846 20.7972 1.04957C20.2714 0.900674 19.7174 0.89787 19.1903 1.04144C18.6632 1.185 18.1815 1.46993 17.793 1.86783Z" fill="#696969"/>
</g>
<defs>
<clipPath id="clip0_502_7">
<rect width="24" height="25" fill="white"/>
</clipPath>
</defs>
</svg>
