<?xml version="1.0" encoding="UTF-8"?>
<svg version="1.1" xmlns="http://www.w3.org/2000/svg" width="512" height="512">
<path d="M0 0 C0.90435954 -0.00523668 1.80871909 -0.01047336 2.74048346 -0.01586872 C5.74221134 -0.03075632 8.74376706 -0.0315714 11.74552917 -0.03224182 C13.9099506 -0.03987119 16.07436932 -0.04830001 18.23878479 -0.0574646 C24.10099123 -0.0793473 29.96314553 -0.08820082 35.82538819 -0.09329104 C39.49709003 -0.0969438 43.1687784 -0.10318879 46.84047508 -0.11029243 C59.6768338 -0.13477107 72.51315223 -0.14783417 85.34953308 -0.15138245 C97.26912968 -0.15501032 109.18846764 -0.18485632 121.10798532 -0.22678703 C131.37510572 -0.26162396 141.64214102 -0.27693324 151.90932006 -0.27762848 C158.02613996 -0.27841712 164.14269648 -0.28696339 170.25945473 -0.31562614 C176.02410935 -0.34203524 181.78828657 -0.34388589 187.5529747 -0.3279705 C189.65178543 -0.32617369 191.75062507 -0.33268372 193.84937477 -0.34878922 C224.01747803 -0.56590719 251.0609493 8.40068773 273.0690155 29.45750427 C278.95248485 35.26218412 284.15075203 41.19760144 288.4728241 48.27415466 C289.34294128 49.61993591 289.34294128 49.61993591 290.2306366 50.99290466 C302.33801421 70.49049977 305.61867409 91.6218164 305.63395691 114.23265076 C305.63859309 115.83859875 305.64361881 117.44454567 305.64900208 119.05049133 C305.66205546 123.39407041 305.66855776 127.73763408 305.67301273 132.08122969 C305.67595635 134.80429887 305.68006361 137.52736396 305.68451691 140.25043106 C305.69817642 148.79715242 305.70784929 157.34386428 305.7117188 165.89059579 C305.71618873 175.70570422 305.73369355 185.52067264 305.76271939 195.33573854 C305.78445664 202.9548404 305.79442954 210.57390323 305.79575992 218.19303572 C305.79679984 222.72802804 305.80253134 227.2628885 305.82057953 231.79784775 C305.9526547 267.04455658 303.59057645 296.77926806 280.4728241 325.27415466 C279.78575378 326.12751404 279.09868347 326.98087341 278.39079285 327.86009216 C261.00716107 348.30762935 235.84931897 359.98347338 209.4728241 363.27415466 C204.37069841 363.54615583 199.32202594 363.42895942 194.21794128 363.24632263 C192.7697983 363.20770678 191.32160311 363.17100963 189.87336731 363.13604736 C186.78398254 363.06044068 183.69491878 362.97740885 180.60584259 362.89014816 C175.66979091 362.75686272 170.73373336 362.6780877 165.79637146 362.61231995 C164.95438666 362.60100694 164.11240186 362.58969393 163.24490237 362.5780381 C159.77798662 362.53227086 156.31105241 362.48799024 152.84411764 362.44369102 C143.12897415 362.31671408 133.42007838 362.14178408 123.70915222 361.82395935 C81.19498338 360.46632439 49.15297845 360.22190779 15.5410614 389.7797699 C10.15479257 394.49843382 4.31252742 398.26680602 -1.7303009 402.09056091 C-3.4685731 403.24814142 -5.20318707 404.41124134 -6.9334259 405.58079529 C-8.13032043 406.38480774 -8.13032043 406.38480774 -9.35139465 407.20506287 C-11.03368744 408.33658085 -12.71527996 409.46914037 -14.39631653 410.6025238 C-16.96321152 412.33186275 -19.53393173 414.05538437 -22.1053009 415.77806091 C-23.21436798 416.52933006 -23.21436798 416.52933006 -24.34584045 417.29577637 C-37.1314885 425.84108657 -49.68098024 429.45531748 -65.07014465 426.62181091 C-77.28555435 423.22134442 -87.09489482 416.58681778 -94.5271759 406.27415466 C-97.8524842 400.20427374 -100.64752401 394.25424714 -100.66139698 387.27007961 C-100.66585482 386.23018837 -100.67031267 385.19029714 -100.6749056 384.11889404 C-100.67462905 382.39949233 -100.67462905 382.39949233 -100.67434692 380.64535522 C-100.67802361 379.43042643 -100.6817003 378.21549763 -100.6854884 376.96375281 C-100.6946183 373.58479616 -100.69922567 370.2058881 -100.70187771 366.82692373 C-100.70578042 363.18446369 -100.7153593 359.54201771 -100.72409058 355.89956665 C-100.74386397 347.09531332 -100.75392583 338.29105883 -100.76281837 329.48678884 C-100.76720297 325.33646323 -100.77256963 321.18613889 -100.77780724 317.03581429 C-100.79482628 303.2288626 -100.80931631 289.4219117 -100.81655598 275.61495113 C-100.81846578 272.03089332 -100.82038611 268.4468355 -100.82234192 264.86277771 C-100.82282566 263.97201137 -100.8233094 263.08124503 -100.8238078 262.16348577 C-100.83209243 247.76190925 -100.85739972 233.36041621 -100.8899226 218.95887607 C-100.92307361 204.15779009 -100.94101229 189.35674639 -100.94420022 174.55562311 C-100.94635873 166.25182173 -100.95500942 157.94814181 -100.98066139 149.64437675 C-101.00247916 142.56544496 -101.01036513 135.4866641 -101.00069461 128.4077025 C-100.99618065 124.80238429 -100.99786374 121.1973767 -101.01745605 117.59210205 C-101.18737399 84.45222037 -94.17842285 57.12188617 -71.5271759 32.27415466 C-70.94451965 31.60899841 -70.3618634 30.94384216 -69.7615509 30.25852966 C-52.8589336 11.9900443 -24.69154367 -0.07234906 0 0 Z M11.4728241 114.27415466 C7.94598352 119.37377549 6.35471837 123.83986894 6.3323822 129.99125671 C6.32667206 130.9359935 6.32096191 131.88073029 6.31507874 132.85409546 C6.31396088 133.88377945 6.31284302 134.91346344 6.31169128 135.97434998 C6.30672638 137.06423721 6.30176147 138.15412445 6.29664612 139.27703857 C6.28203206 142.88545868 6.27522351 146.49383481 6.2696991 150.10227966 C6.26394676 152.61088563 6.25818904 155.11949159 6.25242615 157.62809753 C6.243261 162.21798291 6.23696 166.8078557 6.2339294 171.39774919 C6.22945295 178.13917782 6.2119213 184.88040327 6.1829288 191.62177014 C6.15864546 197.47262857 6.15098205 203.32341963 6.14925385 209.17432404 C6.14623024 211.65737259 6.13821161 214.14042036 6.12506866 216.62343597 C6.10797513 220.10124001 6.10989688 223.57855198 6.11637878 227.05638123 C6.107164 228.07796829 6.09794922 229.09955536 6.0884552 230.15209961 C6.12948065 237.19464085 6.89128018 243.06631903 11.45329285 248.73509216 C12.18161316 249.36673279 12.90993347 249.99837341 13.6603241 250.64915466 C14.37575378 251.29626404 15.09118347 251.94337341 15.82829285 252.61009216 C21.76334244 256.3447024 28.4318321 256.58309457 35.25016785 256.57493591 C36.06095291 256.57922104 36.87173798 256.58350616 37.70709229 256.58792114 C39.41048759 256.59362716 41.11390725 256.59419245 42.81730652 256.58982849 C45.40017366 256.58666709 47.98189479 256.6101788 50.56462097 256.63548279 C52.23063517 256.63775629 53.89665241 256.63845904 55.56266785 256.63743591 C56.32232346 256.64664566 57.08197906 256.65585541 57.86465454 256.66534424 C63.76960044 256.61525394 70.40126061 255.86124237 75.07058716 251.92840576 C78.171483 248.38886883 80.43317579 244.94050324 80.5040741 240.17259216 C80.15014596 234.88136646 79.00966468 231.38453697 75.4728241 227.27415466 C69.97008412 223.03245926 66.2189421 222.14304624 59.3946991 222.17649841 C58.23454285 222.17972107 57.0743866 222.18294373 55.8790741 222.18626404 C54.06923035 222.1988324 54.06923035 222.1988324 52.2228241 222.21165466 C50.38977722 222.21842224 50.38977722 222.21842224 48.5196991 222.22532654 C45.50405318 222.2371064 42.48843245 222.25504165 39.4728241 222.27415466 C39.4728241 214.35415466 39.4728241 206.43415466 39.4728241 198.27415466 C41.42446472 198.30895935 43.37610535 198.34376404 45.3868866 198.37962341 C47.95719048 198.40776543 50.52750368 198.43506514 53.0978241 198.46165466 C55.02561707 198.49935974 55.02561707 198.49935974 56.99235535 198.53782654 C58.23630066 198.54749451 59.48024597 198.55716248 60.7618866 198.56712341 C61.90351257 198.58283386 63.04513855 198.59854431 64.22135925 198.61473083 C69.28818453 198.0840039 73.35613863 195.97359128 76.7853241 192.21165466 C80.21766829 187.91896034 80.95662048 183.68927912 80.4728241 178.27415466 C79.05566062 172.66414202 76.00056298 169.20907114 71.10539246 166.2797699 C65.48568252 164.13309595 59.39531316 164.77313273 53.4728241 164.96165466 C52.11218818 164.98677958 50.75150737 165.00958534 49.39079285 165.03001404 C46.08432148 165.08863942 42.77842594 165.17830925 39.4728241 165.27415466 C39.4728241 157.02415466 39.4728241 148.77415466 39.4728241 140.27415466 C42.4737616 140.36116638 42.4737616 140.36116638 45.5353241 140.44993591 C47.49802019 140.48473549 49.4607243 140.51934518 51.42350769 140.54881287 C53.43644662 140.58598293 55.44884246 140.64955437 57.46110535 140.71360779 C64.23957508 140.79876444 69.39244461 140.77988651 74.99992371 136.72312927 C78.41396835 133.36454234 80.30801279 129.76745395 80.62516785 124.96946716 C80.28595295 119.80296335 78.9013615 116.25867111 75.4728241 112.27415466 C71.17686252 109.03026531 67.79706841 107.1645023 62.4037323 107.11302185 C61.58890884 107.10341431 60.77408539 107.09380676 59.93457031 107.08390808 C59.05645187 107.0796582 58.17833344 107.07540833 57.27360535 107.07102966 C55.91008186 107.06247955 55.91008186 107.06247955 54.51901245 107.05375671 C52.59322777 107.04430865 50.66742693 107.0377735 48.74162292 107.03392029 C45.81383998 107.02424886 42.88676941 106.99323789 39.95915222 106.96165466 C38.08480742 106.95512081 36.2104576 106.94987184 34.33610535 106.94602966 C33.46810806 106.93368286 32.60011078 106.92133606 31.70581055 106.90861511 C23.94788583 106.93664634 17.14343973 108.60353903 11.4728241 114.27415466 Z M106.4728241 114.27415466 C102.33539135 121.07638188 101.90126791 127.41152385 101.97111511 135.21629333 C101.96571213 136.37839828 101.96030914 137.54050323 101.95474243 138.73782349 C101.94229563 142.55618724 101.95871732 146.37379122 101.97673035 150.19212341 C101.9765753 152.85532652 101.97513892 155.51850282 101.97232056 158.18170166 C101.96962652 163.75224083 101.98302795 169.32256351 102.00627136 174.89305115 C102.03291544 181.32284114 102.03461285 187.75227032 102.022883 194.18209666 C102.01208814 200.38594351 102.01830309 206.58966053 102.03243828 212.79349709 C102.03695237 215.42611118 102.03728995 218.05873588 102.03337288 220.69135094 C102.03046231 224.36785518 102.04696015 228.04376985 102.06877136 231.72019958 C102.06426971 232.80657715 102.05976807 233.89295471 102.05513 235.01225281 C102.11875109 241.46735061 102.70713409 246.07988315 107.08610535 251.13743591 C110.77737486 254.28562209 113.42233349 256.27415466 118.4728241 256.27415466 C123.48036615 255.3077869 126.85415734 253.89282142 130.4728241 250.27415466 C133.01127031 245.9690532 133.85522918 242.78660834 133.90519714 237.80979919 C133.9249913 236.54894501 133.94478546 235.28809082 133.96517944 233.98902893 C133.97194762 232.6283432 133.97839467 231.26765584 133.98454285 229.90696716 C134.0014036 228.50305117 134.01955571 227.09915014 134.03894043 225.69526672 C134.08629561 222.01614561 134.11619809 218.3370852 134.14237976 214.65776062 C134.17225886 210.89695756 134.21876376 207.13636335 134.26383972 203.37571716 C134.34970777 196.00863363 134.41712579 188.64153465 134.4728241 181.27415466 C147.39843358 207.89681978 147.39843358 207.89681978 152.08610535 218.04759216 C152.37350082 218.66976624 152.6608963 219.29194031 152.95700073 219.93296814 C154.32198995 222.89235285 155.68042081 225.85458681 157.03215027 228.8200531 C163.58481991 244.83626893 163.58481991 244.83626893 176.4728241 255.27415466 C182.62089287 255.98926236 188.31778746 255.99057642 193.4728241 252.27415466 C199.09417223 246.91016945 201.52186433 241.96304255 201.74024963 234.08876038 C201.75817746 231.9912785 201.76511407 229.89368507 201.76335144 227.79612732 C201.77006866 226.64742661 201.77678589 225.49872589 201.78370667 224.31521606 C201.80268429 220.52283894 201.80661068 216.7306388 201.8087616 212.93821716 C201.81518926 210.29794746 201.8219176 207.65767848 201.82893372 205.01741028 C201.84170727 199.48449046 201.84470034 193.95161848 201.84342957 188.41868591 C201.84222842 182.03724832 201.86333029 175.65614908 201.89491689 169.27479708 C201.92429072 163.11956644 201.93140381 156.96449735 201.93021011 150.80920029 C201.93256794 148.19775892 201.94140164 145.58631496 201.95687485 142.97491837 C201.97650495 139.31998479 201.97070755 135.66591909 201.95866394 132.01097107 C201.96990295 130.93642166 201.98114197 129.86187225 201.99272156 128.75476074 C201.93994223 122.44053512 201.19382204 117.50645307 197.4728241 112.27415466 C193.56328737 108.72829577 189.88425821 107.47559445 184.7150116 107.11009216 C179.67724112 107.47870952 176.47768923 110.18995807 173.0978241 113.83665466 C170.48956411 117.74904464 170.33178245 120.79727807 170.26750183 125.39793396 C170.24755661 126.65901474 170.22761139 127.92009552 170.20706177 129.21939087 C170.19007876 130.59571713 170.17319991 131.97204468 170.15641785 133.34837341 C170.13584213 134.75656741 170.11484549 136.16475531 170.09344482 137.57293701 C170.03828788 141.27675947 169.98885056 144.98063708 169.94059753 148.68455505 C169.89033589 152.46512248 169.83467418 156.24560995 169.77946472 160.02610779 C169.67196117 167.44205568 169.57049896 174.85807012 169.4728241 182.27415466 C162.2117386 167.25679354 154.98392911 152.23477517 148.0743866 137.05149841 C141.06906851 119.6254104 141.06906851 119.6254104 127.4728241 107.96165466 C119.37208797 106.10523597 112.32613996 108.26264107 106.4728241 114.27415466 Z " fill="#BA8C07" transform="translate(100.52717590332031,-0.2741546630859375)"/>
<path d="M0 0 C22.67055441 7.40167598 42.33618082 26.24833004 53.26171875 47.21484375 C57.38473837 55.51229222 60.79172418 63.98105172 63 73 C63.16670122 73.68050543 63.33340244 74.36101086 63.50515521 75.06213766 C65.04171211 81.92831692 65.28665033 88.4995594 65.26742554 95.51768494 C65.27195665 96.74353367 65.27648776 97.9693824 65.28115618 99.23237807 C65.29157317 102.6090911 65.29313524 105.98558993 65.29076743 109.36230361 C65.29035725 113.01405773 65.3014173 116.66578074 65.31088257 120.31752014 C65.32744834 127.4613484 65.33299005 134.60514365 65.33410732 141.74898952 C65.33505963 147.55768135 65.33917899 153.36636234 65.34550858 159.17505074 C65.36310666 175.66151098 65.37234935 192.14794526 65.37084763 208.63441496 C65.37076772 209.52196965 65.3706878 210.40952433 65.37060547 211.32397461 C65.37052371 212.21261861 65.37044195 213.10126261 65.37035771 214.01683522 C65.36954457 228.42270063 65.38869301 242.82846155 65.4168822 257.23429673 C65.44563105 272.04348639 65.45942149 286.8526251 65.45769465 301.66184336 C65.45703158 309.96922223 65.46248781 318.27649147 65.48405075 326.58384514 C65.50228861 333.65513016 65.50658834 340.72625579 65.4930319 347.79755419 C65.48651615 351.40204733 65.48633429 355.0062349 65.5037384 358.6106987 C65.52244704 362.52571654 65.50987874 366.44029166 65.49447632 370.35533142 C65.50476344 371.48375346 65.51505057 372.61217549 65.52564943 373.77479213 C65.41271344 386.79963846 60.87178969 395.93661766 51.8984375 405.16015625 C40.72384138 415.72271618 28.62850861 418.65101674 13.65234375 418.296875 C4.74742353 417.86378739 -1.5966434 414.38166505 -9.04296875 409.703125 C-10.0788765 409.05354324 -10.0788765 409.05354324 -11.13571167 408.39083862 C-20.438054 402.51236353 -29.52167827 396.30496434 -38.625 390.125 C-40.36959687 388.94242091 -42.11438825 387.76012872 -43.859375 386.578125 C-44.73348022 385.9827594 -45.60758545 385.3873938 -46.50817871 384.77398682 C-48.35349367 383.53263153 -50.21263954 382.31164056 -52.08361816 381.10931396 C-57.41781897 377.64191699 -62.0912595 374.05915661 -66.68554688 369.64941406 C-90.1997726 348.23105301 -122.55139708 352.6149611 -152.2696532 353.34023845 C-162.33417305 353.58324229 -172.40043369 353.68210359 -182.46732712 353.77194977 C-183.97095491 353.78550568 -185.47458269 353.79906311 -186.97821045 353.81262207 C-187.71373351 353.81901026 -188.44925657 353.82539845 -189.2070682 353.83198023 C-193.50391005 353.87271736 -197.79869201 353.94504545 -202.09453845 354.04550123 C-233.28811306 354.76199806 -261.18213965 348.48717325 -284.75 326.42578125 C-286.87038938 324.3153312 -288.95555754 322.18383627 -291 320 C-285.53893665 314.21769763 -282.16505184 310.83925105 -274.11157227 310.50120544 C-271.67993393 310.4810323 -269.24805474 310.48279968 -266.81640625 310.50170898 C-265.47191772 310.49788197 -264.12743328 310.49225967 -262.78295898 310.48498535 C-259.89206237 310.47305248 -257.00152912 310.47351132 -254.11062622 310.48357964 C-249.51689778 310.49921999 -244.92353718 310.48540103 -240.32983398 310.46754456 C-231.38120236 310.43673616 -222.43268364 310.43521882 -213.48400879 310.43719482 C-202.15280083 310.43858693 -190.82168315 310.42778511 -179.4905386 310.3886171 C-175.68365493 310.37627667 -171.87699487 310.37033883 -168.07009888 310.38012505 C-119.32949695 310.50311082 -77.3804476 299.9804168 -41.75 265.1875 C-17.15015869 240.24789333 -2.41397295 206.01013487 -0.44459534 171.11256409 C-0.40244103 170.37425057 -0.36028672 169.63593705 -0.31685501 168.8752504 C0.10103132 160.98192274 0.13356618 153.10126273 0.11352539 145.19897461 C0.11324232 143.60042828 0.11340359 142.00188182 0.1139679 140.40333557 C0.11425118 136.12347525 0.1084313 131.84364378 0.10139394 127.56379008 C0.09508134 123.06885985 0.09455042 118.57392873 0.09336853 114.07899475 C0.09027828 105.59388886 0.08209643 97.10879607 0.07201904 88.62369591 C0.06078571 78.95238713 0.05532937 69.28107768 0.05032361 59.60976398 C0.03991152 39.73983538 0.02235741 19.86991852 0 0 Z " fill="#BB8C07" transform="translate(447,94)"/>
</svg>
