<?xml version="1.0" encoding="UTF-8"?>
<svg version="1.1" xmlns="http://www.w3.org/2000/svg" width="512" height="512">
<path d="M0 0 C0.63357422 0.43425293 1.26714844 0.86850586 1.91992188 1.31591797 C14.43810781 9.91714168 26.11650438 19.11640166 37.23828125 29.4609375 C39.40969255 31.45728452 41.60866006 33.36541029 43.875 35.25 C53.94394605 43.9946379 62.81583715 54.51660746 71 65 C71.48823242 65.62100586 71.97646484 66.24201172 72.47949219 66.88183594 C83.48012713 80.90513774 93.54851802 95.29085525 102 111 C102.47179687 111.85207031 102.94359375 112.70414063 103.4296875 113.58203125 C114.79048606 135.98609053 115.71392861 165.37557196 108.671875 189.17578125 C104.21331252 202.64140302 97.4652297 214.73389124 89.25292969 226.24121094 C88.0180551 227.97465531 86.80776181 229.72307865 85.6015625 231.4765625 C76.09235025 245.18567682 65.38303939 257.82394771 54 270 C53.04851068 271.05133494 52.09932764 272.10476126 51.15234375 273.16015625 C46.75984154 278.04732318 42.37658409 282.82461431 37.32421875 287.046875 C35.43881136 288.63125096 33.60069145 290.2449453 31.76953125 291.890625 C-20.1261697 338.25283914 -88.67568221 361.29071129 -158 358 C-203.91957822 355.14994609 -249.70893656 342.08897789 -288 316 C-288.94311035 315.36022217 -288.94311035 315.36022217 -289.90527344 314.70751953 C-299.76197191 307.98955915 -309.05032511 300.8812446 -318 293 C-318.7115625 292.38769531 -319.423125 291.77539062 -320.15625 291.14453125 C-322.12194012 289.44872072 -324.06347427 287.72904083 -326 286 C-327.36898437 284.78763672 -327.36898437 284.78763672 -328.765625 283.55078125 C-335.98287964 277.09607789 -342.62091102 270.28053198 -349 263 C-349.67047363 262.23864746 -349.67047363 262.23864746 -350.35449219 261.46191406 C-368.521828 240.73100891 -387.55482841 216.57745176 -396 190 C-396.391875 188.8346875 -396.78375 187.669375 -397.1875 186.46875 C-405.07213772 160.46345377 -400.73833509 131.24622523 -388.453125 107.43359375 C-385.11912628 101.26569611 -381.32309178 95.46202157 -377.25292969 89.75878906 C-376.0180551 88.02534469 -374.80776181 86.27692135 -373.6015625 84.5234375 C-364.8196699 71.86287567 -355.06069063 59.97591131 -344.5390625 48.7265625 C-342.18023547 46.19354517 -339.9010756 43.60714115 -337.625 41 C-329.01286891 31.41900417 -319.16521636 22.88706285 -309 15 C-308.03876221 14.24662354 -308.03876221 14.24662354 -307.05810547 13.47802734 C-274.69156124 -11.71744158 -238.01306434 -28.30758279 -198 -37 C-197.23284668 -37.16725586 -196.46569336 -37.33451172 -195.67529297 -37.50683594 C-130.52761666 -51.27981592 -55.05841708 -38.06412913 0 0 Z M-316 82 C-319.1968821 85.51797069 -322.12731212 89.21379737 -325 93 C-325.76828125 93.96292969 -326.5365625 94.92585938 -327.328125 95.91796875 C-342.96307552 115.59344694 -359.37192052 137.57002852 -357 164 C-352.44028842 201.72937821 -313.51586037 241.25382514 -284.8671875 263.82421875 C-283.92101562 264.54222656 -282.97484375 265.26023437 -282 266 C-281.43313477 266.4326416 -280.86626953 266.8652832 -280.28222656 267.31103516 C-248.08277516 291.78159113 -211.29708311 308.10106842 -171 313 C-170.27377441 313.0942627 -169.54754883 313.18852539 -168.79931641 313.28564453 C-110.51630702 320.08877718 -52.76693869 302.51909673 -6.89208984 266.50146484 C9.19387141 253.73647623 24.56515417 239.3891268 37 223 C37.76828125 222.03707031 38.5365625 221.07414063 39.328125 220.08203125 C54.96307552 200.40655306 71.37192052 178.42997148 69 152 C66.18567113 128.71280814 50.38733443 109.59806725 36 92 C35.34257813 91.18595703 35.34257813 91.18595703 34.671875 90.35546875 C21.59944423 74.24562024 6.83576465 59.16442575 -10 47 C-11.14774758 46.14665608 -12.29487362 45.29247561 -13.44140625 44.4375 C-51.27809549 16.50398233 -96.60563021 1.45132965 -143.625 1.6875 C-144.79621399 1.69073273 -144.79621399 1.69073273 -145.99108887 1.69403076 C-213.6568269 1.99191291 -270.37366703 33.80580819 -316 82 Z " fill="#BB8C07" transform="translate(400,98)"/>
<path d="M0 0 C0.82371094 0.60328125 1.64742187 1.2065625 2.49609375 1.828125 C23.32701024 17.81690957 36.43990251 38.82197399 43 64 C43.36931641 65.39992187 43.36931641 65.39992187 43.74609375 66.828125 C49.36435948 93.33084057 43.55723543 122.1591782 29.5 145.0625 C28.36090204 146.72753283 27.19473168 148.37442481 26 150 C25.39671875 150.82371094 24.7934375 151.64742187 24.171875 152.49609375 C8.18640923 173.32268635 -12.82290819 186.4470583 -38 193 C-39.41732422 193.36931641 -39.41732422 193.36931641 -40.86328125 193.74609375 C-68.36673586 199.51744096 -97.72066366 192.93391579 -121.23095703 178.16455078 C-125.8232116 175.14149609 -129.95300362 171.7102569 -134 168 C-134.92425781 167.15695312 -135.84851563 166.31390625 -136.80078125 165.4453125 C-152.18225114 150.7659014 -161.68529308 132.39814639 -167 112 C-167.24621094 111.06671875 -167.49242187 110.1334375 -167.74609375 109.171875 C-173.6342111 81.3962042 -166.78859181 51.96041801 -151.71484375 28.32421875 C-136.09053103 4.9569978 -112.98368473 -9.96944079 -86 -17 C-85.06671875 -17.24621094 -84.1334375 -17.49242187 -83.171875 -17.74609375 C-54.99968922 -23.71826764 -23.16279891 -17.02371562 0 0 Z M-107.75 43.1875 C-121.10787301 57.67514337 -126.25695075 74.17653374 -125.48046875 93.64453125 C-124.29650392 110.40792249 -116.1409342 124.56128118 -104 136 C-90.47151648 147.14633268 -74.66836928 152.43325097 -57.1796875 151.87890625 C-38.79304276 150.01721049 -23.96644495 141.59460909 -11.96484375 127.53125 C-0.11431295 112.26456221 2.50314596 95.86365586 1 77 C-1.44209297 61.58643237 -10.46860422 47.81087226 -22.4453125 37.99609375 C-49.60468074 18.28639548 -82.96515603 20.68172214 -107.75 43.1875 Z " fill="#BB8C07" transform="translate(318,168)"/>
</svg>
