<?xml version="1.0" encoding="UTF-8"?>
<svg version="1.1" xmlns="http://www.w3.org/2000/svg" width="512" height="512">
<path d="M0 0 C0.90435954 -0.00523668 1.80871909 -0.01047336 2.74048346 -0.01586872 C5.74221134 -0.03075632 8.74376706 -0.0315714 11.74552917 -0.03224182 C13.9099506 -0.03987119 16.07436932 -0.04830001 18.23878479 -0.0574646 C24.10099123 -0.0793473 29.96314553 -0.08820082 35.82538819 -0.09329104 C39.49709003 -0.0969438 43.1687784 -0.10318879 46.84047508 -0.11029243 C59.6768338 -0.13477107 72.51315223 -0.14783417 85.34953308 -0.15138245 C97.26912968 -0.15501032 109.18846764 -0.18485632 121.10798532 -0.22678703 C131.37510572 -0.26162396 141.64214102 -0.27693324 151.90932006 -0.27762848 C158.02613996 -0.27841712 164.14269648 -0.28696339 170.25945473 -0.31562614 C176.02410935 -0.34203524 181.78828657 -0.34388589 187.5529747 -0.3279705 C189.65178543 -0.32617369 191.75062507 -0.33268372 193.84937477 -0.34878922 C224.01747803 -0.56590719 251.0609493 8.40068773 273.0690155 29.45750427 C278.95248485 35.26218412 284.15075203 41.19760144 288.4728241 48.27415466 C289.34294128 49.61993591 289.34294128 49.61993591 290.2306366 50.99290466 C302.33801421 70.49049977 305.61867409 91.6218164 305.63395691 114.23265076 C305.63859309 115.83859875 305.64361881 117.44454567 305.64900208 119.05049133 C305.66205546 123.39407041 305.66855776 127.73763408 305.67301273 132.08122969 C305.67595635 134.80429887 305.68006361 137.52736396 305.68451691 140.25043106 C305.69817642 148.79715242 305.70784929 157.34386428 305.7117188 165.89059579 C305.71618873 175.70570422 305.73369355 185.52067264 305.76271939 195.33573854 C305.78445664 202.9548404 305.79442954 210.57390323 305.79575992 218.19303572 C305.79679984 222.72802804 305.80253134 227.2628885 305.82057953 231.79784775 C305.9526547 267.04455658 303.59057645 296.77926806 280.4728241 325.27415466 C279.78575378 326.12751404 279.09868347 326.98087341 278.39079285 327.86009216 C261.00716107 348.30762935 235.84931897 359.98347338 209.4728241 363.27415466 C204.37069841 363.54615583 199.32202594 363.42895942 194.21794128 363.24632263 C192.7697983 363.20770678 191.32160311 363.17100963 189.87336731 363.13604736 C186.78398254 363.06044068 183.69491878 362.97740885 180.60584259 362.89014816 C175.66979091 362.75686272 170.73373336 362.6780877 165.79637146 362.61231995 C164.95438666 362.60100694 164.11240186 362.58969393 163.24490237 362.5780381 C159.77798662 362.53227086 156.31105241 362.48799024 152.84411764 362.44369102 C143.12897415 362.31671408 133.42007838 362.14178408 123.70915222 361.82395935 C81.19498338 360.46632439 49.15297845 360.22190779 15.5410614 389.7797699 C10.15479257 394.49843382 4.31252742 398.26680602 -1.7303009 402.09056091 C-3.4685731 403.24814142 -5.20318707 404.41124134 -6.9334259 405.58079529 C-8.13032043 406.38480774 -8.13032043 406.38480774 -9.35139465 407.20506287 C-11.03368744 408.33658085 -12.71527996 409.46914037 -14.39631653 410.6025238 C-16.96321152 412.33186275 -19.53393173 414.05538437 -22.1053009 415.77806091 C-23.21436798 416.52933006 -23.21436798 416.52933006 -24.34584045 417.29577637 C-37.1314885 425.84108657 -49.68098024 429.45531748 -65.07014465 426.62181091 C-77.28555435 423.22134442 -87.09489482 416.58681778 -94.5271759 406.27415466 C-97.8524842 400.20427374 -100.64752401 394.25424714 -100.66139698 387.27007961 C-100.66585482 386.23018837 -100.67031267 385.19029714 -100.6749056 384.11889404 C-100.67462905 382.39949233 -100.67462905 382.39949233 -100.67434692 380.64535522 C-100.67802361 379.43042643 -100.6817003 378.21549763 -100.6854884 376.96375281 C-100.6946183 373.58479616 -100.69922567 370.2058881 -100.70187771 366.82692373 C-100.70578042 363.18446369 -100.7153593 359.54201771 -100.72409058 355.89956665 C-100.74386397 347.09531332 -100.75392583 338.29105883 -100.76281837 329.48678884 C-100.76720297 325.33646323 -100.77256963 321.18613889 -100.77780724 317.03581429 C-100.79482628 303.2288626 -100.80931631 289.4219117 -100.81655598 275.61495113 C-100.81846578 272.03089332 -100.82038611 268.4468355 -100.82234192 264.86277771 C-100.82282566 263.97201137 -100.8233094 263.08124503 -100.8238078 262.16348577 C-100.83209243 247.76190925 -100.85739972 233.36041621 -100.8899226 218.95887607 C-100.92307361 204.15779009 -100.94101229 189.35674639 -100.94420022 174.55562311 C-100.94635873 166.25182173 -100.95500942 157.94814181 -100.98066139 149.64437675 C-101.00247916 142.56544496 -101.01036513 135.4866641 -101.00069461 128.4077025 C-100.99618065 124.80238429 -100.99786374 121.1973767 -101.01745605 117.59210205 C-101.18737399 84.45222037 -94.17842285 57.12188617 -71.5271759 32.27415466 C-70.94451965 31.60899841 -70.3618634 30.94384216 -69.7615509 30.25852966 C-52.8589336 11.9900443 -24.69154367 -0.07234906 0 0 Z M11.4728241 114.27415466 C7.90145578 119.43816021 6.35698329 123.92087971 6.32565308 130.14311218 C6.31849777 131.12150558 6.31134247 132.09989899 6.30397034 133.10794067 C6.30128143 134.17502762 6.29859253 135.24211456 6.29582214 136.34153748 C6.28925095 137.470439 6.28267975 138.59934052 6.27590942 139.76245117 C6.25618848 143.50072801 6.24451686 147.23896471 6.23454285 150.97727966 C6.23046732 152.25443596 6.22639179 153.53159225 6.22219276 154.84745026 C6.20348731 160.90976319 6.18891996 166.97205184 6.18058079 173.03438592 C6.17081394 180.01811148 6.14450401 187.00151964 6.1040799 193.98513341 C6.07021214 200.04530484 6.05843022 206.10532285 6.0543766 212.16559601 C6.04950715 214.73797 6.03788305 217.31034052 6.01933861 219.88265228 C5.99498058 223.48508949 5.99590663 227.0866993 6.00285339 230.68919373 C5.99004333 231.74818375 5.97723328 232.80717377 5.96403503 233.89825439 C6.00816112 240.18735778 6.79173621 245.05459946 10.4728241 250.27415466 C15.56621798 255.00373469 18.91285446 255.62649748 25.71110535 255.55540466 C30.86084966 255.03096111 33.48654806 252.39371124 36.7853241 248.64915466 C39.10072948 245.39043597 39.59711263 243.76375757 39.58634949 239.82444763 C39.58627396 238.9036441 39.58619843 237.98284058 39.58612061 237.03413391 C39.58095932 236.03826263 39.57579803 235.04239136 39.57048035 234.01634216 C39.5690654 232.99815399 39.56765045 231.97996582 39.56619263 230.93092346 C39.5605831 227.67030431 39.54802897 224.40975315 39.5353241 221.14915466 C39.53031032 218.9421244 39.5257472 216.73509307 39.52165222 214.52806091 C39.51061058 209.11006886 39.49386315 203.69211662 39.4728241 198.27415466 C40.28960632 198.28986511 41.10638855 198.30557556 41.94792175 198.32176208 C45.66448487 198.38429406 49.38093706 198.42320411 53.0978241 198.46165466 C55.02561707 198.49935974 55.02561707 198.49935974 56.99235535 198.53782654 C58.23630066 198.54749451 59.48024597 198.55716248 60.7618866 198.56712341 C61.90351257 198.58283386 63.04513855 198.59854431 64.22135925 198.61473083 C69.28818453 198.0840039 73.35613863 195.97359128 76.7853241 192.21165466 C80.21766829 187.91896034 80.95662048 183.68927912 80.4728241 178.27415466 C79.05566062 172.66414202 76.00056298 169.20907114 71.10539246 166.2797699 C65.48568252 164.13309595 59.39531316 164.77313273 53.4728241 164.96165466 C52.11218818 164.98677958 50.75150737 165.00958534 49.39079285 165.03001404 C46.08432148 165.08863942 42.77842594 165.17830925 39.4728241 165.27415466 C39.4728241 157.02415466 39.4728241 148.77415466 39.4728241 140.27415466 C42.4737616 140.36116638 42.4737616 140.36116638 45.5353241 140.44993591 C47.49802019 140.48473549 49.4607243 140.51934518 51.42350769 140.54881287 C53.43644662 140.58598293 55.44884246 140.64955437 57.46110535 140.71360779 C64.23957508 140.79876444 69.39244461 140.77988651 74.99992371 136.72312927 C78.41396835 133.36454234 80.30801279 129.76745395 80.62516785 124.96946716 C80.28595295 119.80296335 78.9013615 116.25867111 75.4728241 112.27415466 C71.17686252 109.03026531 67.79706841 107.1645023 62.4037323 107.11302185 C61.58890884 107.10341431 60.77408539 107.09380676 59.93457031 107.08390808 C59.05645187 107.0796582 58.17833344 107.07540833 57.27360535 107.07102966 C55.91008186 107.06247955 55.91008186 107.06247955 54.51901245 107.05375671 C52.59322777 107.04430865 50.66742693 107.0377735 48.74162292 107.03392029 C45.81383998 107.02424886 42.88676941 106.99323789 39.95915222 106.96165466 C38.08480742 106.95512081 36.2104576 106.94987184 34.33610535 106.94602966 C33.46810806 106.93368286 32.60011078 106.92133606 31.70581055 106.90861511 C23.94788583 106.93664634 17.14343973 108.60353903 11.4728241 114.27415466 Z M107.4103241 115.14915466 C102.05311832 121.61971616 102.17544698 128.55857495 102.18229675 136.56858826 C102.17557953 137.69778183 102.1688623 138.8269754 102.16194153 139.99038696 C102.14296614 143.71783363 102.13903763 147.44510022 102.1368866 151.17259216 C102.13045877 153.76802138 102.12373042 156.36344987 102.11671448 158.95887756 C102.10474314 164.39764901 102.10094778 169.83634922 102.10221863 175.27513123 C102.10341975 181.54750813 102.08231816 187.81954079 102.0507313 194.09183061 C102.02135483 200.14241314 102.01424445 206.19280973 102.01543808 212.24347305 C102.01308049 214.81025728 102.00424817 217.37704415 101.98877335 219.94378281 C101.96913985 223.53645518 101.97494192 227.12824489 101.98698425 230.72093201 C101.97574524 231.77677994 101.96450623 232.83262787 101.95292664 233.92047119 C102.00630324 240.1990789 102.80143224 245.06206492 106.4728241 250.27415466 C111.56621798 255.00373469 114.91285446 255.62649748 121.71110535 255.55540466 C126.86084966 255.03096111 129.48654806 252.39371124 132.7853241 248.64915466 C135.00340113 245.52741661 135.59761904 243.95566512 135.58634949 240.19163513 C135.58627396 239.35091461 135.58619843 238.51019409 135.58612061 237.64399719 C135.58095932 236.73562103 135.57579803 235.82724487 135.57048035 234.89134216 C135.5690654 233.96193817 135.56765045 233.03253418 135.56619263 232.07496643 C135.56058462 229.09966342 135.54803077 226.12443502 135.5353241 223.14915466 C135.53031013 221.13483283 135.52574704 219.12050982 135.52165222 217.10618591 C135.51061259 212.16214665 135.49334258 207.21816331 135.4728241 202.27415466 C138.7728241 202.60415466 142.0728241 202.93415466 145.4728241 203.27415466 C145.93656433 204.58086121 146.40030457 205.88756775 146.87809753 207.23387146 C148.60521521 212.09224566 150.34518884 216.94593241 152.08903503 221.79832458 C152.84123698 223.89700688 153.58997124 225.99693547 154.33512878 228.09812927 C155.40832996 231.1224102 156.49402263 234.14195355 157.5821991 237.16087341 C157.91153442 238.09751328 158.24086975 239.03415314 158.58018494 239.99917603 C160.72470885 245.89965359 162.77791541 250.41338438 168.0978241 254.08665466 C173.23989582 255.89590212 178.27544522 256.29343294 183.53141785 254.61790466 C187.33957537 252.71792069 189.93212564 250.11758702 191.82557678 246.30738831 C194.16679103 238.95280303 192.07259049 231.8052957 189.3400116 224.90696716 C189.02452362 224.06495758 188.70903564 223.222948 188.38398743 222.35542297 C187.38732395 219.6971907 186.37020601 217.04759228 185.3478241 214.39915466 C183.99432573 210.88727251 182.66142285 207.36852756 181.3400116 203.84446716 C181.02345612 203.04340546 180.70690063 202.24234375 180.38075256 201.41700745 C180.10031097 200.66877716 179.81986938 199.92054688 179.53092957 199.14964294 C179.15120499 198.16896347 179.15120499 198.16896347 178.7638092 197.16847229 C178.36919882 194.5995525 179.08129498 193.4251554 180.4728241 191.27415466 C181.1946991 190.73790466 181.9165741 190.20165466 182.6603241 189.64915466 C190.70242298 182.85804894 195.85960439 172.62311128 197.4728241 162.27415466 C198.33722159 147.72900456 195.90787577 135.33295325 186.4337616 123.78977966 C176.80293214 113.64848222 165.03101563 107.81677101 151.0287323 107.09715271 C147.66985867 107.04233981 144.31180455 106.99763632 140.95256042 106.97898865 C139.51658751 106.96750345 138.08065613 106.94710637 136.64494324 106.91746521 C125.83377162 106.69495173 115.35218421 106.84385171 107.4103241 115.14915466 Z " fill="#BA8C07" transform="translate(100.52717590332031,-0.2741546630859375)"/>
<path d="M0 0 C22.67055441 7.40167598 42.33618082 26.24833004 53.26171875 47.21484375 C57.38473837 55.51229222 60.79172418 63.98105172 63 73 C63.16670122 73.68050543 63.33340244 74.36101086 63.50515521 75.06213766 C65.04171211 81.92831692 65.28665033 88.4995594 65.26742554 95.51768494 C65.27195665 96.74353367 65.27648776 97.9693824 65.28115618 99.23237807 C65.29157317 102.6090911 65.29313524 105.98558993 65.29076743 109.36230361 C65.29035725 113.01405773 65.3014173 116.66578074 65.31088257 120.31752014 C65.32744834 127.4613484 65.33299005 134.60514365 65.33410732 141.74898952 C65.33505963 147.55768135 65.33917899 153.36636234 65.34550858 159.17505074 C65.36310666 175.66151098 65.37234935 192.14794526 65.37084763 208.63441496 C65.37076772 209.52196965 65.3706878 210.40952433 65.37060547 211.32397461 C65.37052371 212.21261861 65.37044195 213.10126261 65.37035771 214.01683522 C65.36954457 228.42270063 65.38869301 242.82846155 65.4168822 257.23429673 C65.44563105 272.04348639 65.45942149 286.8526251 65.45769465 301.66184336 C65.45703158 309.96922223 65.46248781 318.27649147 65.48405075 326.58384514 C65.50228861 333.65513016 65.50658834 340.72625579 65.4930319 347.79755419 C65.48651615 351.40204733 65.48633429 355.0062349 65.5037384 358.6106987 C65.52244704 362.52571654 65.50987874 366.44029166 65.49447632 370.35533142 C65.50476344 371.48375346 65.51505057 372.61217549 65.52564943 373.77479213 C65.41271344 386.79963846 60.87178969 395.93661766 51.8984375 405.16015625 C40.72384138 415.72271618 28.62850861 418.65101674 13.65234375 418.296875 C4.74742353 417.86378739 -1.5966434 414.38166505 -9.04296875 409.703125 C-10.0788765 409.05354324 -10.0788765 409.05354324 -11.13571167 408.39083862 C-20.438054 402.51236353 -29.52167827 396.30496434 -38.625 390.125 C-40.36959687 388.94242091 -42.11438825 387.76012872 -43.859375 386.578125 C-44.73348022 385.9827594 -45.60758545 385.3873938 -46.50817871 384.77398682 C-48.35349367 383.53263153 -50.21263954 382.31164056 -52.08361816 381.10931396 C-57.41781897 377.64191699 -62.0912595 374.05915661 -66.68554688 369.64941406 C-90.1997726 348.23105301 -122.55139708 352.6149611 -152.2696532 353.34023845 C-162.33417305 353.58324229 -172.40043369 353.68210359 -182.46732712 353.77194977 C-183.97095491 353.78550568 -185.47458269 353.79906311 -186.97821045 353.81262207 C-187.71373351 353.81901026 -188.44925657 353.82539845 -189.2070682 353.83198023 C-193.50391005 353.87271736 -197.79869201 353.94504545 -202.09453845 354.04550123 C-233.28811306 354.76199806 -261.18213965 348.48717325 -284.75 326.42578125 C-286.87038938 324.3153312 -288.95555754 322.18383627 -291 320 C-285.53893665 314.21769763 -282.16505184 310.83925105 -274.11157227 310.50120544 C-271.67993393 310.4810323 -269.24805474 310.48279968 -266.81640625 310.50170898 C-265.47191772 310.49788197 -264.12743328 310.49225967 -262.78295898 310.48498535 C-259.89206237 310.47305248 -257.00152912 310.47351132 -254.11062622 310.48357964 C-249.51689778 310.49921999 -244.92353718 310.48540103 -240.32983398 310.46754456 C-231.38120236 310.43673616 -222.43268364 310.43521882 -213.48400879 310.43719482 C-202.15280083 310.43858693 -190.82168315 310.42778511 -179.4905386 310.3886171 C-175.68365493 310.37627667 -171.87699487 310.37033883 -168.07009888 310.38012505 C-119.32949695 310.50311082 -77.3804476 299.9804168 -41.75 265.1875 C-17.15015869 240.24789333 -2.41397295 206.01013487 -0.44459534 171.11256409 C-0.40244103 170.37425057 -0.36028672 169.63593705 -0.31685501 168.8752504 C0.10103132 160.98192274 0.13356618 153.10126273 0.11352539 145.19897461 C0.11324232 143.60042828 0.11340359 142.00188182 0.1139679 140.40333557 C0.11425118 136.12347525 0.1084313 131.84364378 0.10139394 127.56379008 C0.09508134 123.06885985 0.09455042 118.57392873 0.09336853 114.07899475 C0.09027828 105.59388886 0.08209643 97.10879607 0.07201904 88.62369591 C0.06078571 78.95238713 0.05532937 69.28107768 0.05032361 59.60976398 C0.03991152 39.73983538 0.02235741 19.86991852 0 0 Z " fill="#BB8C07" transform="translate(447,94)"/>
<path d="M0 0 C2.660625 -0.061875 5.32125 -0.12375 8.0625 -0.1875 C8.8862915 -0.21481201 9.71008301 -0.24212402 10.55883789 -0.27026367 C15.80231185 -0.32865705 19.35627047 0.52843219 24 3 C28.14008032 7.35797929 29.37717378 10.89614352 29.27734375 16.94140625 C28.65673191 21.54791949 25.87201079 24.257176 22.46875 27.15625 C17.85573023 29.60821546 14.2441313 29.44888666 9.125 29.25 C4.608125 29.12625 4.608125 29.12625 0 29 C0 19.43 0 9.86 0 0 Z " fill="#BA8C08" transform="translate(236,140)"/>
</svg>
