<?xml version="1.0" encoding="UTF-8"?>
<svg version="1.1" xmlns="http://www.w3.org/2000/svg" width="512" height="512">
<path d="M0 0 C10.21598177 7.4732295 18.58367632 18.70123476 22 31 C22 32.32 22 33.64 22 35 C22.71542969 34.7834375 23.43085938 34.566875 24.16796875 34.34375 C39.89086925 29.95028751 54.72279532 31.53975981 69.15234375 39.27734375 C84.35378554 48.47327767 93.32942668 61.30207043 97.64498389 78.37885761 C99.49610141 86.30890854 99.54830351 94.06381352 99.48583984 102.16796875 C99.48799268 103.81922709 99.49188064 105.47048392 99.49734497 107.12173462 C99.50693364 111.55575772 99.49186728 115.98937017 99.47143888 120.42334366 C99.45369079 125.09496741 99.4573964 129.76658181 99.4581604 134.43823242 C99.45629502 142.27887722 99.43903587 150.11936599 99.41162109 157.95996094 C99.38017863 166.98499186 99.36962544 176.00985228 99.3710922 185.03493404 C99.37245025 194.70129716 99.35852973 204.36759585 99.34019899 214.03393936 C99.3359659 216.79398093 99.3345207 219.55401189 99.33372116 222.3140564 C99.33169017 226.67434135 99.31930384 231.03448706 99.29938889 235.3947258 C99.29362073 236.98121663 99.29107118 238.56772351 99.29224396 240.1542244 C99.2986375 254.08615325 98.41586484 267.87204136 94.4375 281.3125 C94.18137939 282.18712891 93.92525879 283.06175781 93.66137695 283.96289062 C83.76365226 316.18777102 61.53729938 343.00842127 32.078125 359.19921875 C7.82509647 372.02756498 -15.75625739 374.53276329 -42.75439453 374.44604492 C-45.74458851 374.43686881 -48.7340006 374.44375857 -51.72412109 374.46655273 C-98.54316348 374.82143049 -136.19848846 362.14304054 -170 329 C-172.86218235 326.16397336 -175.69845188 323.30285902 -178.53125 320.4375 C-180.56912327 318.42542259 -182.62975046 316.53728775 -184.8125 314.6875 C-189.37604095 310.80143317 -193.53585856 306.51712623 -197.72583008 302.23706055 C-200.67241106 299.24677048 -203.66589066 296.37739939 -206.84375 293.6328125 C-223.61250136 279.13381988 -239.52352562 263.90574238 -243 241 C-244.17518523 221.47490687 -241.08253079 203.23372504 -228.01782227 187.96313477 C-217.81530033 176.78775184 -203.78905799 167.75942456 -188.28927612 166.83903503 C-185.35706567 166.80410153 -182.43196133 166.82497966 -179.5 166.875 C-178.48679687 166.88402344 -177.47359375 166.89304687 -176.4296875 166.90234375 C-173.95287199 166.92570993 -171.47656621 166.95846832 -169 167 C-169.00222061 166.23691528 -169.00444122 165.47383057 -169.00672913 164.68762207 C-169.18675081 99.78845318 -169.18675081 99.78845318 -168.79147339 78.00195312 C-168.76424395 76.40032515 -168.74330876 74.79857532 -168.72927856 73.19677734 C-168.56385624 56.06443901 -164.02687075 40.7400193 -152.13671875 27.94140625 C-140.26168731 17.15184386 -126.16282094 10.5981431 -110 10.625 C-109.18490967 10.62371094 -108.36981934 10.62242187 -107.5300293 10.62109375 C-99.32318442 10.76112329 -91.80509779 12.58849393 -84 15 C-83.57332031 14.38253906 -83.14664063 13.76507813 -82.70703125 13.12890625 C-63.40778501 -13.01460876 -26.70855393 -17.71282638 0 0 Z M-46.8125 38.5 C-49.83036533 41.94898894 -50.12506753 44.44135398 -50.13803101 48.8625946 C-50.14348434 49.8648558 -50.14893768 50.867117 -50.15455627 51.89974976 C-50.1555986 52.99848419 -50.15664093 54.09721863 -50.15771484 55.22924805 C-50.16279556 56.38726425 -50.16787628 57.54528046 -50.17311096 58.73838806 C-50.18382424 61.25764391 -50.19244065 63.77690934 -50.19923019 66.29617882 C-50.21100636 70.28504442 -50.23017549 74.27383196 -50.25234985 78.26264954 C-50.31421889 89.60564288 -50.36822402 100.94863172 -50.40136719 112.29174805 C-50.41975183 118.55636311 -50.44873766 124.82083713 -50.4893719 131.08534843 C-50.51038167 134.3977288 -50.52420094 137.70989397 -50.52817917 141.02234459 C-50.53309331 144.72303235 -50.55626656 148.42319783 -50.58349609 152.1237793 C-50.57898689 153.75669922 -50.57898689 153.75669922 -50.5743866 155.42260742 C-50.67385888 164.53644469 -52.41725397 171.41725397 -59 178 C-65.49557187 181.88251728 -71.61506407 181.90204126 -79 181 C-84.20341749 179.06068949 -88.027878 175.68680777 -91 171 C-93.23897011 165.72734592 -93.28134238 160.96677511 -93.25537109 155.34204102 C-93.25899155 154.38680542 -93.262612 153.43156982 -93.26634216 152.4473877 C-93.27321816 150.37999487 -93.27574498 148.31258395 -93.27439499 146.24518013 C-93.27342759 142.97037152 -93.28639704 139.69588918 -93.30337524 136.42112732 C-93.34958621 127.11272692 -93.37425622 117.80436083 -93.38085938 108.49584961 C-93.38587714 102.79592315 -93.41013829 97.09633879 -93.44618607 91.39652824 C-93.45597537 89.22807813 -93.45832078 87.05958091 -93.45301437 84.89111519 C-93.4459348 81.85615644 -93.46324429 78.82221607 -93.48583984 75.78735352 C-93.47766739 74.8962236 -93.46949493 74.00509369 -93.46107483 73.08695984 C-93.53848757 67.22997375 -94.60070264 63.80674684 -98 59 C-101.84008284 55.82775766 -104.98487557 54.10030249 -110 54 C-115.78021537 55.10265153 -119.18672826 57.69609682 -122.87109375 62.18359375 C-125.13446041 65.82534288 -125.12731631 69.45936448 -125.13803101 73.66619873 C-125.14348434 74.82128937 -125.14893768 75.97638 -125.15455627 77.16647339 C-125.1555986 78.42992584 -125.15664093 79.6933783 -125.15771484 80.99511719 C-125.16238537 82.34231735 -125.16752932 83.68951595 -125.17311096 85.03671265 C-125.18437803 87.93628541 -125.19281897 90.83584799 -125.19923019 93.73543549 C-125.20992863 98.32506616 -125.23017902 102.91462361 -125.25234985 107.50421143 C-125.3142101 120.55485676 -125.36825158 133.60549772 -125.40136719 146.65625 C-125.41974008 153.86537959 -125.44870932 161.07438633 -125.4893719 168.28342557 C-125.51039705 172.09544262 -125.52589277 175.90730517 -125.52817917 179.71938324 C-125.53033413 183.30803303 -125.54628922 186.89636118 -125.57256889 190.48491287 C-125.5831309 192.42038398 -125.57902142 194.35591798 -125.5743866 196.29141235 C-125.64935319 204.17376008 -126.12243823 210.38249378 -131.1875 216.75 C-136.90998701 221.3279896 -141.96326215 223.78096687 -149.421875 223.44921875 C-155.87021284 222.32564473 -161.11843615 218.78766182 -166.1875 214.8125 C-171.00380636 211.07504626 -175.40306092 209.72266392 -181.5 210.125 C-187.02946529 210.96990981 -191.05442087 212.76895215 -194.73046875 216.984375 C-198.17763409 221.73343889 -200.46990988 226.04016739 -200 232 C-198.74984352 239.32050395 -195.11735885 243.84660341 -190 249 C-189.05192713 249.97380628 -188.10402206 250.94777594 -187.15625 251.921875 C-182.33492412 256.8372229 -177.44003336 261.56765432 -172.19140625 266.02734375 C-169.17904343 268.73900725 -166.34911226 271.61854821 -163.5 274.5 C-160.10994146 277.92845105 -156.74805992 281.32260742 -153.0625 284.4375 C-149.20860956 287.69785879 -145.72434917 291.28010781 -142.1875 294.875 C-120.60896203 316.64500427 -95.15778106 330.87353215 -63.8807373 331.19024658 C-62.37742859 331.1966214 -62.37742859 331.1966214 -60.84375 331.203125 C-59.78321411 331.20882507 -58.72267822 331.21452515 -57.63000488 331.22039795 C-55.39104192 331.22980881 -53.15206534 331.23636629 -50.91308594 331.24023438 C-47.53815601 331.24989083 -44.16384862 331.28093228 -40.7890625 331.3125 C-12.79416159 331.45151137 9.94493765 325.49079323 31 306 C45.66112685 290.62601447 55.07297514 270.15709858 55.14717102 248.78942871 C55.15084771 248.09826635 55.1545244 247.40710399 55.1583125 246.69499731 C55.16925523 244.39756856 55.1731769 242.10018517 55.17700195 239.80273438 C55.18327338 238.1480546 55.18992077 236.49337622 55.19691467 234.83869934 C55.2178644 229.42372604 55.2283037 224.00875272 55.23828125 218.59375 C55.24233122 216.72572312 55.24644822 214.85769639 55.25063133 212.9896698 C55.26965745 204.21764794 55.28389783 195.4456344 55.2922433 186.67359591 C55.30202762 176.55776697 55.32838905 166.44215615 55.36874419 156.32640409 C55.39890173 148.49776636 55.41371155 140.66919123 55.41702431 132.84049654 C55.41937377 128.16832048 55.42832188 123.49637815 55.45348549 118.82426453 C55.47676712 114.4312437 55.48099917 110.03861059 55.47072411 105.64554405 C55.47022878 104.03590797 55.47654842 102.42625277 55.49028015 100.81667519 C55.50801574 98.61417808 55.50088663 96.41307038 55.48774719 94.21057129 C55.49132972 92.36449154 55.49132972 92.36449154 55.49498463 90.48111725 C54.82263973 85.75266447 53.14727155 81.81090749 49.38447362 78.63754129 C44.93081485 75.59177321 40.25476265 75.05069069 35 76 C30.38554939 78.35075786 26.18276483 81.64158798 24.40339661 86.69403076 C23.8380831 89.92557891 23.85565997 93.12587335 23.8581543 96.39550781 C23.85467987 97.13426651 23.85120544 97.87302521 23.84762573 98.63417053 C23.84028567 100.2356008 23.83493098 101.83704114 23.83133507 103.43848419 C23.82414763 105.97825787 23.80846339 108.5178408 23.78999329 111.05755615 C23.73763599 118.2777645 23.68957672 125.49786766 23.67407227 132.71826172 C23.66395927 137.13863924 23.63455157 141.55853494 23.59275246 145.97872162 C23.58048506 147.65788876 23.57531338 149.33712407 23.57755089 151.01633453 C23.59540596 168.79187324 23.59540596 168.79187324 17.18359375 176.05859375 C16.60738281 176.51363281 16.03117188 176.96867188 15.4375 177.4375 C14.85871094 177.91058594 14.27992188 178.38367188 13.68359375 178.87109375 C8.36137587 182.43981989 1.0926776 181.58089831 -5 181 C-10.82287519 179.07105992 -14.0251801 175.2152904 -17.08984375 170.0625 C-18.8299297 166.11930094 -19.1250979 162.19042813 -19.13130188 157.92140198 C-19.13731415 156.42217194 -19.13731415 156.42217194 -19.14344788 154.89265442 C-19.1426548 153.26465157 -19.1426548 153.26465157 -19.1418457 151.60375977 C-19.14532013 150.45199249 -19.14879456 149.30022522 -19.15237427 148.11355591 C-19.15972105 145.61451766 -19.16507217 143.11547293 -19.16866493 140.61642647 C-19.17583539 136.66154315 -19.1915054 132.70678353 -19.21000671 128.75193787 C-19.21634335 127.39588647 -19.22266898 126.03983503 -19.22898388 124.68378353 C-19.2337326 123.66541355 -19.2337326 123.66541355 -19.23857725 122.62647045 C-19.28059804 113.42441706 -19.3136363 104.22240669 -19.32592773 95.02026367 C-19.33521003 88.14143693 -19.36530113 81.26293299 -19.40724754 74.38422966 C-19.41956988 71.76280012 -19.42467657 69.1413264 -19.42244911 66.51986885 C-19.42010058 62.85478308 -19.44222934 59.19059884 -19.4699707 55.52563477 C-19.46336929 54.44232376 -19.45676788 53.35901276 -19.44996643 52.24287415 C-19.54547431 44.5647506 -20.90523916 41.27160431 -26.1875 35.6875 C-33.83370399 31.0997776 -40.35012125 32.75566334 -46.8125 38.5 Z " fill="#686868" transform="translate(243,138)"/>
<path d="M0 0 C0.92554688 0.42410156 1.85109375 0.84820313 2.8046875 1.28515625 C11.63939824 5.67803873 19.17100026 12.01997985 25 20 C25 20.66 25 21.32 25 22 C26.10408203 21.58427734 26.10408203 21.58427734 27.23046875 21.16015625 C28.20628906 20.79792969 29.18210937 20.43570312 30.1875 20.0625 C31.15042969 19.70285156 32.11335937 19.34320312 33.10546875 18.97265625 C47.98088588 13.9740343 64.10393781 16.69284555 78 23.0625 C92.16241443 30.19187869 101.31752719 41.74636727 106.95703125 56.3359375 C110.62483398 69.22132686 110.26049362 81.97689927 110.1953125 95.265625 C110.19157651 97.51291782 110.18873231 99.76021228 110.18673706 102.00750732 C110.17914676 107.88629757 110.15953836 113.76498702 110.1373291 119.64373779 C110.11677091 125.65700925 110.10771412 131.67029719 110.09765625 137.68359375 C110.07628767 149.45577315 110.04220805 161.22787815 110 173 C110.62618729 172.99149017 111.25237457 172.98298035 111.89753723 172.97421265 C114.77150761 172.94015407 117.64543532 172.91920557 120.51953125 172.8984375 C121.50441528 172.88482178 122.48929932 172.87120605 123.50402832 172.85717773 C140.59925076 172.76467497 154.2471346 179.48356446 166.33984375 191.27734375 C178.40591851 203.62690926 184.62172848 219.07690265 184.4375 236.3125 C184.42614014 237.81635254 184.42614014 237.81635254 184.41455078 239.35058594 C184.01384813 257.49042402 176.48114344 272.72007647 163.55126953 285.42333984 C161.02749337 287.80731262 158.45001679 290.12714433 155.85546875 292.43359375 C153.40104888 294.63954978 151.0596259 296.89499835 148.75 299.25 C146.2942496 301.74617427 143.78432626 304.09709105 141.125 306.375 C137.01639577 309.90356599 133.2535824 313.73105978 129.44921875 317.58203125 C126.6895396 320.30649918 123.80819343 322.83547376 120.86328125 325.35546875 C118.99548207 327.00398752 117.24544376 328.72303581 115.5 330.5 C112.5785281 333.4673246 109.52706262 336.20512102 106.359375 338.90625 C104.50184176 340.55465698 102.72401702 342.23061184 100.953125 343.96875 C93.73733519 350.99267611 87.73111217 356.18762439 77.375 357.4375 C69.99400855 356.48070481 63.92459605 353.72250528 59 348 C55.09367805 341.51385887 55.11951474 335.38253024 56 328 C58.80780048 319.99256899 66.58061392 314.09592596 72.796875 308.6875 C76.76122867 305.23171457 80.61320509 301.67196888 84.4375 298.0625 C85.11417725 297.42570312 85.79085449 296.78890625 86.48803711 296.1328125 C87.92057689 294.78453976 89.35261568 293.43573453 90.78417969 292.08642578 C93.04320076 289.95932198 95.30626929 287.83660048 97.5703125 285.71484375 C99.06775078 284.30994108 100.56514775 282.90499436 102.0625 281.5 C103.09685181 280.53139038 103.09685181 280.53139038 104.15209961 279.54321289 C107.9694985 275.95601824 111.71703609 272.3163664 115.38769531 268.57885742 C117.09294483 266.90898331 118.86881696 265.3574001 120.6875 263.8125 C133.18691027 253.74794379 133.18691027 253.74794379 140 240 C140.30910652 232.8791016 138.62795169 227.44538881 134 222 C129.19401214 217.64108078 124.31904771 216.78904545 118 217 C111.10289063 218.0104794 106.56788345 221.6087008 101.45703125 226.16015625 C95.91438996 230.31052835 89.69419296 230.83806743 83 230 C76.43719316 227.88848823 71.73083858 223.96715186 68.25 218 C66.32424578 213.37818987 65.87499268 209.23441467 65.86869812 204.25151062 C65.86268585 202.5294339 65.86268585 202.5294339 65.85655212 200.77256775 C65.8573452 198.89680809 65.8573452 198.89680809 65.8581543 196.9831543 C65.85512035 195.64565924 65.85159825 194.30816521 65.84762573 192.97067261 C65.83975425 190.09512404 65.83459842 187.21958778 65.83133507 184.34403038 C65.8254086 179.79212554 65.8088527 175.24029821 65.78999329 170.68843079 C65.78365637 169.12790589 65.77733074 167.56738095 65.77101612 166.00685596 C65.76785031 165.22547909 65.7646845 164.44410222 65.76142275 163.63904727 C65.71940228 153.04656925 65.68637459 142.45412811 65.67407227 131.86157227 C65.66568107 124.70990874 65.64315325 117.55843814 65.6047166 110.40687114 C65.58499511 106.62612147 65.57253836 102.84565995 65.57755089 99.06485558 C65.58221137 95.50648254 65.5683167 91.94865536 65.54053879 88.3903923 C65.53038182 86.47162512 65.53985499 84.55278501 65.55003357 82.63401794 C65.47450986 75.62836992 64.82402291 70.93545709 61 65 C57.56839934 62.2005363 54.40300028 61.26418002 50 61 C44.47028599 61.97012526 41.54390341 63.64606152 38 68 C36.21882119 71.67660043 35.74986736 74.60598049 35.74462891 78.6730957 C35.73766998 79.78807938 35.73071106 80.90306305 35.72354126 82.05183411 C35.72503677 83.84568794 35.72503677 83.84568794 35.7265625 85.67578125 C35.70627201 88.22070751 35.68542119 90.76562935 35.6640625 93.31054688 C35.64147549 97.3131121 35.62415123 101.31549533 35.61914062 105.31811523 C35.60960092 109.18765658 35.57580259 113.05641575 35.5390625 116.92578125 C35.54410797 118.11561111 35.54915344 119.30544098 35.55435181 120.53132629 C35.4545424 128.99303408 34.35407494 134.56969608 28.25 140.8125 C22.42364216 144.73408701 17.12447584 146.7633367 10 146 C4.01071097 144.5739788 -0.96628905 141.68727424 -5 137 C-7.7886515 132.34774625 -8.43109332 128.49883433 -8.38476562 123.17797852 C-8.3901384 122.41781433 -8.39551117 121.65765015 -8.40104675 120.87445068 C-8.41078985 119.23269241 -8.41377943 117.59088286 -8.41069031 115.94909859 C-8.40619361 113.34626518 -8.42026446 110.74410498 -8.43908691 108.14134216 C-8.47578789 102.61507224 -8.48956473 97.08887383 -8.5 91.5625 C-8.51209966 85.15913683 -8.5337288 78.7561034 -8.58000183 72.35288811 C-8.59352495 69.79645032 -8.58940997 67.24043445 -8.58459473 64.68397522 C-8.59394024 63.10645011 -8.60411029 61.52892959 -8.61523438 59.95141602 C-8.60908615 59.24730087 -8.60293793 58.54318573 -8.59660339 57.81773376 C-8.65875509 52.77394579 -9.71281396 49.40558055 -12 45 C-16.84903903 40.5057687 -19.99355956 39.63871506 -26.45703125 39.72265625 C-30.23091373 40.13424712 -32.24007187 41.44201783 -35 44 C-37.69147495 48.46767937 -38.38344512 51.83036013 -38.44140625 57.015625 C-38.45461411 57.67149597 -38.46782196 58.32736694 -38.48143005 59.00311279 C-38.52200774 61.08545138 -38.54387475 63.16735839 -38.5625 65.25 C-38.85017559 90.0133472 -38.85017559 90.0133472 -46.0234375 97.3046875 C-51.70143849 102.17475159 -56.83186211 103.70015529 -64.32421875 103.37890625 C-71.24549526 102.39881308 -75.43407358 99.08617263 -79.7109375 93.734375 C-80.79209759 92.27972324 -81.83795832 90.7989264 -82.875 89.3125 C-87.11342279 84.70009873 -91.8924346 82.77220542 -98.125 82.5 C-102.89010769 82.75423593 -105.4292505 83.66212547 -109 87 C-110.26818368 88.79982399 -111.51624563 90.6139029 -112.75 92.4375 C-116.68578492 98.02377536 -120.37614474 101.14101551 -127 103 C-133.22848345 103.95555534 -138.71272292 103.52936225 -144.21484375 100.33203125 C-150.03878617 95.98637619 -153.25848015 91.03690923 -154.3203125 83.82421875 C-154.96528952 75.03290153 -151.13449834 68.1147628 -145.9140625 61.26171875 C-133.4626613 46.8661514 -118.4458949 39.60137771 -99.47265625 37.75390625 C-93.23568451 37.56217294 -87.10446081 38.84314787 -81 40 C-80.85304688 39.40574219 -80.70609375 38.81148437 -80.5546875 38.19921875 C-76.24008867 22.25504033 -67.62878488 11.97916235 -54 3 C-38.23982084 -5.64402921 -16.49695706 -8.0971303 0 0 Z " fill="#686868" transform="translate(328,4)"/>
</svg>
