<?xml version="1.0" encoding="UTF-8"?>
<svg version="1.1" xmlns="http://www.w3.org/2000/svg" width="512" height="512">
<path d="M0 0 C5.5393936 4.60182543 10.46350565 9.46271411 15.16601562 14.90332031 C18.08853982 18.24445953 21.13887959 21.46175125 24.1875 24.6875 C25.51080806 26.0933817 26.83371972 27.49963661 28.15625 28.90625 C28.8059375 29.5971875 29.455625 30.288125 30.125 31 C34.2948479 35.44783776 38.41983409 39.93716997 42.54833984 44.42333984 C45.029464 47.1181094 47.51495791 49.80884393 50 52.5 C52.97795955 55.72527752 55.95536883 58.95105166 58.9296875 62.1796875 C64.28712413 67.99300041 69.66351874 73.78773321 75.0625 79.5625 C80.1736202 85.03014521 85.24965192 90.52772159 90.30078125 96.05078125 C97.51097119 103.9287746 104.7694426 111.76120177 112.0625 119.5625 C117.17359611 125.03016801 122.24965164 130.52772129 127.30078125 136.05078125 C134.51097119 143.9287746 141.7694426 151.76120177 149.0625 159.5625 C154.17359611 165.03016801 159.24965164 170.52772129 164.30078125 176.05078125 C167.13170355 179.14390186 169.97016083 182.22987772 172.8125 185.3125 C173.30202148 185.84544678 173.79154297 186.37839355 174.29589844 186.92749023 C177.05102124 189.91961763 179.83595399 192.87758508 182.66015625 195.8046875 C193.85300402 207.45914133 202.52133654 218.33652426 202.38095093 235.16377258 C202.38797089 236.47955277 202.38797089 236.47955277 202.39513266 237.82191437 C202.40702057 240.73730946 202.39764972 243.65222906 202.38818359 246.56762695 C202.39225214 248.66768669 202.3975956 250.76774429 202.40411377 252.86779785 C202.41776196 258.55595938 202.41249829 264.24395721 202.40297651 269.93212152 C202.39536401 275.89625495 202.40243022 281.86037467 202.40713501 287.82450867 C202.41258919 297.84225979 202.4054111 307.85994451 202.39111328 317.87768555 C202.37480084 329.44008666 202.38006649 341.00232894 202.3965925 352.56472617 C202.41023292 362.50812646 202.41211413 372.45147909 202.40427649 382.39488572 C202.39961231 388.32635135 202.39894026 394.25774249 202.40888596 400.18920326 C202.41759007 405.7698899 202.41147091 411.3503731 202.39420319 416.9310379 C202.39025613 418.97233684 202.39134164 421.01365307 202.39799118 423.05494499 C202.46088169 444.33288534 198.43050659 461.20952825 183 477 C176.08153313 483.07613643 168.71647195 487.94979143 160 491 C159.36600281 491.2476561 158.73200562 491.49531219 158.07879639 491.75047302 C147.92896071 495.15892698 137.27215411 494.37379871 126.70703125 494.29296875 C124.54799191 494.28736536 122.38894872 494.28309878 120.22990417 494.28010559 C114.57955172 494.26871531 108.92943491 494.23929872 103.2791748 494.20599365 C97.50060207 494.17516673 91.72199084 494.16157339 85.94335938 494.14648438 C74.62880338 494.11442302 63.31442138 494.0632978 52 494 C51.99761165 493.2983799 51.99522329 492.5967598 51.99276257 491.87387848 C51.9334095 474.73546771 51.85773137 457.59720502 51.76428509 440.45894623 C51.71947988 432.17072325 51.68003081 423.88254179 51.65356445 415.59423828 C51.63045979 408.36307813 51.59692496 401.13205103 51.55129844 393.90099669 C51.52753274 390.07861638 51.50869574 386.25636647 51.50238609 382.43391418 C51.4874324 355.45519748 51.4874324 355.45519748 44.875 329.4375 C44.42713135 328.25317383 44.42713135 328.25317383 43.97021484 327.04492188 C39.08448712 314.63942191 31.90302162 303.90090845 23 294 C22.31550781 293.23300781 21.63101562 292.46601563 20.92578125 291.67578125 C2.49970537 272.1598081 -23.92595401 261.23610961 -50.5 259.8125 C-79.27745203 259.29861693 -106.46217576 269.97788085 -127.24462891 289.82714844 C-132.90709688 295.42265328 -137.82559521 301.19500923 -142 308 C-142.64324219 308.98742187 -143.28648437 309.97484375 -143.94921875 310.9921875 C-148.23087964 317.92440037 -151.27389521 324.90090361 -153.875 332.625 C-154.16117188 333.47102783 -154.44734375 334.31705566 -154.7421875 335.1887207 C-158.33486645 346.41044476 -159.29867156 357.38536919 -159.31884766 369.12207031 C-159.32817125 370.49328689 -159.33834343 371.86449792 -159.34928894 373.23570251 C-159.37632948 376.91874708 -159.39166026 380.60175399 -159.40471697 384.2848711 C-159.42046253 388.14859597 -159.44721561 392.01224517 -159.4727478 395.87591553 C-159.51933504 403.17471802 -159.55617548 410.47353507 -159.58942068 417.7724092 C-159.62778474 426.08938404 -159.67715694 434.40628249 -159.72740483 442.72319269 C-159.83042599 459.81540635 -159.91978229 476.90766441 -160 494 C-172.40537442 494.09305534 -184.81066455 494.1639445 -197.21631813 494.20724869 C-202.97799718 494.22804212 -208.73943582 494.25620798 -214.50097656 494.30175781 C-220.07069609 494.34551099 -225.64018569 494.36919896 -231.21006393 494.37950897 C-233.32533762 494.38684775 -235.44060003 494.40117729 -237.55577469 494.42292023 C-259.57720235 494.64009855 -276.42931715 490.48614805 -293 475 C-304.43881058 463.29984577 -310.32307802 448.07867933 -310.27415466 431.84295654 C-310.27939134 430.96647532 -310.28462802 430.08999409 -310.29002339 429.18695283 C-310.30492693 426.27400203 -310.3057264 423.36122837 -310.30639648 420.44824219 C-310.31402442 418.34980476 -310.322453 416.25137011 -310.33161926 414.15293884 C-310.35350752 408.46889045 -310.36235545 402.78489583 -310.36744571 397.10081005 C-310.37109575 393.54492498 -310.37733915 389.98905386 -310.3844471 386.43317413 C-310.40892112 374.01452519 -310.42198923 361.59591791 -310.42553711 349.17724609 C-310.42917157 337.62275599 -310.45906608 326.06853163 -310.50094169 314.51412272 C-310.53569062 304.57580688 -310.55108634 294.63757893 -310.55178314 284.69920278 C-310.55257432 278.77153276 -310.56124047 272.84413374 -310.58978081 266.91652679 C-310.61604042 261.338221 -310.6181224 255.76040941 -310.60212517 250.18206978 C-310.60031702 248.14278901 -310.60694361 246.10347929 -310.62294388 244.06426048 C-310.72800736 229.79645011 -309.94353579 217.08433658 -299.625 206.125 C-299.14385742 205.58528564 -298.66271484 205.04557129 -298.16699219 204.48950195 C-295.13449675 201.11887615 -291.99006123 197.8586919 -288.72021484 194.71826172 C-286.97203854 192.97207029 -285.36083863 191.15837352 -283.75 189.28515625 C-280.18022715 185.17822564 -276.48787123 181.20367799 -272.75 177.25 C-267.34763096 171.51185663 -261.98740086 165.74064591 -256.671875 159.921875 C-253.81122345 156.79356015 -250.9389025 153.6763228 -248.0625 150.5625 C-247.56339111 150.02214111 -247.06428223 149.48178223 -246.55004883 148.92504883 C-245.53879388 147.83035108 -244.52748188 146.73570604 -243.51611328 145.64111328 C-241.00985896 142.92822414 -238.50499554 140.21405141 -236 137.5 C-235.00000676 136.41666043 -234.00000676 135.33332709 -233 134.25 C-232.505 133.71375 -232.01 133.1775 -231.5 132.625 C-218 118 -204.5 103.375 -191 88.75 C-190.50516113 88.21391113 -190.01032227 87.67782227 -189.50048828 87.12548828 C-188.49891474 86.04047744 -187.497287 84.95551662 -186.49560547 83.87060547 C-184.01923728 81.18834243 -181.54376936 78.50526066 -179.0703125 75.8203125 C-173.71287587 70.00699959 -168.33648126 64.21226679 -162.9375 58.4375 C-157.82889126 52.97254144 -152.75499275 47.47800817 -147.70703125 41.95703125 C-144.33270234 38.26732147 -140.94129124 34.59342131 -137.54589844 30.9230957 C-135.0434438 28.21746749 -132.54730267 25.50667179 -130.06640625 22.78125 C-127.0709149 19.49558289 -124.04283003 16.24182383 -121 13 C-120.44554199 12.40477539 -119.89108398 11.80955078 -119.31982422 11.19628906 C-87.69878428 -22.52211028 -37.20209701 -29.02043282 0 0 Z " fill="#BB8C07" transform="translate(310,18)"/>
<path d="M0 0 C11.06625657 10.49693147 20.04092201 24.15989161 20.99318314 39.77540588 C21.05817876 43.37585572 21.05977439 46.97127429 21.03955078 50.57226562 C21.03898581 51.95273836 21.0393049 53.33321169 21.04043579 54.71368408 C21.04100696 58.44041761 21.02929112 62.16702101 21.01528788 65.89372444 C21.00274095 69.79612687 21.0016069 73.69853266 20.99923706 77.60095215 C20.9930339 84.98140191 20.97663891 92.36179206 20.95653808 99.74221563 C20.92995091 109.72197404 20.91919703 119.70174889 20.90753365 129.68153381 C20.88875742 145.39190049 20.84890402 161.10214138 20.8125 176.8125 C-21.4275 176.8125 -63.6675 176.8125 -107.1875 176.8125 C-107.38901517 142.34892763 -107.38901517 142.34892763 -107.43164062 127.828125 C-107.46122701 117.82994661 -107.49587281 107.83197999 -107.56469727 97.83398438 C-107.61481355 90.55016435 -107.64685708 83.26651731 -107.65794247 75.98252964 C-107.66441398 72.13200502 -107.67942858 68.2819749 -107.71615028 64.43161011 C-107.9387384 40.15505916 -106.25681228 20.5621281 -88.9375 1.9375 C-63.95051852 -21.43882239 -25.87481003 -22.00754259 0 0 Z " fill="#BB8C07" transform="translate(299.1875,335.1875)"/>
</svg>
