<?xml version="1.0" encoding="UTF-8"?>
<svg version="1.1" xmlns="http://www.w3.org/2000/svg" width="512" height="512">
<path d="M0 0 C8.3965805 5.00684986 13.43842157 11.8572967 16.109375 21.2578125 C16.27902699 23.77521042 16.34492105 26.30063675 16.33642578 28.82373047 C16.33671783 29.55612442 16.33700989 30.28851837 16.33731079 31.04310608 C16.33592594 33.44552779 16.32040497 35.84763298 16.3046875 38.25 C16.30095436 39.92294139 16.29810881 41.59588498 16.29611206 43.26882935 C16.2884993 47.65826522 16.26887119 52.0475674 16.2467041 56.43695068 C16.22619476 60.92149039 16.21709948 65.40605184 16.20703125 69.890625 C16.18562296 78.67974865 16.15151565 87.46876391 16.109375 96.2578125 C17.37644791 96.40983627 18.64352081 96.56186005 19.94898987 96.7184906 C24.88516199 97.31073396 29.34857887 98.72644247 34.046875 100.3203125 C34.95912842 100.62759277 35.87138184 100.93487305 36.8112793 101.25146484 C47.27662183 104.87376821 57.66372022 109.17657376 66.921875 115.3203125 C69.76225395 117.46090312 69.76225395 117.46090312 72.0262146 117.14396667 C74.86048318 115.93829911 76.47585732 114.2202096 78.62744141 112.0168457 C79.51581696 111.11533279 80.4041925 110.21381989 81.31948853 109.2849884 C81.79012348 108.80037455 82.26075844 108.31576069 82.74565506 107.81646156 C84.22825856 106.29076929 85.72058781 104.77522938 87.21591187 103.26200867 C91.46505737 98.95797106 95.69442861 94.63465228 99.92138672 90.30883789 C102.5109339 87.66011749 105.11058098 85.02162948 107.71598434 82.38850975 C109.174034 80.90855176 110.61979966 79.41729721 112.06558228 77.92536926 C121.06845292 68.82341717 128.8043879 63.07048678 141.796875 62.9453125 C148.40554972 62.92521629 153.41555205 63.66668765 159.109375 67.2578125 C159.73070312 67.6084375 160.35203125 67.9590625 160.9921875 68.3203125 C167.85178119 72.59642285 172.05102522 79.5507494 174.109375 87.2578125 C175.25798131 100.14624372 173.23861742 108.55722706 165.2194519 118.74630737 C161.3514316 123.35019304 157.07347403 127.53663944 152.80078125 131.76171875 C151.8238547 132.73490464 150.84737654 133.70854083 149.87132263 134.68260193 C147.32931032 137.21706054 144.78134658 139.74544913 142.23199463 142.27252197 C139.62036501 144.86351276 137.01454847 147.46033622 134.40820312 150.05664062 C129.31419125 155.12934886 124.21386309 160.19564389 119.109375 165.2578125 C119.63901855 166.16837402 120.16866211 167.07893555 120.71435547 168.01708984 C124.47961923 174.52368779 128.21100427 180.98972835 131.234375 187.8828125 C131.55857422 188.6164502 131.88277344 189.35008789 132.21679688 190.10595703 C141.109375 210.89170325 141.109375 210.89170325 141.109375 221.2578125 C142.46002045 221.237827 142.46002045 221.237827 143.83795166 221.21743774 C152.36945586 221.09666516 160.90066846 221.00558797 169.43283463 220.94693947 C173.81822759 220.91577245 178.20290777 220.87357239 182.58789062 220.80517578 C186.82845704 220.73945402 191.06834274 220.70399677 195.30937958 220.68854904 C196.91840059 220.67755639 198.52738897 220.65609248 200.13611603 220.62343216 C211.41853262 220.40371675 220.89043871 221.57004746 229.59796143 229.53384399 C236.89953718 237.14367221 239.48685023 245.13455743 239.31640625 255.578125 C238.63945781 264.34013694 235.28081195 271.03881149 229.109375 277.2578125 C222.12587846 282.92962621 215.80852569 285.51628707 206.72705078 285.48486328 C205.65772057 285.48530136 205.65772057 285.48530136 204.56678772 285.48574829 C202.22929368 285.48436388 199.89212531 285.4688451 197.5546875 285.453125 C195.92658665 285.4493917 194.29848354 285.44654622 192.67037964 285.44454956 C188.39930952 285.43693806 184.12837689 285.41731106 179.85736084 285.3951416 C175.49346781 285.37462953 171.12955242 285.3655364 166.765625 285.35546875 C158.2134788 285.33406268 149.66144403 285.29995692 141.109375 285.2578125 C140.97217041 286.47927979 140.83496582 287.70074707 140.69360352 288.95922852 C140.06837265 293.93869443 138.65595969 298.45216767 137.046875 303.1953125 C136.73959473 304.10756592 136.43231445 305.01981934 136.11572266 305.9597168 C132.49341929 316.42505933 128.19061374 326.81215772 122.046875 336.0703125 C119.90628438 338.91069145 119.90628438 338.91069145 120.22322083 341.1746521 C121.42888839 344.00892068 123.1469779 345.62429482 125.3503418 347.77587891 C126.25185471 348.66425446 127.15336761 349.55263 128.0821991 350.46792603 C128.80911988 351.17387846 128.80911988 351.17387846 129.55072594 351.89409256 C131.07641821 353.37669606 132.59195812 354.86902531 134.10517883 356.36434937 C138.40921644 360.61349487 142.73253522 364.84286611 147.05834961 369.06982422 C149.70707001 371.6593714 152.34555802 374.25901848 154.97867775 376.86442184 C156.45863574 378.3224715 157.94989029 379.76823716 159.44181824 381.21401978 C168.54377033 390.21689042 174.29670072 397.9528254 174.421875 410.9453125 C174.44197121 417.55398722 173.70049985 422.56398955 170.109375 428.2578125 C169.75875 428.87914062 169.408125 429.50046875 169.046875 430.140625 C164.77076465 437.00021869 157.8164381 441.19946272 150.109375 443.2578125 C137.22094378 444.40641881 128.80996044 442.38705492 118.62088013 434.3678894 C114.01699446 430.4998691 109.83054806 426.22191153 105.60546875 421.94921875 C104.63228286 420.9722922 103.65864667 419.99581404 102.68458557 419.01976013 C100.15012696 416.47774782 97.62173837 413.92978408 95.09466553 411.38043213 C92.50367474 408.76880251 89.90685128 406.16298597 87.31054688 403.55664062 C82.23783864 398.46262875 77.17154361 393.36230059 72.109375 388.2578125 C71.19881348 388.78745605 70.28825195 389.31709961 69.35009766 389.86279297 C62.84349971 393.62805673 56.37745915 397.35944177 49.484375 400.3828125 C48.7507373 400.70701172 48.01709961 401.03121094 47.26123047 401.36523438 C26.47548425 410.2578125 26.47548425 410.2578125 16.109375 410.2578125 C16.11825745 411.1752121 16.12713989 412.09261169 16.1362915 413.03781128 C16.21670503 421.71716966 16.27747487 430.39640148 16.31662369 439.0760479 C16.33742772 443.53751497 16.3656126 447.99867216 16.41113281 452.45996094 C16.45484883 456.77180111 16.47856603 461.08334473 16.48888397 465.39538956 C16.49622943 467.03391304 16.5105726 468.67242177 16.53229523 470.31081772 C16.67881765 481.82845191 16.06447439 491.89111517 7.8125 500.7265625 C-0.41106385 508.12022541 -9.12508135 509.83971317 -19.90234375 509.5703125 C-28.28803831 509.09598615 -35.293562 505.48311727 -40.890625 499.2578125 C-45.99586244 492.46893293 -48.14651605 486.25745394 -48.11767578 477.69189453 C-48.11796783 476.95950058 -48.11825989 476.22710663 -48.11856079 475.47251892 C-48.11717594 473.07009721 -48.10165497 470.66799202 -48.0859375 468.265625 C-48.08220436 466.59268361 -48.07935881 464.91974002 -48.07736206 463.24679565 C-48.0697493 458.85735978 -48.05012119 454.4680576 -48.0279541 450.07867432 C-48.00744476 445.59413461 -47.99834948 441.10957316 -47.98828125 436.625 C-47.96687296 427.83587635 -47.93276565 419.04686109 -47.890625 410.2578125 C-49.15769791 410.10578873 -50.42477081 409.95376495 -51.73023987 409.7971344 C-56.66641199 409.20489104 -61.12982887 407.78918253 -65.828125 406.1953125 C-66.74037842 405.88803223 -67.65263184 405.58075195 -68.5925293 405.26416016 C-79.05787183 401.64185679 -89.44497022 397.33905124 -98.703125 391.1953125 C-101.54319689 389.05518065 -101.54319689 389.05518065 -103.80548096 389.3706665 C-106.64831089 390.58017776 -108.27798534 392.30888078 -110.44042969 394.51464844 C-111.33526062 395.41938904 -112.23009155 396.32412964 -113.15203857 397.25628662 C-113.62591759 397.74252251 -114.0997966 398.22875839 -114.58803558 398.7297287 C-116.07886707 400.25897632 -117.57898017 401.77854492 -119.08184814 403.29595947 C-122.81554884 407.06970932 -126.53294878 410.85938585 -130.25061035 414.64892578 C-133.38908372 417.84691326 -136.53383842 421.0384733 -139.68698883 424.22199249 C-141.15548994 425.70975753 -142.6145521 427.20635443 -144.07342529 428.70355225 C-152.11717184 436.83514029 -159.66602279 443.36967609 -171.59985352 443.63818359 C-181.67736404 443.61166066 -189.73309852 442.08359194 -197.359375 434.9609375 C-204.75421986 426.73605904 -206.49516668 418.00969526 -206.18359375 407.2265625 C-204.77894346 388.19823322 -182.8226178 373.0683097 -170.203125 360.5078125 C-168.32593796 358.63565118 -166.44898295 356.76325718 -164.57226562 354.890625 C-160.01439001 350.34366845 -155.45365988 345.79959123 -150.890625 341.2578125 C-151.42026855 340.34725098 -151.94991211 339.43668945 -152.49560547 338.49853516 C-156.26086923 331.99193721 -159.99225427 325.52589665 -163.015625 318.6328125 C-163.33982422 317.8991748 -163.66402344 317.16553711 -163.99804688 316.40966797 C-172.890625 295.62392175 -172.890625 295.62392175 -172.890625 285.2578125 C-173.8080246 285.26669495 -174.72542419 285.27557739 -175.67062378 285.284729 C-184.34998216 285.36514253 -193.02921398 285.42591237 -201.7088604 285.46506119 C-206.17032747 285.48586522 -210.63148466 285.5140501 -215.09277344 285.55957031 C-219.40461361 285.60328633 -223.71615723 285.62700353 -228.02820206 285.63732147 C-229.66672554 285.64466693 -231.30523427 285.6590101 -232.94363022 285.68073273 C-244.46126441 285.82725515 -254.52392767 285.21291189 -263.359375 276.9609375 C-270.75303791 268.73737365 -272.47252567 260.02335615 -272.203125 249.24609375 C-271.72879865 240.86039919 -268.11592977 233.8548755 -261.890625 228.2578125 C-255.10174543 223.15257506 -248.89026644 221.00192145 -240.32470703 221.03076172 C-239.59231308 221.03046967 -238.85991913 221.03017761 -238.10533142 221.02987671 C-235.70290971 221.03126156 -233.30080452 221.04678253 -230.8984375 221.0625 C-229.22549611 221.06623314 -227.55255252 221.06907869 -225.87960815 221.07107544 C-221.49017228 221.0786882 -217.1008701 221.09831631 -212.71148682 221.1204834 C-208.22694711 221.14099274 -203.74238566 221.15008802 -199.2578125 221.16015625 C-190.46868885 221.18156454 -181.67967359 221.21567185 -172.890625 221.2578125 C-172.73860123 219.99073959 -172.58657745 218.72366669 -172.4299469 217.41819763 C-171.83770354 212.48202551 -170.42199503 208.01860863 -168.828125 203.3203125 C-168.52084473 202.40805908 -168.21356445 201.49580566 -167.89697266 200.5559082 C-164.27466929 190.09056567 -159.97186374 179.70346728 -153.828125 170.4453125 C-151.68799315 167.60524061 -151.68799315 167.60524061 -152.003479 165.34295654 C-153.21299026 162.50012661 -154.94169328 160.87045216 -157.14746094 158.70800781 C-158.05220154 157.81317688 -158.95694214 156.91834595 -159.88909912 155.99639893 C-160.37533501 155.52251991 -160.86157089 155.0486409 -161.3625412 154.56040192 C-162.89178882 153.06957043 -164.41135742 151.56945733 -165.92877197 150.06658936 C-169.70252182 146.33288866 -173.49219835 142.61548872 -177.28173828 138.89782715 C-180.47972576 135.75935378 -183.6712858 132.61459908 -186.85480499 129.46144867 C-188.34257003 127.99294756 -189.83916693 126.5338854 -191.33636475 125.07501221 C-199.46795279 117.03126566 -206.00248859 109.48241471 -206.27099609 97.54858398 C-206.24447316 87.47107346 -204.71640444 79.41533898 -197.59375 71.7890625 C-189.36887154 64.39421764 -180.64250776 62.65327082 -169.859375 62.96484375 C-150.83104572 64.36949404 -135.7011222 86.3258197 -123.140625 98.9453125 C-121.26846368 100.82249954 -119.39606968 102.69945455 -117.5234375 104.57617188 C-112.97648095 109.13404749 -108.43240373 113.69477762 -103.890625 118.2578125 C-102.98006348 117.72816895 -102.06950195 117.19852539 -101.13134766 116.65283203 C-94.62474971 112.88756827 -88.15870915 109.15618323 -81.265625 106.1328125 C-80.5319873 105.80861328 -79.79834961 105.48441406 -79.04248047 105.15039062 C-58.25673425 96.2578125 -58.25673425 96.2578125 -47.890625 96.2578125 C-47.89950745 95.3404129 -47.90838989 94.42301331 -47.9175415 93.47781372 C-47.99795503 84.79845534 -48.05872487 76.11922352 -48.09787369 67.4395771 C-48.11867772 62.97811003 -48.1468626 58.51695284 -48.19238281 54.05566406 C-48.23609883 49.74382389 -48.25981603 45.43228027 -48.27013397 41.12023544 C-48.27747943 39.48171196 -48.2918226 37.84320323 -48.31354523 36.20480728 C-48.46006765 24.68717309 -47.84572439 14.62450983 -39.59375 5.7890625 C-28.99673947 -3.73852495 -12.95346121 -6.21592266 0 0 Z M-79.890625 182.2578125 C-81.16486328 183.41216797 -81.16486328 183.41216797 -82.46484375 184.58984375 C-97.7145399 199.04552816 -109.75613777 220.77271228 -111.06762695 242.1418457 C-111.44495496 261.64113465 -110.39893735 277.44508839 -101.890625 295.2578125 C-101.44976562 296.18078125 -101.00890625 297.10375 -100.5546875 298.0546875 C-89.54083954 319.59558351 -69.45773776 336.33152184 -46.61425781 344.02441406 C-21.08648372 352.00118662 5.15826231 350.38976166 28.984375 338.0078125 C36.03056846 334.17763127 42.22269691 329.72863421 48.109375 324.2578125 C48.98207031 323.4534375 49.85476563 322.6490625 50.75390625 321.8203125 C66.37128976 306.83511692 78.02768273 285.36115349 79.27050781 263.41210938 C79.6754574 235.10330791 74.74621516 210.9650938 55.109375 189.2578125 C53.95115234 187.97583984 53.95115234 187.97583984 52.76953125 186.66796875 C34.37792912 167.32250719 11.16549619 159.38256058 -14.890625 157.2578125 C-39.00337441 157.2578125 -62.19673132 165.8456812 -79.890625 182.2578125 Z " fill="#BB8C07" transform="translate(271.890625,2.7421875)"/>
</svg>
