<?xml version="1.0" encoding="UTF-8"?>
<svg version="1.1" xmlns="http://www.w3.org/2000/svg" width="512" height="512">
<path d="M0 0 C2.90686883 0.00917557 5.81293334 0.00228896 8.71972656 -0.02050781 C28.82652857 -0.17723251 48.63048944 0.03661504 67.43310547 8.13354492 C68.66081665 8.64510132 68.66081665 8.64510132 69.91333008 9.16699219 C91.33768093 18.37213153 111.96152201 34.3217058 124.12060547 54.44604492 C125.1009375 56.0296582 125.1009375 56.0296582 126.10107422 57.64526367 C139.39499888 79.64242768 144.218489 103.22651921 144.43310547 128.75854492 C144.45083008 130.04639893 144.46855469 131.33425293 144.48681641 132.66113281 C144.47789998 144.14474814 142.67743497 153.52146347 135.12060547 162.44604492 C128.35301261 168.98519583 121.05598179 171.54198082 111.74560547 171.88354492 C101.83002344 171.59462936 94.25854912 168.60939433 87.06591797 161.73901367 C81.7235203 155.44185015 79.02523507 148.33357857 78.94482422 140.15307617 C78.57917253 118.02338418 77.64607001 98.6832418 61.52685547 81.73120117 C46.16761093 67.14490563 27.15744679 65.07101341 6.87988281 65.18530273 C4.62261108 65.19603539 2.36613477 65.18532983 0.10888672 65.17260742 C-19.5566065 65.15210103 -36.75884581 67.84188361 -51.87939453 81.44604492 C-66.28556884 96.47441281 -69.04411192 113.8111545 -69.0131073 133.84222412 C-69.01650563 135.48203495 -69.01650563 135.48203495 -69.01997262 137.15497327 C-69.02626302 140.78944303 -69.02548647 144.42387503 -69.0246582 148.05834961 C-69.02765278 150.67599536 -69.031056 153.29364067 -69.03483582 155.9112854 C-69.0431089 162.26689975 -69.04588913 168.62250482 -69.04644819 174.97812411 C-69.04692491 180.14888227 -69.04898741 185.31963739 -69.05214882 190.49039459 C-69.060946 205.17987917 -69.06556962 219.86935647 -69.06481835 234.5588437 C-69.06475841 235.74437549 -69.06475841 235.74437549 -69.06469727 236.95385742 C-69.06463594 238.1408518 -69.06463594 238.1408518 -69.06457338 239.35182586 C-69.0641671 252.17059418 -69.0737346 264.9893331 -69.08783563 277.80809292 C-69.10223068 290.99915044 -69.10910411 304.19019364 -69.10824186 317.3812592 C-69.10791098 324.77545366 -69.11060981 332.16961729 -69.12141991 339.56380463 C-69.13152661 346.52091397 -69.13115772 353.47795742 -69.12390327 360.43507004 C-69.12286151 362.97984538 -69.12519594 365.52462484 -69.13126373 368.06939316 C-69.18274364 391.1660546 -68.95325712 412.15766152 -52.99267578 430.62963867 C-37.64270989 445.6287482 -17.8160539 447.63343585 2.54174805 447.63134766 C4.91782651 447.63353088 7.29343699 447.65173674 9.66943359 447.6706543 C29.9224928 447.74719248 46.92995131 444.49676601 62.33544922 430.42260742 C76.72713411 415.56132821 78.55020759 397.04641415 78.56005859 377.35424805 C78.7289476 365.94550421 80.9087116 357.82087144 88.82763672 349.42651367 C97.56065583 341.88368456 106.97843548 340.80065147 118.12060547 341.44604492 C126.21763331 342.76924737 133.00300107 347.35585454 137.94873047 353.84448242 C144.0963423 363.54338458 144.48315567 372.44602898 144.43310547 383.69604492 C144.43061798 384.36111053 144.42813049 385.02617615 144.42556763 385.71139526 C144.28197519 410.58421618 139.41378922 434.10936869 126.12060547 455.44604492 C125.76691895 456.01838867 125.41323242 456.59073242 125.04882812 457.18041992 C111.74599754 478.22792738 92.59917673 493.32336107 70.12060547 503.44604492 C69.06486328 503.92944336 68.00912109 504.4128418 66.92138672 504.91088867 C48.27558272 512.76552314 28.79388989 513.09478557 8.88452148 512.9675293 C5.27852475 512.94471813 1.67370757 512.95829792 -1.93224907 512.98129654 C-39.93809377 513.1869256 -70.83102554 503.85019918 -98.87939453 477.44604492 C-99.78431641 476.63780273 -99.78431641 476.63780273 -100.70751953 475.81323242 C-119.71453002 458.13848902 -132.57674997 429.13129591 -134.05035353 403.46883392 C-134.31464147 395.4681711 -134.29394475 387.46469047 -134.27156854 379.46064281 C-134.26470949 375.82321223 -134.27529281 372.18582293 -134.2835083 368.54840088 C-134.29677557 361.44379742 -134.29399939 354.3392896 -134.28527038 347.23468256 C-134.27846644 341.45525491 -134.27758876 335.67585386 -134.28084183 329.89642334 C-134.28130153 329.07060237 -134.28176123 328.24478141 -134.28223485 327.39393556 C-134.28319413 325.7157518 -134.28416677 324.03756804 -134.28515263 322.3593843 C-134.293686 306.66139821 -134.28390474 290.96346487 -134.26775153 275.26548743 C-134.25435022 261.82629791 -134.25667889 248.38718616 -134.27050781 234.94799805 C-134.28660004 219.30219304 -134.29286221 203.65643415 -134.28367102 188.01062202 C-134.28271548 186.33897019 -134.28177236 184.66731835 -134.28084183 182.9956665 C-134.280379 182.17340462 -134.27991617 181.35114274 -134.27943932 180.50396383 C-134.27686034 174.73845069 -134.28119674 168.97296706 -134.28828049 163.2074585 C-134.29673631 156.17124128 -134.29433025 149.13512432 -134.27843826 142.09891844 C-134.27061001 138.5160976 -134.26736954 134.9334433 -134.27738571 131.35062408 C-134.34827259 103.71939904 -134.34827259 103.71939904 -130.87939453 90.44604492 C-130.66743628 89.62771683 -130.45547802 88.80938873 -130.23709679 87.96626282 C-121.46240426 57.3571414 -100.78825968 31.51140347 -73.29345703 15.77807617 C-49.51100285 2.60339751 -26.73890488 -0.0884672 0 0 Z " fill="#BB8C07" transform="translate(133.87939453125,-0.446044921875)"/>
<path d="M0 0 C7.07055475 5.23000117 13.38944046 11.09618019 19.58959961 17.31494141 C20.49022629 18.21045715 21.39085297 19.1059729 22.31877136 20.02862549 C24.76158412 22.45819207 27.19810391 24.89397338 29.63302684 27.33144426 C31.68091636 29.38041389 33.7317985 31.42637574 35.78260905 33.47242105 C40.63011409 38.30887942 45.47233344 43.15058468 50.3112793 47.99560547 C55.268333 52.95868762 60.23447091 57.91254333 65.20518488 62.86194098 C69.50314844 67.14216387 73.79514781 71.42830621 78.08263212 75.71902597 C80.62982673 78.26801471 83.17908085 80.81484258 85.73420525 83.35588455 C107.93609422 105.44626367 125.61535403 125.11563241 126.02294922 157.92333984 C125.64913927 191.74916334 101.28858857 211.87987978 79.33203125 233.90625 C78.2378773 235.00446181 77.14375307 236.10270322 76.04965782 237.20097351 C70.91682431 242.35275842 65.78165118 247.50219689 60.64353257 252.64871073 C54.74109308 258.56096024 48.84707093 264.48144166 42.95987493 270.40886927 C38.38317343 275.01575945 33.79879468 279.6149191 29.20862979 284.20839453 C26.47720996 286.94215648 23.74914718 289.67907498 21.02921486 292.42427063 C18.47615197 295.00067564 15.91365763 297.56731719 13.34377861 300.1269455 C11.96222967 301.50776678 10.59056981 302.89846058 9.21929932 304.28948975 C0.72781819 312.71048412 -6.72180472 316.30256213 -18.73828125 316.31469727 C-27.66164287 316.14517747 -34.62044918 313.33844316 -41.17578125 307.1953125 C-47.09398018 300.0731973 -50.38485415 291.48674092 -50.2109375 282.234375 C-49.07651272 270.21787543 -42.02186945 261.54371675 -33.70947266 253.36889648 C-33.00633942 252.66532516 -32.30320618 251.96175385 -31.57876587 251.23686218 C-29.28091205 248.94107817 -26.9726587 246.65607067 -24.6640625 244.37109375 C-23.05772381 242.77035744 -21.45205149 241.16895218 -19.84701538 239.56690979 C-15.64180908 235.37310165 -11.427669 231.18838545 -7.21154785 227.0055542 C-2.90248331 222.72729919 1.3979929 218.44043004 5.69921875 214.15429688 C14.12447067 205.76112032 22.5591941 197.37753213 31 189 C30.43633761 188.99940291 29.87267523 188.99880582 29.29193217 188.99819064 C-4.12719647 188.96228419 -37.54621806 188.90562606 -70.96526047 188.82207905 C-74.97936274 188.81206178 -78.99346541 188.80221762 -83.00756836 188.79248047 C-83.80669232 188.7905391 -84.60581629 188.78859772 -85.42915613 188.78659752 C-98.36259134 188.75558998 -111.29600881 188.73860035 -124.22947418 188.72680578 C-137.50382387 188.71438775 -150.77808058 188.68687166 -164.05237156 188.64538693 C-172.24106275 188.62027014 -180.4295997 188.60688139 -188.61832995 188.60857043 C-194.23628988 188.60860022 -199.85409289 188.59394338 -205.47199165 188.56783572 C-208.7116247 188.55321105 -211.95087204 188.54714781 -215.19054031 188.55419731 C-218.70850113 188.56083248 -222.22552631 188.54292607 -225.74339294 188.51898193 C-227.2682308 188.53062256 -227.2682308 188.53062256 -228.82387346 188.54249835 C-238.30928652 188.42837476 -245.2876425 185.3663764 -252.2109375 178.92578125 C-259.43274373 171.15209026 -261.49589504 163.00589913 -261.30859375 152.5390625 C-260.45337095 142.73106429 -255.5545658 135.74553122 -248.203125 129.46484375 C-241.65727314 124.49752696 -235.20881673 123.65495686 -227.18673706 123.38783264 C-226.22258436 123.35033466 -225.25843166 123.31283669 -224.26506221 123.27420241 C-212.85009563 122.86597891 -201.43318255 122.82396951 -190.01220703 122.79467773 C-187.595198 122.78506988 -185.17819054 122.77505824 -182.76118469 122.76467896 C-176.94218604 122.74069609 -171.12318449 122.72084223 -165.30416425 122.70292621 C-158.5192259 122.68180462 -151.7343109 122.65541354 -144.94939242 122.62875474 C-132.85461964 122.581369 -120.75983601 122.5380285 -108.66503906 122.49731445 C-96.93228312 122.45781028 -85.19953672 122.41634963 -73.46679688 122.37231445 C-72.74076288 122.36959018 -72.01472888 122.36686591 -71.26669385 122.36405908 C-67.62355023 122.35037716 -63.98040675 122.33665737 -60.33726335 122.32291877 C-30.22486222 122.20941118 -0.11244049 122.10257209 30 122 C29.09877411 121.11209778 28.19754822 120.22419556 27.26901245 119.30938721 C18.74907491 110.91144543 10.24530365 102.49742745 1.75681877 94.0676918 C-2.60699661 89.7350961 -6.97617557 85.40822105 -11.35839844 81.09423828 C-15.59275701 76.92540266 -19.81199145 72.7417849 -24.02145004 68.54781342 C-25.6244272 66.95586333 -27.23264835 65.36917449 -28.84631729 63.78806305 C-49.19792231 43.83064599 -49.19792231 43.83064599 -50.25 28.3125 C-50.08419947 19.4919118 -46.66692262 11.6775025 -41 5 C-30.19847314 -5.24244162 -12.89558323 -8.25180757 0 0 Z " fill="#BA8C07" transform="translate(378,100)"/>
</svg>
