<?xml version="1.0" encoding="UTF-8"?>
<svg version="1.1" xmlns="http://www.w3.org/2000/svg" width="512" height="512">
<path d="M0 0 C4.00823668 4.51751852 5.45860743 9.25095913 5.91015625 15.12109375 C5.35764743 23.40872608 1.81029161 29.29892291 -4.33984375 34.87109375 C-4.99984375 34.87109375 -5.65984375 34.87109375 -6.33984375 34.87109375 C-6.61570313 35.47179688 -6.8915625 36.0725 -7.17578125 36.69140625 C-8.33984375 38.87109375 -8.33984375 38.87109375 -10.96484375 41.74609375 C-22.88372585 55.43827295 -28.94501526 74.35196213 -32.33984375 91.87109375 C-32.4908252 92.64662598 -32.64180664 93.4221582 -32.79736328 94.22119141 C-40.46833444 136.28326949 -39.25768614 189.94982413 -15.4765625 226.8671875 C-12.12562514 231.5781031 -8.42048149 235.78320798 -4.33984375 239.87109375 C-3.42138672 240.80695313 -3.42138672 240.80695313 -2.484375 241.76171875 C22.20635398 265.13631079 61.80788347 267.31834187 93.84765625 267.18359375 C95.1768811 267.18135803 95.1768811 267.18135803 96.53295898 267.17907715 C131.20638749 267.07477977 167.77955027 262.95611671 194.66015625 238.87109375 C196.40109344 237.11183091 198.13021199 235.34079836 199.84765625 233.55859375 C205.38072181 227.96538618 209.1051994 225.81784648 217.09765625 225.43359375 C223.35677242 225.63937291 227.83160154 227.2126303 232.4140625 231.51953125 C237.82616874 237.49240995 239.11678885 242.6631887 238.97265625 250.64453125 C235.81867021 304.23601071 209.31192903 354.71308373 172.66015625 392.87109375 C171.37625 394.216875 171.37625 394.216875 170.06640625 395.58984375 C164.29420227 401.50817947 158.19361191 406.81020452 151.66015625 411.87109375 C151.12326172 412.2897168 150.58636719 412.70833984 150.03320312 413.13964844 C100.71186217 451.33395897 37.34320545 468.88547674 -24.62109375 461.12109375 C-51.95728732 457.38564997 -78.98106129 450.11773325 -103.35058594 436.94384766 C-105.45400546 435.80952937 -107.5721858 434.70604374 -109.69140625 433.6015625 C-138.9925231 418.08621417 -166.00495456 394.83089504 -185.33984375 367.87109375 C-186.11328125 366.80761719 -186.88671875 365.74414062 -187.68359375 364.6484375 C-210.99864196 331.79178565 -225.20954619 294.79328078 -230.33984375 254.87109375 C-230.48123779 253.91372314 -230.48123779 253.91372314 -230.62548828 252.93701172 C-238.63056329 193.14955527 -219.36064066 130.79387829 -183.18847656 83.2902832 C-177.32659421 75.76343101 -170.94500731 68.74770239 -164.33984375 61.87109375 C-163.48390625 60.97390625 -162.62796875 60.07671875 -161.74609375 59.15234375 C-155.97432586 53.23445515 -149.87522093 47.92883397 -143.33984375 42.87109375 C-142.5185498 42.23518311 -142.5185498 42.23518311 -141.68066406 41.58642578 C-108.12309574 15.80117466 -69.076846 -0.59869013 -27.08984375 -6.06640625 C-25.53632202 -6.27777222 -25.53632202 -6.27777222 -23.95141602 -6.4934082 C-14.23387373 -7.62739805 -7.22311717 -6.90719554 0 0 Z M-78.02734375 53.74609375 C-78.87369385 54.14957031 -79.72004395 54.55304688 -80.59204102 54.96875 C-125.61100768 76.89014963 -160.038978 116.08011592 -177.33984375 162.87109375 C-180.13090799 171.08993604 -182.36576779 179.42210637 -184.33984375 187.87109375 C-184.53191406 188.6688623 -184.72398437 189.46663086 -184.921875 190.28857422 C-187.71940443 202.50641028 -187.64188663 214.96426323 -187.71484375 227.43359375 C-187.72297089 228.25208801 -187.73109802 229.07058228 -187.73947144 229.91387939 C-187.85350066 245.26455843 -186.22798567 260.40501175 -182.15234375 275.24609375 C-181.83934326 276.39779053 -181.83934326 276.39779053 -181.52001953 277.57275391 C-169.72729088 319.34813743 -144.47740669 356.29891747 -109.33984375 381.87109375 C-108.7763623 382.28423828 -108.21288086 382.69738281 -107.63232422 383.12304688 C-83.31624877 400.72378517 -54.98290703 412.2192497 -25.33984375 416.87109375 C-24.26210693 417.0424585 -24.26210693 417.0424585 -23.16259766 417.21728516 C26.71995952 424.76508298 78.28254426 411.16224532 118.78515625 381.49609375 C132.21792115 371.16037833 144.14943526 360.19529056 154.66015625 346.87109375 C155.77777344 345.46150391 155.77777344 345.46150391 156.91796875 344.0234375 C164.84593569 333.7612782 171.30240597 322.79388776 177.16015625 311.24609375 C177.49861572 310.58319336 177.8370752 309.92029297 178.18579102 309.23730469 C179.8835478 305.80751076 181.13591951 302.67181012 181.66015625 298.87109375 C176.40344308 299.98883371 171.20956672 301.23551097 166.03125 302.67260742 C110.77390293 317.89525855 39.74553705 317.02068661 -11.33984375 288.87109375 C-42.69020831 270.82655556 -61.73706307 241.25652598 -71.50390625 207.01855469 C-84.26470716 158.97175407 -83.49165647 103.05091749 -67.94067383 55.79614258 C-67.32884874 53.83586595 -66.81900304 51.86754444 -66.33984375 49.87109375 C-70.77216981 49.87109375 -74.07199774 51.85892541 -78.02734375 53.74609375 Z " fill="#BA8C07" transform="translate(252.33984375,28.12890625)"/>
</svg>
