<?xml version="1.0" encoding="UTF-8"?>
<svg version="1.1" xmlns="http://www.w3.org/2000/svg" width="512" height="512">
<path d="M0 0 C1.1088707 -0.01058945 1.1088707 -0.01058945 2.24014282 -0.02139282 C32.97641168 -0.24840581 32.97641168 -0.24840581 45.9765625 3.203125 C47.16427246 3.50911621 47.16427246 3.50911621 48.37597656 3.82128906 C83.10816259 12.97395949 115.21536638 32.22805251 136.9765625 61.203125 C137.76289063 62.21246094 138.54921875 63.22179687 139.359375 64.26171875 C159.14773161 90.23637619 170.01001156 122.52218225 170.2890625 155.078125 C170.31806641 156.19832031 170.34707031 157.31851563 170.37695312 158.47265625 C170.45086351 168.21745642 168.46280581 176.40914226 161.6796875 183.671875 C153.45612365 191.06553791 144.74210615 192.78502567 133.96484375 192.515625 C125.57914919 192.04129865 118.5736255 188.42842977 112.9765625 182.203125 C108.37386664 176.0825188 105.94623533 169.98357289 105.30078125 162.30859375 C105.19813965 161.19661621 105.09549805 160.08463867 104.98974609 158.93896484 C104.82853271 157.18253662 104.82853271 157.18253662 104.6640625 155.390625 C102.3097397 132.70269011 95.74611111 113.24085409 79.9765625 96.203125 C79.28046875 95.42710937 78.584375 94.65109375 77.8671875 93.8515625 C60.42150061 75.32347898 36.03165986 66.3753917 10.9765625 65.203125 C-4.0899719 65.06793177 -18.46023846 68.72461373 -32.0234375 75.203125 C-32.94640625 75.64398438 -33.869375 76.08484375 -34.8203125 76.5390625 C-55.94897789 87.34213718 -72.02182598 106.81201825 -79.69189453 129.14990234 C-81.98306121 136.35719072 -83.93527583 143.58966643 -84.41796875 151.15234375 C-84.48693359 152.08369141 -84.55589844 153.01503906 -84.62695312 153.97460938 C-84.76482551 155.89838017 -84.89265148 157.82290086 -85.00976562 159.74804688 C-85.77327275 169.57904566 -88.51996767 178.45688607 -96.0234375 185.203125 C-105.22188769 192.12035955 -114.80710995 193.34619023 -126.0234375 192.203125 C-134.59838309 190.25074412 -141.04219162 185.50522628 -145.8359375 178.203125 C-150.23180687 171.00170077 -150.37740531 164.18626312 -150.3359375 155.953125 C-150.33029785 154.79087402 -150.3246582 153.62862305 -150.31884766 152.43115234 C-149.7430658 111.1857886 -130.32844475 72.61329871 -101.56542969 43.70166016 C-97.62716869 39.87438878 -93.40978711 36.49741233 -89.0234375 33.203125 C-88.01410156 32.41679687 -87.00476563 31.63046875 -85.96484375 30.8203125 C-61.88728195 12.47722635 -30.45598946 0.19452021 0 0 Z " fill="#BB8C07" transform="translate(150.0234375,319.796875)"/>
<path d="M0 0 C1.44868492 1.1949007 2.88597446 2.40372993 4.3125 3.625 C5.11171875 4.27984375 5.9109375 4.9346875 6.734375 5.609375 C24.26972524 20.53075998 34.41655735 41.09872605 38.3125 63.625 C40.01511692 91.21443942 35.91206167 117.20957294 17.62109375 139.02734375 C1.36648494 157.31721661 -17.26899551 169.31382336 -41.6875 173.625 C-43.5746875 173.9653125 -43.5746875 173.9653125 -45.5 174.3125 C-70.78414068 176.79859751 -96.48807813 170.61117249 -116.8359375 155.03515625 C-136.54737876 138.37493809 -149.87111419 117.61789727 -153.6875 91.625 C-155.47598766 61.49700025 -149.96105914 36.84212587 -130.125 13.3203125 C-97.33323891 -22.93980794 -39.53979823 -29.96700497 0 0 Z M-83.22265625 59.421875 C-89.23545431 67.34544563 -89.76767263 75.92290888 -88.6875 85.625 C-85.86127438 94.87739641 -80.13435866 101.94475733 -71.73046875 106.7421875 C-63.29407643 110.60197484 -54.82603004 110.50845914 -46.14453125 107.66796875 C-37.58943203 104.03647194 -30.96011844 96.92343877 -27.41796875 88.37890625 C-25.2826749 80.32873425 -25.37268841 71.04838581 -29.36328125 63.61328125 C-34.77498877 55.4877381 -41.8661625 48.70259063 -51.6875 46.625 C-64.98498085 45.3686973 -74.56183852 49.28453109 -83.22265625 59.421875 Z " fill="#BA8C07" transform="translate(217.6875,103.375)"/>
<path d="M0 0 C2.61291934 2.00604775 5.08399652 4.10885521 7.546875 6.296875 C8.30121826 6.95937256 8.30121826 6.95937256 9.07080078 7.63525391 C26.74316898 23.39360839 38.08720569 45.27220626 40.41796875 68.9765625 C41.96495131 96.82224856 34.85687047 122.68940293 16.10107422 143.93457031 C0.41437095 161.22154807 -21.73239868 174.07334294 -45.45068359 175.47387695 C-73.24956558 176.01451847 -73.24956558 176.01451847 -86.453125 171.296875 C-87.08992188 171.07725098 -87.72671875 170.85762695 -88.3828125 170.63134766 C-111.93624962 162.40975511 -131.2300853 145.71219301 -142.42675781 123.35253906 C-153.56472613 100.23705708 -156.7159424 72.93109416 -148.12890625 48.3671875 C-138.42080777 22.2778953 -120.99231339 2.70933876 -95.83203125 -9.23828125 C-64.72131479 -22.72558608 -27.9286029 -19.38992176 0 0 Z M-78.703125 57.046875 C-85.76652907 64.48495866 -87.84920986 72.05119926 -87.7265625 82.1328125 C-86.89851251 91.7145338 -81.80682493 98.7229531 -74.65625 104.83203125 C-68.32277571 109.63818541 -60.98943071 111.77984836 -53.03515625 111.0859375 C-42.21923043 109.30843651 -34.88037567 104.09842768 -28.453125 95.296875 C-23.96860819 87.50716068 -23.33544651 78.88501441 -25.578125 70.296875 C-28.28365322 62.02786623 -33.90487613 55.35512764 -41.55078125 51.140625 C-54.57561921 44.88512821 -68.13948388 47.10691749 -78.703125 57.046875 Z " fill="#BA8C07" transform="translate(429.453125,16.703125)"/>
<path d="M0 0 C2.99478936 2.67767751 5.88947189 5.44992868 8.78125 8.23828125 C9.93173828 9.29402344 9.93173828 9.29402344 11.10546875 10.37109375 C36.01433019 33.89364513 51.91988376 69.97757114 53.01953125 104.13671875 C53.04980687 106.29550238 53.07442802 108.4543718 53.09375 110.61328125 C53.12275391 111.68578125 53.15175781 112.75828125 53.18164062 113.86328125 C53.25745832 123.45130302 51.14838492 131.57182871 44.484375 138.70703125 C36.26081115 146.10069416 27.54679365 147.82018192 16.76953125 147.55078125 C8.38383669 147.0764549 1.378313 143.46358602 -4.21875 137.23828125 C-9.88998567 129.69674445 -11.43659603 122.55187249 -12.09375 113.30078125 C-14.21702527 88.07732069 -24.18560607 65.85018488 -43.58203125 49.2109375 C-62.15114659 35.44794613 -85.18536064 28.71175443 -108.22265625 31.69921875 C-123.43631179 34.04950726 -136.39580274 40.03082373 -148.80078125 49.1328125 C-157.96040271 55.81610005 -165.75508276 58.50222405 -177.21875 57.23828125 C-185.96991427 55.44500988 -192.47025103 51.0225458 -198.21875 44.23828125 C-203.92226936 35.12576181 -205.20009847 26.35513892 -203.00390625 15.94140625 C-199.70286746 4.57663589 -191.37144948 -2.43071754 -181.78125 -8.69921875 C-180.9970166 -9.21500488 -180.2127832 -9.73079102 -179.40478516 -10.26220703 C-124.91455383 -45.45861627 -49.72230872 -43.35505708 0 0 Z " fill="#BB8C07" transform="translate(459.21875,268.76171875)"/>
</svg>
