<?xml version="1.0" standalone="no"?>
<!DOCTYPE svg PUBLIC "-//W3C//DTD SVG 20010904//EN"
 "http://www.w3.org/TR/2001/REC-SVG-20010904/DTD/svg10.dtd">
<svg version="1.0" xmlns="http://www.w3.org/2000/svg"
 width="512.000000pt" height="512.000000pt" viewBox="0 0 512.000000 512.000000"
 preserveAspectRatio="xMidYMid meet">

<g transform="translate(0.000000,512.000000) scale(0.100000,-0.100000)"
fill="#000000" stroke="none">
<path d="M950 5109 c-462 -55 -829 -388 -925 -840 -71 -333 30 -691 266 -943
126 -135 291 -237 472 -291 l97 -29 0 -91 c0 -287 67 -610 186 -904 55 -136
60 -165 31 -201 -7 -9 -193 -141 -415 -294 -477 -331 -518 -368 -597 -540
-101 -218 -79 -447 61 -637 45 -61 221 -220 282 -254 186 -105 386 -108 587
-10 146 71 171 99 491 558 159 226 301 424 315 440 41 41 86 37 202 -18 182
-87 425 -155 657 -185 280 -37 734 22 1035 135 740 278 1275 948 1401 1755 26
162 26 494 1 644 -112 666 -506 1204 -1097 1497 -145 72 -219 100 -367 143
-193 55 -285 68 -528 73 -249 6 -378 -7 -571 -57 -205 -53 -436 -152 -597
-256 -37 -24 -69 -44 -72 -44 -2 0 -28 23 -57 52 -226 220 -553 334 -858 297z
m241 -649 c120 -37 212 -118 266 -236 38 -84 44 -212 13 -304 -45 -133 -137
-225 -271 -270 -91 -31 -219 -25 -303 13 -118 54 -199 146 -236 266 -101 324
207 632 531 531z m2116 -5 c306 -53 609 -212 812 -428 156 -166 282 -415 337
-668 29 -129 26 -436 -5 -579 -132 -618 -559 -1076 -1142 -1228 l-36 -10 -809
810 -809 809 40 31 c94 73 231 224 282 312 104 177 157 370 151 553 l-3 101
30 23 c67 53 243 151 340 188 121 48 275 87 395 100 107 12 302 5 417 -14z"/>
</g>
</svg>
