<?xml version="1.0" encoding="UTF-8"?>
<svg version="1.1" xmlns="http://www.w3.org/2000/svg" width="512" height="512">
<path d="M0 0 C22.03852652 18.81159856 36.46579334 41.06373377 44.3515625 68.91015625 C44.69316406 70.08835937 45.03476562 71.2665625 45.38671875 72.48046875 C52.92056498 104.36791093 46.53869956 140.38566089 29.7109375 168.21484375 C11.42243893 197.30470432 -15.82417005 216.61472176 -48.6484375 225.91015625 C-49.82664062 226.25175781 -51.00484375 226.59335938 -52.21875 226.9453125 C-83.9379151 234.43940096 -118.68415199 227.95315905 -146.6484375 211.91015625 C-155.34793487 206.41004136 -163.21692639 200.02516348 -170.6484375 192.91015625 C-171.76798828 191.88535156 -171.76798828 191.88535156 -172.91015625 190.83984375 C-179.53080708 184.57737821 -184.62807086 177.46667363 -189.6484375 169.91015625 C-190.2775 168.976875 -190.9065625 168.04359375 -191.5546875 167.08203125 C-208.8095122 139.63117378 -213.65932205 103.21223431 -206.5534668 71.73925781 C-198.10507566 38.48187509 -178.2041093 9.11316658 -148.63964844 -8.91552734 C-137.21699833 -15.65203384 -125.40120754 -20.47841392 -112.6484375 -24.08984375 C-111.47023438 -24.43144531 -110.29203125 -24.77304687 -109.078125 -25.125 C-71.91216204 -33.90596927 -29.43835184 -24.14652242 0 0 Z M-122.6484375 52.91015625 C-123.36515625 53.51472656 -124.081875 54.11929688 -124.8203125 54.7421875 C-135.02698541 64.13786508 -142.78556691 78.30365414 -143.82543945 92.29101562 C-144.11269891 103.83632817 -144.31628633 114.15114731 -139.6484375 124.91015625 C-139.28621094 125.78542969 -138.92398438 126.66070312 -138.55078125 127.5625 C-131.51529158 143.04057728 -118.16685517 154.74864399 -102.5859375 161.16015625 C-85.56175484 166.87490304 -67.53460181 165.71515447 -51.40771484 157.84912109 C-35.93954286 149.59341898 -25.12811813 135.78671232 -19.41015625 119.453125 C-15.39242742 106.04009184 -16.08970589 89.72257698 -21.6484375 76.91015625 C-22.19177734 75.59724609 -22.19177734 75.59724609 -22.74609375 74.2578125 C-29.32160439 59.7916891 -41.42233872 48.67141429 -55.6484375 41.91015625 C-79.15899457 33.14350785 -103.44351771 36.64792578 -122.6484375 52.91015625 Z " fill="#BB8C07" transform="translate(336.6484375,27.08984375)"/>
<path d="M0 0 C3.33925054 2.90967767 6.54957507 5.93735268 9.70947266 9.04003906 C11.12111052 10.41792139 12.56200144 11.76563971 14.00390625 13.11181641 C38.7978151 36.7739063 53.81626324 69.13414083 60.1796875 102.47509766 C60.54707031 104.32748047 60.54707031 104.32748047 60.921875 106.21728516 C62.32172939 114.98075713 62.42939086 123.82967381 62.52914429 132.68685913 C62.54596361 134.11127657 62.56846122 135.53564008 62.59707642 136.95986938 C62.80816881 148.78993359 61.37016749 157.90944575 53.0390625 166.72119141 C44.93885838 174.36193017 37.12619606 176.06628536 26.1640625 175.78369141 C17.10360238 175.08194989 10.17868719 171.27574542 4.1796875 164.47509766 C-2.29639313 155.16470184 -3.07050509 146.60631879 -3.2578125 135.53759766 C-4.13633307 104.84057339 -13.98931705 76.86080308 -36.66015625 55.36181641 C-58.66024035 36.14655308 -86.35821004 25.77054532 -115.65332031 27.31542969 C-138.33335968 28.98653669 -159.68757516 38.78547629 -176.8203125 53.47509766 C-177.43132812 53.95333984 -178.04234375 54.43158203 -178.671875 54.92431641 C-198.81696525 70.9759979 -210.70724261 98.38979204 -213.8203125 123.47509766 C-214.15892339 128.74465294 -214.23106607 134.01642312 -214.29882812 139.29541016 C-214.5841218 150.54015606 -216.73973444 159.33224154 -224.8203125 167.47509766 C-234.4277773 175.27802993 -243.8313937 176.41938937 -255.8203125 175.47509766 C-264.19566574 173.49676103 -271.05424232 167.50990673 -275.6953125 160.41259766 C-280.2925431 152.8094855 -280.2067049 145.30074721 -280.1953125 136.66259766 C-280.19499527 135.67158554 -280.19499527 135.67158554 -280.19467163 134.66055298 C-280.05274284 89.9610557 -262.77756088 47.70108572 -231.8203125 15.47509766 C-231.36108398 14.98477051 -230.90185547 14.49444336 -230.42871094 13.98925781 C-170.75893795 -49.56862415 -66.96056809 -56.09384499 0 0 Z " fill="#BB8C07" transform="translate(364.8203125,336.52490234375)"/>
</svg>
