<?xml version="1.0" encoding="UTF-8"?>
<svg version="1.1" xmlns="http://www.w3.org/2000/svg" width="736" height="736">
<path d="M0 0 C242.88 0 485.76 0 736 0 C736 242.88 736 485.76 736 736 C493.12 736 250.24 736 0 736 C0 493.12 0 250.24 0 0 Z " fill="#505050" transform="translate(0,0)"/>
<path d="M0 0 C0.95716919 -0.0033284 1.91433838 -0.0066568 2.9005127 -0.01008606 C4.90714035 -0.01510733 6.91377622 -0.01749589 8.92041016 -0.01733398 C11.96140433 -0.01952596 15.00203819 -0.03774829 18.04296875 -0.05664062 C20.00781128 -0.05957463 21.9726555 -0.06155938 23.9375 -0.0625 C24.83053833 -0.06968552 25.72357666 -0.07687103 26.64367676 -0.08427429 C32.98549484 -0.06170725 39.35331957 0.37744986 45.46875 2.16796875 C45.79875 2.82796875 46.12875 3.48796875 46.46875 4.16796875 C48.75308427 4.5252523 48.75308427 4.5252523 51.46875 4.60546875 C55.98361481 4.94162043 59.72541565 5.72752403 63.95703125 7.27734375 C71.05798753 9.79525671 78.39879931 11.79763982 85.78125 13.29296875 C86.998125 13.58171875 88.215 13.87046875 89.46875 14.16796875 C89.79875 14.82796875 90.12875 15.48796875 90.46875 16.16796875 C92.10964653 16.83897822 93.78345281 17.43040647 95.46875 17.98046875 C100.10325907 19.58933977 104.18124007 21.54282927 108.41015625 24.0078125 C111.33788358 25.65778407 114.36535718 26.87976796 117.46875 28.16796875 C119.4759958 29.15334396 121.47855253 30.14859932 123.46875 31.16796875 C123.46875 31.82796875 123.46875 32.48796875 123.46875 33.16796875 C124.78875 33.49796875 126.10875 33.82796875 127.46875 34.16796875 C127.46875 34.82796875 127.46875 35.48796875 127.46875 36.16796875 C127.984375 36.25046875 128.5 36.33296875 129.03125 36.41796875 C132.47387783 37.47723885 135.39222047 39.34007254 138.46875 41.16796875 C139.69721082 41.85672921 140.92635981 42.54426392 142.15625 43.23046875 C147.23089834 46.19865929 147.23089834 46.19865929 149.46875 48.16796875 C149.46875 48.82796875 149.46875 49.48796875 149.46875 50.16796875 C150.066875 50.43609375 150.665 50.70421875 151.28125 50.98046875 C153.47929464 52.17369298 154.71553871 53.41475746 156.46875 55.16796875 C157.20480469 55.58820312 157.94085937 56.0084375 158.69921875 56.44140625 C161.8987711 58.4360496 164.59576784 60.79770102 167.34375 63.35546875 C168.1337439 64.08358765 168.1337439 64.08358765 168.93969727 64.82641602 C172.55049303 68.19734345 175.84323127 71.73440983 179.01171875 75.52734375 C180.57144358 77.37820575 180.57144358 77.37820575 183.21875 79.35546875 C185.71889812 81.36947695 186.84339997 83.43442552 188.46875 86.16796875 C189.45875 86.49796875 190.44875 86.82796875 191.46875 87.16796875 C191.46875 87.82796875 191.46875 88.48796875 191.46875 89.16796875 C192.12875 89.16796875 192.78875 89.16796875 193.46875 89.16796875 C194.52464069 90.79979982 195.5123626 92.47589874 196.46875 94.16796875 C198.51168499 97.3685669 200.59245766 100.31581449 203.03125 103.23046875 C205.46875 106.16796875 205.46875 106.16796875 207.03125 108.79296875 C208.36778829 111.24240154 208.36778829 111.24240154 210.46875 113.04296875 C212.46875 115.16796875 212.46875 115.16796875 213.90625 118.54296875 C215.18531078 121.51038976 215.99529991 122.98317742 218.03125 125.29296875 C220.37558227 128.0580786 221.18034516 129.86251064 222.46875 133.16796875 C224.00924732 136.05340803 225.61624533 138.8952392 227.2265625 141.7421875 C228.46875 144.16796875 228.46875 144.16796875 228.46875 146.16796875 C229.12875 146.16796875 229.78875 146.16796875 230.46875 146.16796875 C231.57550619 148.35419125 232.67919378 150.54187823 233.78125 152.73046875 C234.2443457 153.6440918 234.2443457 153.6440918 234.71679688 154.57617188 C238.35603296 161.8163363 240.981615 168.76327491 242.72265625 176.69140625 C243.09197266 177.91730469 243.09197266 177.91730469 243.46875 179.16796875 C244.12875 179.49796875 244.78875 179.82796875 245.46875 180.16796875 C246.46875 182.4609375 246.46875 182.4609375 247.46875 185.35546875 C247.79875 186.29777344 248.12875 187.24007812 248.46875 188.2109375 C248.79875 189.18675781 249.12875 190.16257812 249.46875 191.16796875 C249.78714844 192.10769531 250.10554688 193.04742188 250.43359375 194.015625 C256.98262137 213.95926762 256.98262137 213.95926762 257.46875 224.16796875 C264.06875 224.16796875 270.66875 224.16796875 277.46875 224.16796875 C277.13875 224.82796875 276.80875 225.48796875 276.46875 226.16796875 C104.20875 226.16796875 -68.05125 226.16796875 -245.53125 226.16796875 C-245.53125 225.50796875 -245.53125 224.84796875 -245.53125 224.16796875 C-242.56125 223.83796875 -239.59125 223.50796875 -236.53125 223.16796875 C-236.20125 220.19796875 -235.87125 217.22796875 -235.53125 214.16796875 C-234.87125 214.16796875 -234.21125 214.16796875 -233.53125 214.16796875 C-232.87125 208.22796875 -232.21125 202.28796875 -231.53125 196.16796875 C-230.87125 196.16796875 -230.21125 196.16796875 -229.53125 196.16796875 C-229.41265625 195.14960937 -229.2940625 194.13125 -229.171875 193.08203125 C-228.55575158 189.31766743 -227.60220265 186.11288508 -226.28125 182.54296875 C-225.61416016 180.73699219 -225.61416016 180.73699219 -224.93359375 178.89453125 C-224.47082031 177.66476562 -224.00804687 176.435 -223.53125 175.16796875 C-222.85255859 173.32332031 -222.85255859 173.32332031 -222.16015625 171.44140625 C-218.79341814 162.43013689 -218.79341814 162.43013689 -216.53125 160.16796875 C-215.89358239 158.26796517 -215.89358239 158.26796517 -215.46875 156.16796875 C-214.97669792 153.95576768 -214.54799863 152.20146602 -213.53125 150.16796875 C-212.87125 150.16796875 -212.21125 150.16796875 -211.53125 150.16796875 C-211.33789062 149.58789062 -211.14453125 149.0078125 -210.9453125 148.41015625 C-209.47395833 143.99609375 -208.00260417 139.58203125 -206.53125 135.16796875 C-205.87125 135.16796875 -205.21125 135.16796875 -204.53125 135.16796875 C-203.87125 133.51796875 -203.21125 131.86796875 -202.53125 130.16796875 C-201.87125 130.16796875 -201.21125 130.16796875 -200.53125 130.16796875 C-200.44875 129.50796875 -200.36625 128.84796875 -200.28125 128.16796875 C-198.34571244 120.42581853 -193.45911113 112.38782131 -188.53125 106.16796875 C-187.54125 106.16796875 -186.55125 106.16796875 -185.53125 106.16796875 C-185.263125 105.28109375 -184.995 104.39421875 -184.71875 103.48046875 C-183.6061865 100.37700215 -182.42929222 97.8568619 -180.53125 95.16796875 C-179.87125 95.16796875 -179.21125 95.16796875 -178.53125 95.16796875 C-178.16386719 94.34232422 -178.16386719 94.34232422 -177.7890625 93.5 C-173.84065612 86.17950743 -167.72586355 80.0523407 -161.375 74.78515625 C-158.95122613 72.659219 -156.95614701 70.28149631 -154.90234375 67.8046875 C-151.74815131 64.03942644 -148.88768862 61.34618806 -144.53125 59.16796875 C-141.97715603 56.80543183 -139.7619541 54.4861813 -137.71875 51.66796875 C-135.27665443 48.87700239 -132.85494287 47.36028859 -129.68359375 45.5 C-127.43542724 44.10866646 -125.41527415 42.55874119 -123.34375 40.91796875 C-120.45274615 38.69411963 -118.27454669 37.40192479 -114.53125 37.16796875 C-114.20125 36.17796875 -113.87125 35.18796875 -113.53125 34.16796875 C-111.23496812 32.75168135 -108.99490111 31.50353824 -106.59375 30.29296875 C-105.91368896 29.94145752 -105.23362793 29.58994629 -104.53295898 29.2277832 C-103.16621743 28.52347889 -101.79717502 27.82362021 -100.42578125 27.12841797 C-98.80994346 26.30925484 -97.20108297 25.47635265 -95.59375 24.640625 C-90.66425599 22.10655698 -85.73199412 20.07490826 -80.53125 18.16796875 C-78.53016068 17.17015037 -76.530252 16.16996227 -74.53125 15.16796875 C-64.61611631 10.73722781 -53.51818859 7.16796875 -42.53125 7.16796875 C-42.53125 6.50796875 -42.53125 5.84796875 -42.53125 5.16796875 C-39.26220161 4.51288441 -35.99073917 3.8706887 -32.71875 3.23046875 C-31.80931641 3.04806641 -30.89988281 2.86566406 -29.96289062 2.67773438 C-29.05087891 2.50048828 -28.13886719 2.32324219 -27.19921875 2.140625 C-25.96594849 1.89711304 -25.96594849 1.89711304 -24.70776367 1.64868164 C-16.49339608 0.40557275 -8.29858317 0.01034094 0 0 Z " fill="#000000" transform="translate(354.53125,509.83203125)"/>
<path d="M0 0 C27.12928176 -0.37951217 27.12928176 -0.37951217 38.6875 0.8125 C39.40848877 0.88259277 40.12947754 0.95268555 40.87231445 1.02490234 C46.18603758 1.6507811 50.97662299 3.20365663 56 5 C57.68222656 5.54333984 57.68222656 5.54333984 59.3984375 6.09765625 C60.87183594 6.57525391 60.87183594 6.57525391 62.375 7.0625 C63.87160156 7.54396484 63.87160156 7.54396484 65.3984375 8.03515625 C68 9 68 9 71 11 C73.01231372 11.64803323 75.02493669 12.295121 77.0390625 12.9375 C83.50268385 15.25689975 89.73568874 18.19451091 96 21 C96 21.66 96 22.32 96 23 C96.66 23.2475 97.32 23.495 98 23.75 C100.43327188 24.76386328 102.85262984 25.77979852 105.25 26.875 C105.93578125 27.18179688 106.6215625 27.48859375 107.328125 27.8046875 C109 29 109 29 109.734375 31.1328125 C109.82203125 31.74898437 109.9096875 32.36515625 110 33 C110.53625 33.0825 111.0725 33.165 111.625 33.25 C117.31518452 35.04690037 120.89463871 38.78852067 124.55859375 43.265625 C127.22985903 46.47983038 130.28010576 49.31901896 133.3125 52.1875 C135 54 135 54 135 56 C135.8353125 56.309375 135.8353125 56.309375 136.6875 56.625 C140.47704232 58.87824138 143.1422295 62.23400191 145.0625 66.1875 C145.88403299 68.15868246 145.88403299 68.15868246 147.9375 69.1875 C151.19178067 72.0473224 151.86915207 75.9135268 153 80 C153.66 80 154.32 80 155 80 C157.64308125 84.93973923 159.491204 89.58608493 161 95 C161.77711872 97.04724825 162.5705962 99.08831804 163.375 101.125 C165.92646669 107.65795895 168.03893368 114.2690038 170 121 C170.32581055 122.06742432 170.65162109 123.13484863 170.98730469 124.23461914 C174.07588789 135.71851949 174.39640747 147.82108462 174.42553711 159.65405273 C174.43748093 161.93385992 174.48695961 164.21098856 174.53710938 166.49023438 C174.63989603 176.09852961 173.22988014 184.3279861 170.17602539 193.44018555 C169.23974636 196.27429069 168.51595145 198.94509605 168 201.875 C167.09418918 206.36921524 165.14015566 210.28237265 163.17578125 214.40234375 C161.74510107 217.5631488 160.82229148 220.63608029 160 224 C159.34 224 158.68 224 158 224 C157.7525 224.845625 157.505 225.69125 157.25 226.5625 C155.86026373 230.38427474 154.08879162 233.51868063 152 237 C151.34 237 150.68 237 150 237 C149.89429688 237.7321875 149.78859375 238.464375 149.6796875 239.21875 C148.9467446 242.21791867 147.89938046 243.99291517 146.125 246.5 C144.45733308 248.89256726 142.87950422 251.21207257 141.4375 253.75 C139.09853419 257.41098997 135.8917178 260.15782208 132.75 263.125 C130.77556277 264.97977175 130.77556277 264.97977175 130 268 C128.29296875 269.46484375 128.29296875 269.46484375 126.1875 270.9375 C123.86339073 272.608212 121.84229042 274.15770958 119.8125 276.1875 C117.74530899 278.25469101 115.50293696 279.51176721 113 281 C112.67 281.66 112.34 282.32 112 283 C111.34 283 110.68 283 110 283 C109.67 283.99 109.34 284.98 109 286 C106.8203125 287.38671875 106.8203125 287.38671875 104.125 288.6875 C103.24070312 289.12449219 102.35640625 289.56148438 101.4453125 290.01171875 C99 291 99 291 96 291 C95.67 292.32 95.34 293.64 95 295 C92.03 295.66 89.06 296.32 86 297 C86 297.66 86 298.32 86 299 C60.40910321 313.21716488 24.65347883 317.28216196 -4 313 C-4.66 312.67 -5.32 312.34 -6 312 C-9.34961125 311.56197391 -12.69849721 311.18351773 -16.05859375 310.83789062 C-19.82187506 310.41166263 -22.67947172 309.7733034 -26 308 C-27.82630038 307.70295114 -29.66138118 307.457586 -31.5 307.25 C-38.41084174 306.21167156 -43.9598744 303.40560273 -50 300 C-50 299.34 -50 298.68 -50 298 C-50.59167969 297.80664062 -51.18335938 297.61328125 -51.79296875 297.4140625 C-55.9146645 296.05585281 -59.9950524 294.67949415 -64 293 C-64 292.34 -64 291.68 -64 291 C-64.94875 290.690625 -65.8975 290.38125 -66.875 290.0625 C-70 289 -70 289 -72 288 C-72 287.34 -72 286.68 -72 286 C-72.87011719 285.85304688 -72.87011719 285.85304688 -73.7578125 285.703125 C-76.45000917 284.85888214 -77.80888882 283.65845611 -79.875 281.75 C-82.2320121 279.60211281 -84.56410904 277.55101525 -87.0625 275.5625 C-90.17150313 272.85039089 -92.68555425 269.91384343 -95.33984375 266.76953125 C-96.98659079 264.83046672 -96.98659079 264.83046672 -99.625 263.5625 C-102.89805454 261.40917464 -103.9716457 258.64847878 -105.7421875 255.21875 C-107.749676 251.67759016 -110.56113824 249.17240588 -113.6875 246.625 C-115.75227941 244.06860644 -116.22854745 241.14515271 -117 238 C-117.66 238 -118.32 238 -119 238 C-120.97377209 234.12051693 -122.91861929 230.28100536 -124.5625 226.25 C-125.78757364 223.10514245 -125.78757364 223.10514245 -127.46484375 221.171875 C-141.99938644 200.60901053 -142.90726882 159.15269252 -139.0234375 135.20703125 C-135.70967279 117.32833029 -131.08382341 99.74219205 -121.359375 84.203125 C-119.71627441 81.54016888 -118.3384919 78.82570512 -117 76 C-116.34 76 -115.68 76 -115 76 C-115 74.68 -115 73.36 -115 72 C-114.34 72 -113.68 72 -113 72 C-112.64035156 70.70255859 -112.64035156 70.70255859 -112.2734375 69.37890625 C-110.86709905 65.64736405 -109.06665051 63.08082083 -106.625 59.9375 C-105.46871094 58.43509766 -105.46871094 58.43509766 -104.2890625 56.90234375 C-98.30090498 49.30985051 -92.48744387 43.54811443 -84.58984375 37.9296875 C-82.55213756 36.41139661 -80.80310222 34.95778364 -79.0625 33.125 C-77.08208379 31.08457118 -75.65131781 29.97214986 -73 29 C-72.01 29 -71.02 29 -70 29 C-69.7215625 28.1646875 -69.7215625 28.1646875 -69.4375 27.3125 C-66.02034223 21.81533315 -59.83484302 19.27459982 -54 17 C-52.75089844 16.47019531 -52.75089844 16.47019531 -51.4765625 15.9296875 C-50.59742188 15.56101563 -49.71828125 15.19234375 -48.8125 14.8125 C-47.99394531 14.46832031 -47.17539062 14.12414062 -46.33203125 13.76953125 C-44 13 -44 13 -40 13 C-40 12.34 -40 11.68 -40 11 C-38.68 11 -37.36 11 -36 11 C-35.67 10.01 -35.34 9.02 -35 8 C-32.30893107 7.14428729 -29.74900524 6.46542209 -27 5.875 C-22.10883911 5.16681525 -22.10883911 5.16681525 -18 3 C-16.65984779 2.84417697 -15.31241097 2.74955858 -13.96484375 2.68359375 C-13.15595703 2.64169922 -12.34707031 2.59980469 -11.51367188 2.55664062 C-10.66353516 2.51732422 -9.81339844 2.47800781 -8.9375 2.4375 C-7.65649414 2.37272461 -7.65649414 2.37272461 -6.34960938 2.30664062 C-4.23327963 2.20023298 -2.11666187 2.09958269 0 2 C0 1.34 0 0.68 0 0 Z " fill="#000000" transform="translate(360,176)"/>
<path d="M0 0 C-10.99623743 5.49811872 -26.17902657 4.28290446 -38.1875 4.25 C-38.90914337 4.24904327 -39.63078674 4.24808655 -40.3742981 4.24710083 C-47.63718132 4.22472367 -54.81451919 4.15564153 -62 3 C-62 2.34 -62 1.68 -62 1 C-63.98 1 -65.96 1 -68 1 C-68 0.67 -68 0.34 -68 0 C-60.25 -0.125 -60.25 -0.125 -58 1 C-42.48926851 3.31802445 -26.56370918 2.46272069 -11.15869141 -0.02050781 C-10.28132324 -0.1594043 -9.40395508 -0.29830078 -8.5 -0.44140625 C-7.7265625 -0.57232666 -6.953125 -0.70324707 -6.15625 -0.83813477 C-3.86545904 -1.01009971 -2.18170149 -0.67899261 0 0 Z " fill="#2A2A2A" transform="translate(414,487)"/>
<path d="M0 0 C0.33 0 0.66 0 1 0 C1.33 3.3 1.66 6.6 2 10 C8.6 10 15.2 10 22 10 C21.67 10.66 21.34 11.32 21 12 C10.77 12 0.54 12 -10 12 C-10 11.34 -10 10.68 -10 10 C-6.7 9.67 -3.4 9.34 0 9 C0 6.03 0 3.06 0 0 Z " fill="#222222" transform="translate(610,724)"/>
<path d="M0 0 C0 6.96458706 -9.45349281 13.59633002 -14.08203125 18.3125 C-16 20 -16 20 -18 20 C-18.09152344 20.59296875 -18.18304688 21.1859375 -18.27734375 21.796875 C-19.17232113 24.52534657 -20.33906301 25.47125041 -22.5625 27.25 C-23.20316406 27.77078125 -23.84382812 28.2915625 -24.50390625 28.828125 C-24.99761719 29.21484375 -25.49132812 29.6015625 -26 30 C-26 25.81105315 -23.67385046 24.06926895 -20.9375 21.1875 C-20.43379883 20.64706055 -19.93009766 20.10662109 -19.41113281 19.54980469 C-16.3225111 16.27519294 -13.13393486 13.27444004 -9.6328125 10.44140625 C-6.42479813 7.60945098 -3.75615225 4.2622254 -1 1 C-0.67 0.67 -0.34 0.34 0 0 Z " fill="#151515" transform="translate(207,570)"/>
<path d="M0 0 C8.54011956 0.44947998 16.01533633 3.14908583 24 6 C24 6.66 24 7.32 24 8 C25.134375 8.28875 26.26875 8.5775 27.4375 8.875 C28.613125 9.24625 29.78875 9.6175 31 10 C31.33 10.66 31.66 11.32 32 12 C27.69111861 11.4440153 24.18000181 9.7803925 20.28125 7.98046875 C18.23481701 7.10092306 16.27411227 6.4441505 14.125 5.875 C11 5 11 5 8 3 C5.95415921 2.33841957 5.95415921 2.33841957 3.8125 1.875 C2.554375 1.58625 1.29625 1.2975 0 1 C0 0.67 0 0.34 0 0 Z " fill="#2D2D2D" transform="translate(418,182)"/>
<path d="M0 0 C0.66 0.33 1.32 0.66 2 1 C-3.16205691 7.27309565 -8.87372593 12.6749489 -15 18 C-15 12.98401273 -10.81442593 9.85514723 -7.5 6.375 C-5.09871341 4.09377774 -2.62134415 2.02217977 0 0 Z " fill="#1A1A1A" transform="translate(272,216)"/>
<path d="M0 0 C2.1519437 3.22791555 2.20086443 4.28400809 2 8 C2.66 8 3.32 8 4 8 C7.44419134 18.37357631 7.44419134 18.37357631 7 24 C2.98984858 16.28540376 0.5689065 8.67582415 0 0 Z " fill="#2E2E2E" transform="translate(525,280)"/>
<path d="M0 0 C0.33 0.66 0.66 1.32 1 2 C-1.09016808 6.54918935 -4.13620455 8.99482576 -8 12 C-8 8.03869629 -6.65122875 7.17085599 -4 4.3125 C-3.2575 3.50425781 -2.515 2.69601562 -1.75 1.86328125 C-1.1725 1.24839844 -0.595 0.63351562 0 0 Z " fill="#1D1D1D" transform="translate(189,588)"/>
<path d="M0 0 C7.75 -0.125 7.75 -0.125 10 1 C12.0374763 1.22858114 14.08040303 1.41024278 16.125 1.5625 C17.76855469 1.68818359 17.76855469 1.68818359 19.4453125 1.81640625 C20.28835938 1.87699219 21.13140625 1.93757813 22 2 C22 2.33 22 2.66 22 3 C16.72 3 11.44 3 6 3 C6 2.34 6 1.68 6 1 C4.02 1 2.04 1 0 1 C0 0.67 0 0.34 0 0 Z " fill="#242424" transform="translate(346,487)"/>
<path d="M0 0 C0.89203125 0.01804687 1.7840625 0.03609375 2.703125 0.0546875 C3.71632813 0.08949219 3.71632813 0.08949219 4.75 0.125 C1.60426323 2.22215785 -0.26456251 2.64504559 -3.9375 3.25 C-5.42830078 3.50136719 -5.42830078 3.50136719 -6.94921875 3.7578125 C-7.70847656 3.87898437 -8.46773438 4.00015625 -9.25 4.125 C-9.25 3.465 -9.25 2.805 -9.25 2.125 C-6.03817851 0.21891902 -3.71117397 -0.09766247 0 0 Z " fill="#292929" transform="translate(307.25,515.875)"/>
<path d="M0 0 C1.73030291 0.28484846 3.45920714 0.57819938 5.1875 0.875 C6.15042969 1.03742188 7.11335938 1.19984375 8.10546875 1.3671875 C10.91032604 1.98039517 13.37224747 2.85666343 16 4 C16 4.33 16 4.66 16 5 C10.04492601 4.6083965 5.37180176 3.62875405 0 1 C0 0.67 0 0.34 0 0 Z " fill="#333333" transform="translate(326,482)"/>
<path d="M0 0 C1 2 1 2 0.25 4.4375 C-0.93098981 6.85852911 -1.9831559 8.25818009 -4 10 C-4.66 9.67 -5.32 9.34 -6 9 C-2.25 2.25 -2.25 2.25 0 0 Z " fill="#393939" transform="translate(506,422)"/>
<path d="M0 0 C2.05422055 2.05422055 2.68137592 3.33009024 3.6875 6 C3.95949219 6.70125 4.23148438 7.4025 4.51171875 8.125 C5 10 5 10 4 12 C0.46209597 8.30827405 0.40884117 4.90609405 0 0 Z " fill="#232323" transform="translate(230,387)"/>
<path d="M0 0 C0.66 0 1.32 0 2 0 C2 0.66 2 1.32 2 2 C2.66 2 3.32 2 4 2 C6.04169485 4.90548882 7 6.40142046 7 10 C6.01164277 9.09325024 5.03464519 8.17410978 4.0625 7.25 C3.51722656 6.73953125 2.97195313 6.2290625 2.41015625 5.703125 C0.83955308 3.80621924 0.41268714 2.40298839 0 0 Z " fill="#202020" transform="translate(544,597)"/>
<path d="M0 0 C0.66 0.33 1.32 0.66 2 1 C-0.75 7.75 -0.75 7.75 -3 10 C-3.36629408 5.72656908 -2.40814077 3.51187196 0 0 Z " fill="#2E2E2E" transform="translate(145,650)"/>
</svg>
