<?xml version="1.0" encoding="UTF-8"?>
<svg version="1.1" xmlns="http://www.w3.org/2000/svg" width="512" height="512">
<path d="M0 0 C0.9597876 0.33837891 0.9597876 0.33837891 1.93896484 0.68359375 C25.61057835 9.22346757 44.55890627 23.07443145 62 41 C65.98230234 39.42386629 68.4476299 36.61644193 71.3125 33.5625 C93.44232821 10.79132744 123.99928863 -2.17091315 155 -7 C155.83273437 -7.13277344 156.66546875 -7.26554687 157.5234375 -7.40234375 C195.21924742 -12.23005274 234.82652161 -1.40587378 265.08984375 21.3203125 C267.78373788 23.48902951 270.4024731 25.7170804 273 28 C274.27617188 29.09441406 274.27617188 29.09441406 275.578125 30.2109375 C295.63586168 47.7460754 308.80810454 69.86415868 317 95 C317.57814453 96.76730469 317.57814453 96.76730469 318.16796875 98.5703125 C320.535212 108.32824479 320.1954371 119.24893564 315 128 C310.85556601 134.46272676 304.41088511 139.09231615 297.171875 141.64453125 C286.48178452 143.39416836 276.27153178 142.66310655 267.05078125 136.75 C259.22025162 130.7709405 255.95908628 122.28920413 253.125 113.1875 C248.19117194 97.46295444 238.7843913 85.33631637 226 75 C221.94568239 78.8972315 218.39372002 83.0549978 214.875 87.4375 C214.31167969 88.13472168 213.74835938 88.83194336 213.16796875 89.55029297 C208.96367653 94.76668588 204.80677174 100.01995767 200.69091797 105.30639648 C199.46714146 106.87604361 198.23368237 108.43812649 197 110 C196.57211182 110.54390381 196.14422363 111.08780762 195.70336914 111.64819336 C191.66215835 116.66594744 187.43131026 119.74195576 181 121 C172.56280691 121.86598756 165.92761402 121.09514837 159 116 C151.67211637 109.28671307 145.92278289 101.07461383 140.05078125 93.10546875 C137.02642746 89.0095627 133.90517038 84.99565538 130.75 81 C130.27183838 80.39438232 129.79367676 79.78876465 129.30102539 79.16479492 C128.20215514 77.77536487 127.10131967 76.38748935 126 75 C115.52028324 78.34821275 108.09710168 89.84135555 103 99 C102.56300781 99.76441406 102.12601562 100.52882813 101.67578125 101.31640625 C99.2457077 105.84692191 97.48124122 110.43679414 95.87426758 115.30493164 C92.10936901 126.64869738 87.97987202 133.89945043 77.234375 139.90625 C69.49529664 143.69461003 58.52355714 143.35755198 50.35546875 140.90625 C40.20795719 136.10692378 35.07785574 129.01738792 31.13623047 118.75 C30.30691349 116.40018543 29.49714583 114.0441562 28.6875 111.6875 C23.27697137 96.58492858 14.48033287 85.09048189 2 75 C-2.05431761 78.8972315 -5.60627998 83.0549978 -9.125 87.4375 C-9.68832031 88.13472168 -10.25164062 88.83194336 -10.83203125 89.55029297 C-15.03632347 94.76668588 -19.19322826 100.01995767 -23.30908203 105.30639648 C-24.53285854 106.87604361 -25.76631763 108.43812649 -27 110 C-27.42788818 110.54390381 -27.85577637 111.08780762 -28.29663086 111.64819336 C-32.33784165 116.66594744 -36.56868974 119.74195576 -43 121 C-51.43719309 121.86598756 -58.07238598 121.09514837 -65 116 C-72.32788363 109.28671307 -78.07721711 101.07461383 -83.94921875 93.10546875 C-86.97357254 89.0095627 -90.09482962 84.99565538 -93.25 81 C-93.72816162 80.39438232 -94.20632324 79.78876465 -94.69897461 79.16479492 C-95.79784486 77.77536487 -96.89868033 76.38748935 -98 75 C-108.62946231 78.44119283 -116.7610151 90.46494634 -121.97998047 99.93847656 C-124.61960926 105.27333188 -126.49616544 110.92406288 -128.39453125 116.5546875 C-131.9516287 126.87206776 -136.9730835 134.99560768 -147 140 C-155.31005671 143.35215264 -166.1032913 143.49360228 -174.5625 140.375 C-183.11868523 136.26917957 -188.64801793 129.99672023 -192.1015625 121.19140625 C-197.32771751 102.62719477 -187.81944097 82.69900224 -178.96875 66.70898438 C-159.93500321 33.13130606 -128.47634383 8.36060456 -91.41210938 -2.35498047 C-61.2401437 -10.42323283 -29.60918617 -10.45290641 0 0 Z " fill="#BB8C07" transform="translate(193,370)"/>
<path d="M0 0 C1.16921997 0.00132935 1.16921997 0.00132935 2.36206055 0.00268555 C10.43376937 0.16579219 18.096691 1.80101105 25.05078125 6.046875 C26.17033203 6.70429688 26.17033203 6.70429688 27.3125 7.375 C29.32682266 6.87243888 29.32682266 6.87243888 31.3125 5.375 C32.47320724 4.67748579 33.64045477 3.99079001 34.8125 3.3125 C35.66328125 2.80009766 35.66328125 2.80009766 36.53125 2.27734375 C42.4045516 -0.69794719 49.84890597 -0.56917182 56.078125 1.12890625 C65.24737138 4.62914252 70.02157162 9.56230216 74.3125 18.375 C75.36041114 22.1744439 75.41817553 25.75852653 75.375 29.6875 C75.36597656 30.75613281 75.35695313 31.82476562 75.34765625 32.92578125 C75.33605469 33.73402344 75.32445312 34.54226562 75.3125 35.375 C76.14910156 34.79492188 76.98570312 34.21484375 77.84765625 33.6171875 C97.87705948 20.0390171 120.07870966 14.2756058 144.25 18.5 C162.10219979 22.01555032 176.15766894 29.80885329 189.3125 42.375 C189.92738281 42.91511719 190.54226563 43.45523438 191.17578125 44.01171875 C204.56424374 56.2306144 213.4605456 76.73932532 214.43847656 94.68701172 C215.20881988 120.59102467 209.63854141 142.75987506 191.4921875 162.09765625 C190.77289063 162.84917969 190.05359375 163.60070312 189.3125 164.375 C188.45011719 165.33212891 188.45011719 165.33212891 187.5703125 166.30859375 C173.89254558 181.00074051 152.42885294 188.34629662 132.82421875 189.59765625 C107.48638923 190.21304176 85.23288054 181.46000635 66.8515625 164.0546875 C51.3125 147.655 51.3125 147.655 51.3125 138.375 C51.92996094 138.5915625 52.54742187 138.808125 53.18359375 139.03125 C61.34420298 141.71419002 68.4444489 142.8095219 76.53125 139.34375 C82.64068399 136.02107537 85.95748583 129.88872271 87.90234375 123.41015625 C89.94742022 113.26268155 87.08825108 103.37858875 81.625 94.75 C77.93896989 89.59888957 73.60446922 85.01952383 69.3125 80.375 C64.32560205 74.74396106 62.03397309 71.8781022 62.078125 64.328125 C62.48583107 59.19102848 63.88743318 54.31183864 65.3125 49.375 C64.24 50.035 63.1675 50.695 62.0625 51.375 C59.00269314 53.25795807 58.1789136 53.375 54.3125 53.375 C54.36470703 54.24898437 54.36470703 54.24898437 54.41796875 55.140625 C54.62132136 61.29930393 53.72423983 66.58907018 52.06640625 72.515625 C51.29156735 75.45439222 50.77005639 78.37200855 50.3125 81.375 C51.45525391 82.11943359 51.45525391 82.11943359 52.62109375 82.87890625 C55.87082012 85.01699089 59.09676506 87.1861384 62.3125 89.375 C63.62927734 90.27025391 63.62927734 90.27025391 64.97265625 91.18359375 C70.04179588 94.84793008 73.50016807 98.2734825 75.3125 104.375 C75.98276461 109.83286897 75.00648043 113.59535731 72.3125 118.375 C67.67128999 123.37146312 63.34589563 126.07663322 56.5 126.75 C51.17485535 126.58065131 46.45751182 124.55675372 42.7019043 120.73681641 C41.2334967 118.87328911 39.88469622 116.9697234 38.5625 115 C38.10746094 114.35289062 37.65242188 113.70578125 37.18359375 113.0390625 C35.87210834 111.16443205 34.58713614 109.27483406 33.3125 107.375 C32.91095703 106.77655273 32.50941406 106.17810547 32.09570312 105.56152344 C31.16465521 104.16822415 30.23804195 102.77196285 29.3125 101.375 C28.69503906 101.56835938 28.07757813 101.76171875 27.44140625 101.9609375 C10.63192339 107.12914989 -4.42732621 108.46572052 -20.9375 100.6875 C-33.93676253 93.60954829 -43.98622793 83.17034926 -48.9765625 69.0234375 C-52.95452506 54.20443411 -52.64180074 40.19774591 -45.6875 26.375 C-37.90382834 13.63066548 -27.34638198 5.21100102 -12.7890625 1.1953125 C-8.52301983 0.22162562 -4.36581685 -0.00902912 0 0 Z M-24.70703125 29.08984375 C-30.71396979 36.02092668 -33.03674781 43.95334152 -32.90234375 52.98828125 C-32.02304996 62.75643588 -26.73120715 73.29141521 -19.5859375 79.90625 C-16.53140217 82.2694296 -13.28853854 83.99398316 -9.6875 85.375 C-9.0275 85.63410156 -8.3675 85.89320313 -7.6875 86.16015625 C-5.60646479 86.58869266 -5.60646479 86.58869266 -3.79296875 85.22265625 C-3.16003906 84.63355469 -2.52710938 84.04445313 -1.875 83.4375 C-1.24980469 82.87160156 -0.62460938 82.30570313 0.01953125 81.72265625 C1.88860297 79.80900701 3.62142934 77.86905502 5.359375 75.83984375 C10.20905543 70.24475789 15.49549297 65.08448053 20.75 59.875 C21.7782298 58.85179861 22.80622626 57.82836267 23.83398438 56.8046875 C26.32414338 54.32542001 28.81742833 51.84932462 31.3125 49.375 C30.90547852 48.93349609 30.49845703 48.49199219 30.07910156 48.03710938 C26.89880331 44.48052359 24.5531878 41.48258048 23.0625 36.875 C22.7428125 35.93527344 22.423125 34.99554688 22.09375 34.02734375 C21.44470893 31.82384933 20.98852688 29.68866475 20.5625 27.4375 C18.95481428 23.49866999 17.16490627 22.75532974 13.3828125 21.1015625 C-0.39123289 16.26765223 -14.20929227 19.14950684 -24.70703125 29.08984375 Z M39.3125 24.375 C38.60014314 28.1742366 38.99986012 29.81224821 40.875 33.1875 C44.08246843 36.06599731 46.0274334 36.45017661 50.3125 36.375 C53.11439446 34.60858828 54.82774911 33.34450178 56.3125 30.375 C56.84757099 26.3619676 56.64301628 24.83571967 54.25 21.5 C51.42723938 19.13391093 51.42723938 19.13391093 47.8125 18.75 C43.3827358 19.54102932 41.92039828 20.73974785 39.3125 24.375 Z " fill="#BB8C07" transform="translate(244.6875,152.625)"/>
<path d="M0 0 C-0.23396484 1.4540625 -0.23396484 1.4540625 -0.47265625 2.9375 C-4.27254667 28.27861799 1.14111302 51.00291963 16.26171875 71.7890625 C17.12216797 72.88347656 17.12216797 72.88347656 18 74 C18.74765625 74.98226562 19.4953125 75.96453125 20.265625 76.9765625 C23.08038655 80.32754488 26.34943232 82.48987185 30.0625 84.75 C30.67416016 85.13542969 31.28582031 85.52085937 31.91601562 85.91796875 C34.87466155 87.76672264 37.83984356 89.5184304 41 91 C41.26856929 96.33695376 40.47509284 100.6236759 38.5625 105.5625 C38.29663086 106.25432373 38.03076172 106.94614746 37.75683594 107.65893555 C28.91222791 129.58765369 11.52471148 145.74836685 -9.94775391 155.17480469 C-15.474424 157.39704415 -21.17483089 158.7887569 -27 160 C-27.721875 160.15082031 -28.44375 160.30164063 -29.1875 160.45703125 C-31.13998787 160.77262735 -33.02302233 160.91527239 -35 161 C-36.0725 161.0515625 -37.145 161.103125 -38.25 161.15625 C-61.85428671 161.74635717 -83.423085 154.43963505 -100.73046875 138.16796875 C-101.47941406 137.45253906 -102.22835937 136.73710937 -103 136 C-103.61488281 135.45988281 -104.22976562 134.91976562 -104.86328125 134.36328125 C-118.25174374 122.1443856 -127.1480456 101.63567468 -128.12597656 83.68798828 C-128.85195809 59.2757108 -124.1525892 37.4472725 -107.4375 18.625 C-105.9673635 17.07471977 -104.48888811 15.53228011 -103 14 C-102.42636719 13.36449219 -101.85273437 12.72898438 -101.26171875 12.07421875 C-77.35395397 -13.65943737 -29.38566539 -19.5904436 0 0 Z " fill="#BB8C07" transform="translate(181,181)"/>
<path d="M0 0 C1.05960937 0.36222656 2.11921875 0.72445313 3.2109375 1.09765625 C23.33696442 8.72899037 39.943231 24.67481469 49.02954102 44.07543945 C58.95074981 66.4708543 59.62351631 90.34740167 51.25 113.3125 C46.8965737 124.58250874 40.30766826 133.29745171 32 142 C31.42894531 142.64582031 30.85789062 143.29164063 30.26953125 143.95703125 C26.71305718 147.86092439 26.71305718 147.86092439 23.63671875 148.4609375 C19.83642997 147.79659072 18.58920919 145.86542059 16.0625 143 C2.06510933 128.08529877 -21.04148866 120.33437663 -41.13378906 119.6484375 C-57.43931008 119.46235452 -71.10336972 124.69433673 -82.94140625 135.94921875 C-84.97151455 137.9085811 -84.97151455 137.9085811 -86.52734375 139.83203125 C-88 141 -88 141 -89.94921875 140.92578125 C-99.92114744 136.42416773 -106.10749569 121.8074964 -109.75 112.25 C-117.27671116 89.66986652 -117.28090942 65.52754137 -106.92285156 43.81298828 C-96.35980913 23.06136047 -79.45580202 7.65055735 -57.43359375 -0.28515625 C-39.11861351 -6.09844349 -18.21166793 -6.38455025 0 0 Z " fill="#BB8C07" transform="translate(285,4)"/>
</svg>
