<?xml version="1.0" encoding="UTF-8"?>
<svg version="1.1" xmlns="http://www.w3.org/2000/svg" width="512" height="512">
<path d="M0 0 C0.98584076 0.00054382 1.97168152 0.00108765 2.98739624 0.00164795 C19.35690674 0.04301309 35.11789842 1.0175184 51.1875 4.375 C52.20424805 4.58398926 53.22099609 4.79297852 54.26855469 5.00830078 C91.50281869 12.92102642 126.12956103 29.09107587 156.1875 52.375 C157.08597656 53.06078125 157.98445313 53.7465625 158.91015625 54.453125 C174.46302342 66.57992476 189.09791145 80.79632064 201.1875 96.375 C201.950625 97.30957031 202.71375 98.24414062 203.5 99.20703125 C230.5420054 132.96620145 247.73935513 174.75073002 254.1875 217.375 C254.36482666 218.49962646 254.54215332 219.62425293 254.72485352 220.78295898 C256.37625708 232.33690444 256.54420897 243.77965547 256.5 255.4375 C256.49726578 256.93159393 256.49726578 256.93159393 256.49447632 258.45587158 C256.44973255 272.96830287 255.99219043 287.09809519 253.1875 301.375 C253.02652832 302.27057617 252.86555664 303.16615234 252.69970703 304.08886719 C244.81047508 347.69563051 225.12100867 388.83356217 196.1875 422.375 C195.55328125 423.12007813 194.9190625 423.86515625 194.265625 424.6328125 C182.45448485 438.13779833 169.70389772 450.80918743 155.1875 461.375 C154.03755169 462.23149066 152.88781411 463.08826433 151.73828125 463.9453125 C143.54660474 469.9859414 135.03104922 475.34505071 126.1875 480.375 C125.55569824 480.73948242 124.92389648 481.10396484 124.27294922 481.47949219 C98.24416464 496.37750327 68.82611377 506.02291257 39.1875 510.375 C37.98504639 510.55160156 36.78259277 510.72820312 35.54370117 510.91015625 C23.82743596 512.51411689 12.18834274 512.77574553 0.375 512.75 C-0.61183777 512.74912384 -1.59867554 512.74824768 -2.61541748 512.74734497 C-67.56969852 512.55782667 -129.98321624 487.47829016 -176.8125 442.375 C-177.47185547 441.74287598 -178.13121094 441.11075195 -178.81054688 440.45947266 C-188.29880305 431.31502521 -197.0387044 422.01765991 -204.8125 411.375 C-205.67056152 410.22394983 -206.52863451 409.07290823 -207.38671875 407.921875 C-213.42486829 399.73069386 -218.78345521 391.21695895 -223.8125 382.375 C-224.17698242 381.74319824 -224.54146484 381.11139648 -224.91699219 380.46044922 C-239.84723018 354.37535999 -249.32635054 325.03914886 -253.8125 295.375 C-254.07740234 293.69132324 -254.07740234 293.69132324 -254.34765625 291.97363281 C-256.0045586 280.36052257 -256.21123513 268.84320055 -256.1875 257.125 C-256.18695618 256.11298523 -256.18641235 255.10097046 -256.18585205 254.05828857 C-256.1451051 237.52382605 -255.22136907 221.60435136 -251.8125 205.375 C-251.60351074 204.35970215 -251.39452148 203.3444043 -251.17919922 202.29833984 C-242.40130189 160.98633315 -223.39863066 122.3544774 -195.8125 90.375 C-195.17828125 89.62992187 -194.5440625 88.88484375 -193.890625 88.1171875 C-182.07948485 74.61220167 -169.32889772 61.94081257 -154.8125 51.375 C-153.66255169 50.51850934 -152.51281411 49.66173567 -151.36328125 48.8046875 C-143.17160474 42.7640586 -134.65604922 37.40494929 -125.8125 32.375 C-125.18069824 32.01051758 -124.54889648 31.64603516 -123.89794922 31.27050781 C-97.86916464 16.37249673 -68.45111377 6.72708743 -38.8125 2.375 C-37.61004639 2.19839844 -36.40759277 2.02179687 -35.16870117 1.83984375 C-23.45224155 0.2358565 -11.81347836 -0.02463344 0 0 Z M-97.92236328 67.35400391 C-99.8324462 68.38577435 -101.7568964 69.38638329 -103.68359375 70.38671875 C-119.36889786 78.69632299 -133.62962035 89.4563184 -146.28417969 101.88183594 C-147.85104961 103.41266285 -149.44300004 104.91374464 -151.0390625 106.4140625 C-168.70932772 123.25883622 -182.71442899 144.20750096 -192.8125 166.375 C-193.14878418 167.10944336 -193.48506836 167.84388672 -193.83154297 168.60058594 C-217.41684917 220.73419372 -218.8905601 279.07229271 -198.91308594 332.68676758 C-196.00389326 340.19394065 -192.66635578 347.40698336 -188.83349609 354.48486328 C-187.80172565 356.3949462 -186.80111671 358.3193964 -185.80078125 360.24609375 C-177.01558559 376.83279062 -165.50467345 391.43371515 -152.37304688 404.78369141 C-150.96616158 406.21830942 -149.58308974 407.67618721 -148.203125 409.13671875 C-141.63956508 415.96839795 -134.39556702 421.73248163 -126.8125 427.375 C-125.80703125 428.12523437 -124.8015625 428.87546875 -123.765625 429.6484375 C-91.36189029 452.90189479 -50.96407687 468.28244009 -10.8125 469.375 C-10.06838867 469.40078125 -9.32427734 469.4265625 -8.55761719 469.453125 C50.27347106 471.28944457 105.07402729 449.80214654 147.92871094 409.74755859 C188.0879977 371.40125496 211.78620727 317.40649533 213.37109375 261.9453125 C214.35728581 205.87043171 194.07044311 151.02390013 155.1328125 110.41796875 C154.64329102 109.91313965 154.15376953 109.40831055 153.64941406 108.88818359 C152.20604917 107.3941997 150.78617853 105.88038875 149.3671875 104.36328125 C132.85347297 86.98221405 111.93665711 73.28250163 90.1875 63.375 C89.45305664 63.03871582 88.71861328 62.70243164 87.96191406 62.35595703 C29.19674262 35.77052354 -40.77250723 36.40584124 -97.92236328 67.35400391 Z " fill="#686868" transform="translate(255.8125,-0.375)"/>
<path d="M0 0 C5.46645094 3.24357877 8.80590807 7.79139832 10.9515686 13.75537109 C12.32470645 19.64328521 11.92218668 25.79795677 11.85546875 31.8125 C11.84986471 33.30321829 11.84559843 34.79394215 11.84260559 36.28466797 C11.83122028 40.184261 11.80180868 44.08351209 11.76849365 47.98297119 C11.73765553 51.97167334 11.72407106 55.96043142 11.70898438 59.94921875 C11.6769319 67.7579674 11.62581346 75.56643556 11.5625 83.375 C12.37967499 83.36611755 13.19684998 83.35723511 14.03878784 83.3480835 C21.77633154 83.26761353 29.51366958 83.20687221 37.25152397 83.16775131 C41.22873807 83.14696199 45.20560362 83.11880519 49.18261719 83.07324219 C53.02762353 83.02947206 56.87229667 83.00579796 60.71753311 82.99549103 C62.17743289 82.98815506 63.63731643 82.97383094 65.0970726 82.95207977 C74.13797708 82.82284139 83.40681643 82.70173244 90.49362183 89.12542725 C95.92005607 94.96067279 97.02892561 100.53622221 96.875 108.3671875 C96.25418548 114.34252727 93.95491519 117.95093901 89.8125 122.1875 C81.22635697 127.96663473 73.10743856 127.77870162 63.125 127.66796875 C61.63428171 127.66236471 60.14355785 127.65809843 58.65283203 127.65510559 C54.753239 127.64372028 50.85398791 127.61430868 46.95452881 127.58099365 C42.96582666 127.55015553 38.97706858 127.53657106 34.98828125 127.52148438 C27.1795326 127.4894319 19.37106444 127.43831346 11.5625 127.375 C11.57138245 128.19217499 11.58026489 129.00934998 11.5894165 129.85128784 C11.66988647 137.58883154 11.73062779 145.32616958 11.76974869 153.06402397 C11.79053801 157.04123807 11.81869481 161.01810362 11.86425781 164.99511719 C11.90802794 168.84012353 11.93170204 172.68479667 11.94200897 176.53003311 C11.94934494 177.98993289 11.96366906 179.44981643 11.98542023 180.9095726 C12.11465861 189.95047708 12.23576756 199.21931643 5.81207275 206.30612183 C-0.02317279 211.73255607 -5.59872221 212.84142561 -13.4296875 212.6875 C-19.40502727 212.06668548 -23.01343901 209.76741519 -27.25 205.625 C-33.02913473 197.03885697 -32.84120162 188.91993856 -32.73046875 178.9375 C-32.72486471 177.44678171 -32.72059843 175.95605785 -32.71760559 174.46533203 C-32.70622028 170.565739 -32.67680868 166.66648791 -32.64349365 162.76702881 C-32.61265553 158.77832666 -32.59907106 154.78956858 -32.58398438 150.80078125 C-32.5519319 142.9920326 -32.50081346 135.18356444 -32.4375 127.375 C-33.25467499 127.38388245 -34.07184998 127.39276489 -34.91378784 127.4019165 C-42.65133154 127.48238647 -50.38866958 127.54312779 -58.12652397 127.58224869 C-62.10373807 127.60303801 -66.08060362 127.63119481 -70.05761719 127.67675781 C-73.90262353 127.72052794 -77.74729667 127.74420204 -81.59253311 127.75450897 C-83.05243289 127.76184494 -84.51231643 127.77616906 -85.9720726 127.79792023 C-95.01297708 127.92715861 -104.28181643 128.04826756 -111.36862183 121.62457275 C-116.79505607 115.78932721 -117.90392561 110.21377779 -117.75 102.3828125 C-117.12918548 96.40747273 -114.82991519 92.79906099 -110.6875 88.5625 C-102.10135697 82.78336527 -93.98243856 82.97129838 -84 83.08203125 C-82.50928171 83.08763529 -81.01855785 83.09190157 -79.52783203 83.09489441 C-75.628239 83.10627972 -71.72898791 83.13569132 -67.82952881 83.16900635 C-63.84082666 83.19984447 -59.85206858 83.21342894 -55.86328125 83.22851562 C-48.0545326 83.2605681 -40.24606444 83.31168654 -32.4375 83.375 C-32.44638245 82.55782501 -32.45526489 81.74065002 -32.4644165 80.89871216 C-32.54488647 73.16116846 -32.60562779 65.42383042 -32.64474869 57.68597603 C-32.66553801 53.70876193 -32.69369481 49.73189638 -32.73925781 45.75488281 C-32.78302794 41.90987647 -32.80670204 38.06520333 -32.81700897 34.21996689 C-32.82434494 32.76006711 -32.83866906 31.30018357 -32.86042023 29.8404274 C-32.98965861 20.79952292 -33.11076756 11.53068357 -26.68707275 4.44387817 C-19.44983051 -2.28633033 -9.15393955 -4.17670246 0 0 Z " fill="#686868" transform="translate(266.4375,150.625)"/>
</svg>
