<?xml version="1.0" encoding="UTF-8"?>
<svg version="1.1" xmlns="http://www.w3.org/2000/svg" width="512" height="512">
<path d="M0 0 C3.75904145 3.06248849 7.14683709 6.47160596 10.54931641 9.91821289 C11.57271888 10.93646813 12.59718916 11.95365111 13.62263489 12.96984863 C16.38826213 15.7170503 19.13803462 18.4796195 21.88457918 21.24588323 C24.77358026 24.15135649 27.67525851 27.04412377 30.57504272 29.93882751 C35.44396401 34.80323559 40.30262748 39.67770884 45.15527344 44.55834961 C50.74552581 50.18060512 56.35158176 55.78670889 61.96648085 61.38434225 C67.38936438 66.79129122 72.80079236 72.20956955 78.20719528 77.6329937 C80.49761132 79.93023722 82.79186236 82.22354326 85.08940506 84.51365852 C87.80243234 87.21895292 90.50518728 89.9341298 93.20073509 92.65683746 C94.18446389 93.64738012 95.17149583 94.63465656 96.16226768 95.61815453 C110.28449374 109.64870835 118.70363678 125.84883888 119.25 146 C118.67681065 167.14057208 109.42293343 183.21853473 94.70947266 197.82397461 C93.68775726 198.85276698 92.66688219 199.88239445 91.64677429 200.91278076 C88.90186415 203.67998583 86.14460533 206.43455243 83.38407183 209.18616176 C81.07153769 211.49355009 78.76528121 213.80716332 76.45895326 216.12075239 C71.01678262 221.5798561 65.56449742 227.02870503 60.10546875 232.47094727 C54.48920108 238.07026723 48.88955776 243.68582306 43.29791415 249.30972475 C38.47790629 254.15647415 33.64819746 258.99340197 28.8105644 263.82255942 C25.92930703 266.698905 23.05167486 269.57864178 20.18318558 272.46772575 C17.48729703 275.18204553 14.77940993 277.88380896 12.06206703 280.5766449 C11.07138326 281.562346 10.08486818 282.55225889 9.10305977 283.54680061 C2.72265938 290.00332225 -3.57358834 295.95193566 -13.0625 296.4375 C-20.84066371 295.57325959 -26.72283488 292.89143831 -32 287 C-35.61753841 281.16526063 -36.05919597 274.74716173 -35 268 C-31.95982291 260.3770712 -27.03665943 255.51154788 -21.23022461 249.82373047 C-20.2287053 248.82826034 -19.22809376 247.83187622 -18.22831726 246.83465576 C-16.08420518 244.69975566 -13.93401132 242.57125242 -11.77879143 240.44756699 C-8.36871135 237.08703333 -4.97361557 233.71162411 -1.58045959 230.33401489 C5.0099241 223.77783171 11.61499611 217.23656377 18.2219162 210.697052 C26.63652718 202.36716299 35.0451621 194.0312994 43.43905443 185.68052971 C46.81143703 182.32648065 50.1913462 178.9802644 53.57739842 175.64001822 C55.68324551 173.55978571 57.78286071 171.47334706 59.88090324 169.38524628 C61.31486698 167.96190124 62.75637952 166.54617389 64.19812012 165.13070679 C65.05470718 164.27577637 65.91129425 163.42084595 66.7938385 162.54000854 C67.53806092 161.80374678 68.28228334 161.06748501 69.04905796 160.30891228 C72.74529149 155.93447223 74.43945578 151.83129312 74.5 146.125 C74.5309375 145.15820312 74.561875 144.19140625 74.59375 143.1953125 C72.93344467 134.26024827 65.42056582 128.02842223 59.20849609 121.93139648 C58.2168869 120.94719549 57.22597477 119.96229178 56.23570251 118.97674561 C54.11411311 116.86795775 51.98800879 114.76387209 49.85825729 112.66332817 C46.48778526 109.33845169 43.12954464 106.00139904 39.77310181 102.66236877 C31.43841264 94.37460124 23.08852067 86.10219598 14.73431396 77.83410645 C8.23234541 71.39889229 1.73492997 64.95922427 -4.74875772 58.50558525 C-8.08204371 55.18876034 -11.42447121 51.88152559 -14.77420449 48.58131588 C-16.85769297 46.5245505 -18.93274609 44.45943191 -21.00559807 42.39195251 C-22.42119589 40.98501625 -23.84678816 39.58815816 -25.27268982 38.19166565 C-31.45308064 32.00278463 -35.42528388 27.16351 -35.4375 18.0625 C-35.24180687 11.53124178 -33.80326498 7.10857107 -29.421875 2.25 C-20.71079788 -5.91172992 -9.85850461 -5.83655383 0 0 Z " fill="#686868" transform="translate(229,110)"/>
</svg>
