<?xml version="1.0" encoding="UTF-8"?>
<svg version="1.1" xmlns="http://www.w3.org/2000/svg" width="512" height="512">
<path d="M0 0 C1.01790619 0.00215515 2.03581238 0.0043103 3.08456421 0.00653076 C17.69363523 0.05620146 32.02575853 0.30709809 46.375 3.3125 C47.34985352 3.51117676 48.32470703 3.70985352 49.32910156 3.91455078 C88.38660539 12.08468046 124.82400319 27.71035417 156.375 52.3125 C157.25929688 52.98539063 158.14359375 53.65828125 159.0546875 54.3515625 C174.64162389 66.45260257 189.26666068 80.75087979 201.375 96.3125 C202.15101563 97.2715625 202.92703125 98.230625 203.7265625 99.21875 C238.25804162 142.62975232 256.81395322 197.76040062 256.69067383 253.03979492 C256.6875221 255.97938487 256.71104926 258.9179558 256.73632812 261.85742188 C256.78098737 275.23056192 255.57551542 288.12666711 253.375 301.3125 C253.09281616 303.01805054 253.09281616 303.01805054 252.80493164 304.75805664 C245.77946967 343.86954746 228.79665906 381.05202178 204.375 412.3125 C203.61574219 413.28445313 202.85648437 414.25640625 202.07421875 415.2578125 C189.73986402 430.63741644 175.93895499 445.19015196 160.375 457.3125 C159.43914062 458.07691406 158.50328125 458.84132813 157.5390625 459.62890625 C125.58628299 485.2157721 86.41988322 501.72551276 46.375 509.3125 C45.56562988 509.47621094 44.75625977 509.63992188 43.92236328 509.80859375 C13.88110013 515.67977137 -20.7615176 514.58512909 -50.625 508.3125 C-52.14794678 507.99901611 -52.14794678 507.99901611 -53.70166016 507.67919922 C-90.84546555 499.78695344 -125.70945445 483.68345578 -155.625 460.3125 C-156.59695312 459.55324219 -157.56890625 458.79398437 -158.5703125 458.01171875 C-173.94991644 445.67736402 -188.50265196 431.87645499 -200.625 416.3125 C-201.77162109 414.90871094 -201.77162109 414.90871094 -202.94140625 413.4765625 C-210.77816849 403.69004401 -217.25970982 393.09854746 -223.625 382.3125 C-224.01961426 381.64492676 -224.41422852 380.97735352 -224.82080078 380.28955078 C-237.79696384 358.00791592 -246.08228285 333.05826387 -251.4375 307.9375 C-251.63255127 307.02419922 -251.82760254 306.11089844 -252.02856445 305.16992188 C-255.27291121 289.01545066 -256.00008268 273.12281746 -255.9375 256.6875 C-255.93534485 255.66959381 -255.9331897 254.65168762 -255.93096924 253.60293579 C-255.88129854 238.99386477 -255.63040191 224.66174147 -252.625 210.3125 C-252.42632324 209.33764648 -252.22764648 208.36279297 -252.02294922 207.35839844 C-241.7272891 158.1397446 -219.29081567 114.71000304 -184.625 78.3125 C-184.05475098 77.71356934 -183.48450195 77.11463867 -182.89697266 76.49755859 C-174.89671874 68.15723469 -166.68033043 60.51197864 -157.39306641 53.62744141 C-155.58557641 52.28318 -153.79826388 50.91490873 -152.01171875 49.54296875 C-143.60452986 43.15390681 -134.86138957 37.61168285 -125.65234375 32.45166016 C-123.78933792 31.40484113 -121.94116361 30.33571119 -120.09375 29.26171875 C-83.4933446 8.69459905 -41.63834482 -0.15855121 0 0 Z M-99.625 68.3125 C-100.77871094 68.92609375 -101.93242187 69.5396875 -103.12109375 70.171875 C-153.19539996 97.6814825 -189.23128302 145.08456081 -205.16479492 199.609375 C-208.27096507 210.72681433 -210.27509922 221.85716667 -211.625 233.3125 C-211.82222656 234.86710937 -211.82222656 234.86710937 -212.0234375 236.453125 C-216.13030136 275.30183715 -208.18051853 315.56157615 -190.625 350.3125 C-190.29274414 350.98345703 -189.96048828 351.65441406 -189.61816406 352.34570312 C-164.73690023 402.38649282 -119.48838624 440.78940655 -66.6875 458.6875 C-12.89918585 476.18337323 45.02122758 471.95254813 95.83789062 447.10839844 C146.00459215 421.44508581 184.92511174 376.41065002 202.8125 323 C219.85941509 270.04728086 216.55626395 212.15848915 191.375 162.3125 C191.04274414 161.64154297 190.71048828 160.97058594 190.36816406 160.27929688 C165.4515312 110.16737356 120.66304462 72.64456605 68.13671875 54.23974609 C53.82299778 49.43391934 39.34868962 46.1726317 24.375 44.3125 C23.38371094 44.18101563 22.39242187 44.04953125 21.37109375 43.9140625 C-19.9643955 39.46162261 -63.21494255 48.48650931 -99.625 68.3125 Z " fill="#686868" transform="translate(255.625,-0.3125)"/>
<path d="M0 0 C4.33701283 4.33701283 7.1009324 9.44704174 7.34397221 15.64738464 C7.32247939 16.99211601 7.32247939 16.99211601 7.30055237 18.36401367 C7.28721863 19.39764542 7.27388489 20.43127716 7.26014709 21.49623108 C7.24076584 22.62540451 7.22138458 23.75457794 7.20141602 24.91796875 C7.16864835 27.39468421 7.13666807 29.87141017 7.10536194 32.34814453 C7.08771349 33.66445862 7.07006504 34.98077271 7.05188179 36.3369751 C6.95523514 44.0854301 6.93428534 51.83468185 6.90329087 59.58362579 C6.87015547 67.75591528 6.81246476 75.92597134 6.6706543 84.09716797 C6.55791047 90.60223339 6.50465488 97.10494966 6.51622146 103.61101818 C6.52028112 107.04023841 6.49825085 110.46390184 6.40368843 113.89193726 C5.90209615 135.00598786 10.70553245 147.88052142 22.18287468 165.090271 C25.55361723 170.24265963 28.57113147 175.5936323 31.625 180.9375 C32.75952627 182.88409199 33.89593605 184.82958885 35.03515625 186.7734375 C35.57285645 187.69092773 36.11055664 188.60841797 36.66455078 189.55371094 C38.20712696 192.1770881 39.7562983 194.79642662 41.30859375 197.4140625 C41.77668457 198.20466064 42.24477539 198.99525879 42.72705078 199.80981445 C43.58858946 201.26309002 44.45266282 202.71486738 45.31982422 204.16479492 C49.6709944 211.5005054 50.07421105 217.80183674 49.25 226.25 C47.20682866 231.93917538 43.16752008 235.90608635 38.25 239.25 C30.42839646 242.23643044 24.44923331 241.60628443 16.77734375 238.80859375 C9.42500675 234.27446321 5.73698405 226.17926975 1.75 218.8125 C0.51094695 216.56149041 -0.72998665 214.31151509 -1.97265625 212.0625 C-2.60059082 210.92425781 -3.22852539 209.78601563 -3.87548828 208.61328125 C-6.74152777 203.47098378 -9.70789961 198.38959338 -12.6875 193.3125 C-13.25307617 192.34594482 -13.81865234 191.37938965 -14.40136719 190.38354492 C-16.51771544 186.76687606 -18.63532145 183.15094498 -20.75494385 179.53619385 C-22.84051994 175.978692 -24.92034795 172.41793164 -26.99319458 168.85299683 C-27.97573053 167.1666541 -28.9642324 165.48379184 -29.95288086 163.80102539 C-30.55108643 162.77098389 -31.14929199 161.74094238 -31.765625 160.6796875 C-32.29446289 159.77460449 -32.82330078 158.86952148 -33.36816406 157.93701172 C-35.84894325 153.11307962 -36.99941994 148.84078223 -37.01069641 143.41921997 C-37.01778122 142.27820831 -37.02486603 141.13719666 -37.03216553 139.96160889 C-37.02968811 138.72404846 -37.02721069 137.48648804 -37.0246582 136.21142578 C-37.02976913 134.89691437 -37.03488007 133.58240295 -37.04014587 132.22805786 C-37.05350281 128.63292089 -37.05411818 125.03788927 -37.05158257 121.44273233 C-37.05051049 118.43592961 -37.05540236 115.429148 -37.060188 112.42234981 C-37.07127202 105.32533294 -37.07172699 98.22836899 -37.06567383 91.13134766 C-37.05963595 83.82293946 -37.07194277 76.51472388 -37.0932439 69.20634854 C-37.11088905 62.91994254 -37.11685662 56.63359769 -37.11360615 50.34716785 C-37.11179759 46.59775672 -37.1143865 42.84848297 -37.12832069 39.09909439 C-37.14328915 34.91505787 -37.1339035 30.73141054 -37.12231445 26.54736328 C-37.12995819 25.31385132 -37.13760193 24.08033936 -37.14547729 22.80944824 C-37.09214642 14.09128603 -36.21160586 6.71160586 -29.75 0.25 C-19.91568315 -6.55130324 -9.93984913 -6.32535854 0 0 Z " fill="#686868" transform="translate(270.75,110.75)"/>
</svg>
