<?xml version="1.0" encoding="UTF-8"?>
<svg version="1.1" xmlns="http://www.w3.org/2000/svg" width="512" height="512">
<path d="M0 0 C3.19771119 1.5988556 4.66449155 2.41598693 7.02441406 4.79736328 C7.58469299 5.35779327 8.14497192 5.91822327 8.722229 6.49563599 C9.31404968 7.09777924 9.90587036 7.69992249 10.515625 8.3203125 C11.13145447 8.93897186 11.74728394 9.55763123 12.3817749 10.19503784 C14.34260336 12.16703814 16.29635301 14.14588737 18.25 16.125 C19.58026799 17.46530164 20.910992 18.80515083 22.2421875 20.14453125 C25.5001015 23.42446589 28.75168533 26.71055942 32 30 C30.36256066 34.17615799 27.30218208 36.9648153 24.17333984 40.05371094 C23.28045006 40.9470388 23.28045006 40.9470388 22.36952209 41.8584137 C20.40469823 43.82184643 18.43288961 45.77810373 16.4609375 47.734375 C15.09572521 49.0958564 13.73095439 50.45778061 12.36660767 51.82012939 C8.77726841 55.40183824 5.1819632 58.9774999 1.58538818 62.55194092 C-2.08471319 66.20157121 -5.74914829 69.85688092 -9.4140625 73.51171875 C-16.60383652 80.68005329 -23.79992516 87.842013 -31 95 C-28.34132209 97.6609582 -25.68223431 100.32120163 -23.00488281 102.96337891 C-20.04975988 105.88258675 -17.10100422 108.80813861 -14.15429688 111.73583984 C-12.89374452 112.98637242 -11.63139807 114.23509936 -10.3671875 115.48193359 C-2.7477544 122.99974769 4.38600302 130.5702934 11 139 C11.98721915 140.18644341 12.97878867 141.36929401 13.9765625 142.546875 C27.33885676 158.58805943 38.34053504 176.52584662 48 195 C48.37769531 195.71833008 48.75539063 196.43666016 49.14453125 197.17675781 C51.52991705 201.74055006 53.80502059 206.34159046 56 211 C56.38285156 211.77988281 56.76570313 212.55976563 57.16015625 213.36328125 C60.80421403 222.09207083 60.52046827 234.76495975 57.5 243.625 C56.71131686 245.43676511 55.87282176 247.22723491 55 249 C54.44054687 250.18464844 53.88109375 251.36929688 53.3046875 252.58984375 C51.29348709 256.77456483 49.15835943 260.88968418 47 265 C46.45496826 266.05018311 46.45496826 266.05018311 45.89892578 267.12158203 C25.21858645 306.71432288 -5.26470953 343.15089178 -41 370 C-41.5470459 370.41459473 -42.0940918 370.82918945 -42.65771484 371.25634766 C-78.2523644 398.07190478 -119.83025906 414.49597365 -164 420 C-164.65669174 420.08578812 -165.31338348 420.17157623 -165.98997498 420.25996399 C-171.88499901 420.98187105 -177.71286998 421.19041351 -183.6484375 421.23828125 C-184.65061813 421.2480751 -185.65279877 421.25786896 -186.68534851 421.26795959 C-207.75415633 421.4315188 -228.33046957 421.58975978 -249 417 C-250.0219043 416.78037598 -251.04380859 416.56075195 -252.09667969 416.33447266 C-278.01345361 410.64984031 -301.32766503 400.83616748 -325 389 C-347.77 411.77 -370.54 434.54 -394 458 C-397.19771119 456.4011444 -398.66449155 455.58401307 -401.02441406 453.20263672 C-401.58469299 452.64220673 -402.14497192 452.08177673 -402.722229 451.50436401 C-403.31404968 450.90222076 -403.90587036 450.30007751 -404.515625 449.6796875 C-405.4393692 448.75169846 -405.4393692 448.75169846 -406.3817749 447.80496216 C-408.34260336 445.83296186 -410.29635301 443.85411263 -412.25 441.875 C-413.58026799 440.53469836 -414.910992 439.19484917 -416.2421875 437.85546875 C-419.5001015 434.57553411 -422.75168533 431.28944058 -426 428 C-424.36256066 423.82384201 -421.30218208 421.0351847 -418.17333984 417.94628906 C-417.57807999 417.35073715 -416.98282013 416.75518524 -416.36952209 416.1415863 C-414.40469823 414.17815357 -412.43288961 412.22189627 -410.4609375 410.265625 C-409.09572521 408.9041436 -407.73095439 407.54221939 -406.36660767 406.17987061 C-402.77726841 402.59816176 -399.1819632 399.0225001 -395.58538818 395.44805908 C-391.91528681 391.79842879 -388.25085171 388.14311908 -384.5859375 384.48828125 C-377.39616348 377.31994671 -370.20007484 370.157987 -363 363 C-365.65867791 360.3390418 -368.31776569 357.67879837 -370.99511719 355.03662109 C-373.95024012 352.11741325 -376.89899578 349.19186139 -379.84570312 346.26416016 C-381.10625548 345.01362758 -382.36860193 343.76490064 -383.6328125 342.51806641 C-391.25087375 335.00160587 -398.39892616 327.43843293 -405 319 C-406.0472508 317.72105929 -407.09766255 316.44469515 -408.15234375 315.171875 C-429.0478193 289.61875411 -455.71698552 254.32432417 -453 220 C-452.20021655 216.00108274 -450.79707216 212.64998555 -449 209 C-448.44054687 207.81535156 -447.88109375 206.63070312 -447.3046875 205.41015625 C-445.29348709 201.22543517 -443.15835943 197.11031582 -441 193 C-440.63664551 192.29987793 -440.27329102 191.59975586 -439.89892578 190.87841797 C-427.57085866 167.27619564 -411.59576157 145.90905841 -394 126 C-393.51805176 125.4534375 -393.03610352 124.906875 -392.53955078 124.34375 C-380.56910397 110.85318211 -367.44870611 98.7879816 -353 88 C-352.18378174 87.3824585 -352.18378174 87.3824585 -351.35107422 86.75244141 C-328.56883457 69.58587766 -303.17490083 56.59396885 -276 48 C-275.28183105 47.76587402 -274.56366211 47.53174805 -273.82373047 47.29052734 C-265.48584759 44.5820185 -257.10631778 42.4846161 -248.5 40.8125 C-247.3099939 40.5801062 -247.3099939 40.5801062 -246.09594727 40.34301758 C-229.76414353 37.34076365 -213.70368941 36.59362708 -197.125 36.625 C-195.50176315 36.62581573 -195.50176315 36.62581573 -193.84573364 36.62664795 C-177.23410323 36.66500101 -161.2729297 37.38652467 -145 41 C-143.9780957 41.21962402 -142.95619141 41.43924805 -141.90332031 41.66552734 C-115.98654639 47.35015969 -92.67233497 57.16383252 -69 69 C-46.23 46.23 -23.46 23.46 0 0 Z M-229 82 C-229.79583496 82.1129541 -230.59166992 82.2259082 -231.41162109 82.34228516 C-286.57518455 90.47153785 -338.9803697 123.64181052 -372.43432617 168.09423828 C-373.22882542 169.17540254 -374.01824416 170.26032076 -374.80224609 171.34912109 C-376.07632309 173.10519706 -377.38782314 174.82839103 -378.70703125 176.55078125 C-385.24584692 185.15731982 -391.09546611 194.09403732 -396.49414062 203.45605469 C-398.1456359 206.24603212 -399.89336251 208.96441274 -401.640625 211.6953125 C-407.72002183 220.86507716 -407.72002183 220.86507716 -409.87988281 231.32275391 C-408.63329766 235.825914 -406.13576903 239.41057883 -403.35644531 243.11279297 C-401.5590025 245.61355483 -400.1772266 248.26099002 -398.7512207 250.98510742 C-391.15563112 265.37262196 -381.28181928 278.44531965 -371 291 C-370.5457666 291.55864746 -370.0915332 292.11729492 -369.62353516 292.69287109 C-358.15909554 306.71125003 -345.45573419 320.04111727 -331 331 C-325.44560076 326.37508621 -320.31474331 321.44639036 -315.22265625 316.3203125 C-314.41130722 315.50754852 -313.59995819 314.69478455 -312.76402283 313.85739136 C-310.1944741 311.28228262 -307.62844032 308.7037038 -305.0625 306.125 C-303.31208071 304.36956054 -301.561432 302.61434983 -299.81054688 300.859375 C-295.53770698 296.57555918 -291.26774101 292.28889528 -287 288 C-288.53500394 284.06808264 -290.33518904 280.41852357 -292.3125 276.6875 C-305.14265627 251.61723384 -306.85502805 221.62292461 -298.31835938 194.86328125 C-288.6787416 166.98008934 -269.1742884 145.04906734 -242.75 132.1875 C-216.17133219 119.90401832 -185.40432632 119.87368353 -158.10107422 129.50830078 C-152.40431425 131.65038864 -147.46574187 134.45760776 -142.41796875 137.875 C-141.62003906 138.24625 -140.82210938 138.6175 -140 139 C-136.84198446 137.81975631 -134.77772285 136.02233272 -132.42480469 133.65185547 C-131.74440125 132.97130096 -131.0639978 132.29074646 -130.36297607 131.58956909 C-129.63991272 130.85618317 -128.91684937 130.12279724 -128.171875 129.3671875 C-127.04836639 128.23943405 -127.04836639 128.23943405 -125.90216064 127.08889771 C-123.5133698 124.68892099 -121.13163103 122.28207991 -118.75 119.875 C-117.13066831 118.24563648 -115.51088198 116.61672466 -113.890625 114.98828125 C-109.92179495 110.99741194 -105.95873101 107.00088585 -102 103 C-134.42065129 78.25574325 -190.47782486 76.2561047 -229 82 Z M-64 127 C-78.19 141.19 -92.38 155.38 -107 170 C-105.40801476 173.97996309 -103.68597538 177.54154091 -101.6875 181.3125 C-88.85734373 206.38276616 -87.14497195 236.37707539 -95.68164062 263.13671875 C-104.79353172 289.49342852 -123.21973505 311.55523842 -148.07592773 324.28588867 C-174.18222078 336.9783343 -204.93186831 339.02110021 -232.36376953 329.58789062 C-239.45382863 327.04578116 -245.9530369 324.33726353 -252.08984375 319.87109375 C-252.72019531 319.58363281 -253.35054687 319.29617188 -254 319 C-257.14504311 320.22139612 -259.2175671 321.97292207 -261.57519531 324.34814453 C-262.25559875 325.02869904 -262.9360022 325.70925354 -263.63702393 326.41043091 C-264.72161896 327.5105098 -264.72161896 327.5105098 -265.828125 328.6328125 C-266.57713074 329.38464813 -267.32613647 330.13648376 -268.09783936 330.91110229 C-270.4866302 333.31107901 -272.86836897 335.71792009 -275.25 338.125 C-276.86933169 339.75436352 -278.48911802 341.38327534 -280.109375 343.01171875 C-284.07820505 347.00258806 -288.04126899 350.99911415 -292 355 C-260.20609772 379.26590613 -206.37038775 381.05627042 -168.53613281 376.41015625 C-111.39862869 368.70235684 -58.60052101 337.45476191 -23.125 291.875 C-21.82826028 290.17067885 -20.54730918 288.45652313 -19.27832031 286.73144531 C-17.96238257 284.94904835 -16.62024697 283.18884403 -15.2734375 281.4296875 C-6.1026123 269.33602531 1.58243876 256.37490006 9.0625 243.1875 C9.61768311 242.21018921 9.61768311 242.21018921 10.18408203 241.21313477 C14.62276787 233.53423095 14.62276787 233.53423095 14 225 C12.94520873 222.50685701 11.85945894 220.14921856 10.625 217.75 C10.27268311 217.05890137 9.92036621 216.36780273 9.55737305 215.65576172 C-1.12343102 195.08686051 -14.52526911 176.22086607 -30 159 C-30.70769531 158.20770996 -30.70769531 158.20770996 -31.4296875 157.39941406 C-46.02898602 140.13382226 -46.02898602 140.13382226 -64 127 Z M-239 181 C-239.71671875 181.60457031 -240.4334375 182.20914063 -241.171875 182.83203125 C-251.41094839 192.25753486 -259.0436466 206.35185773 -260.19287109 220.34912109 C-260.61114839 232.93546506 -260.07971857 243.352931 -255 255 C-249.78936078 250.64304101 -244.92583419 246.0641384 -240.13696289 241.25048828 C-239.00889221 240.12263664 -239.00889221 240.12263664 -237.85803223 238.97200012 C-235.39386004 236.507136 -232.93324049 234.03875789 -230.47265625 231.5703125 C-228.75652073 229.85231025 -227.04016306 228.13452988 -225.32359314 226.41696167 C-220.82186792 221.91143139 -216.32315483 217.40290529 -211.82507324 212.89373779 C-207.22830491 208.28671199 -202.62867923 203.68254087 -198.02929688 199.078125 C-189.01674068 190.05486698 -180.00726818 181.02853652 -171 172 C-176.51563549 166.48436451 -187.3119867 165.35884694 -194.84765625 164.97265625 C-211.70944817 165.11891715 -226.10664766 170.08224197 -239 181 Z M-141.41928959 204.29624176 C-142.03043834 204.9083123 -142.64158709 205.52038284 -143.27125549 206.15100098 C-143.97100494 206.84937576 -144.67075439 207.54775055 -145.39170837 208.26728821 C-146.1642244 209.04339951 -146.93674042 209.8195108 -147.73266602 210.61914062 C-148.5423584 211.42868698 -149.35205078 212.23823334 -150.1862793 213.0723114 C-152.87786358 215.76459565 -155.56588266 218.46041105 -158.25390625 221.15625 C-160.11314013 223.01734776 -161.97259405 224.87822572 -163.83226013 226.7388916 C-168.23643597 231.14618105 -172.63805555 235.55601442 -177.03877443 239.96675539 C-182.04761995 244.98676113 -187.05929029 250.00394261 -192.07120621 255.02088261 C-202.38396207 265.34410352 -212.69314558 275.67088705 -223 286 C-217.48436451 291.51563549 -206.6880133 292.64115306 -199.15234375 293.02734375 C-180.277381 292.86362041 -165.02510622 286.66781111 -151.46875 273.55078125 C-136.99712217 258.18673637 -133.27213227 241.95968106 -133.85058594 221.47949219 C-134.25097199 214.83517723 -136.53260125 209.09340213 -139 203 C-140.19729182 202.88760434 -140.19729182 202.88760434 -141.41928959 204.29624176 Z " fill="#BA8C07" transform="translate(453,27)"/>
</svg>
