<?xml version="1.0" encoding="UTF-8"?>
<svg version="1.1" xmlns="http://www.w3.org/2000/svg" width="512" height="512">
<path d="M0 0 C3.70709058 0.01028994 7.41414612 0.00069083 11.12123871 -0.00554466 C17.34087605 -0.01277541 23.56032199 -0.00335492 29.77993011 0.01581764 C36.92033165 0.03757763 44.06027594 0.03052298 51.20066643 0.00851202 C57.38558742 -0.00977383 63.57037261 -0.01213664 69.75531197 -0.0017333 C73.42552023 0.00442999 77.09551527 0.00553953 80.76570892 -0.00787926 C116.75327581 -0.12139939 144.60053633 8.023009 170.94985199 33.04902077 C194.94424363 57.72356839 199.96331836 88.2203454 199.84262276 121.23198128 C199.83233281 124.93907186 199.84193193 128.64612739 199.84816742 132.35321999 C199.85539817 138.57285732 199.84597768 144.79230327 199.82680511 151.01191139 C199.80504512 158.15231293 199.81209977 165.29225722 199.83411074 172.43264771 C199.85239659 178.6175687 199.8547594 184.80235389 199.84435606 190.98729324 C199.83819276 194.65750151 199.83708322 198.32749654 199.85050201 201.9976902 C199.96402214 237.98525709 191.81961376 265.83251761 166.79360199 292.18183327 C142.11905437 316.17622491 111.62227736 321.19529964 78.61064148 321.07460403 C74.9035509 321.06431409 71.19649536 321.0739132 67.48940277 321.0801487 C61.26976543 321.08737944 55.05031949 321.07795895 48.83071136 321.05878639 C41.69030983 321.0370264 34.55036554 321.04408105 27.40997505 321.06609201 C21.22505406 321.08437787 15.04026887 321.08674068 8.85532951 321.07633734 C5.18512125 321.07017404 1.51512621 321.0690645 -2.15506744 321.08248329 C-38.14263433 321.19600342 -65.98989485 313.05159504 -92.33921051 288.02558327 C-116.33360215 263.35103564 -121.35267688 232.85425864 -121.23198128 199.84262276 C-121.22169133 196.13553218 -121.23129045 192.42847664 -121.23752594 188.72138405 C-121.24475669 182.50174671 -121.2353362 176.28230077 -121.21616364 170.06269264 C-121.19440364 162.92229111 -121.20145829 155.78234682 -121.22346926 148.64195633 C-121.24175511 142.45703534 -121.24411792 136.27225014 -121.23371458 130.08731079 C-121.22755128 126.41710252 -121.22644174 122.74710749 -121.23986053 119.07691383 C-121.35338067 83.08934695 -113.20897228 55.24208643 -88.18296051 28.89277077 C-63.50841289 4.89837913 -33.01163588 -0.12069561 0 0 Z M-61.94858551 64.91620827 C-77.74722585 83.59277929 -78.31070611 104.51777337 -78.22592926 127.78730202 C-78.22862996 130.41653524 -78.23251717 133.04576749 -78.23752594 135.67499733 C-78.24475626 141.16173434 -78.23533744 146.64825438 -78.21616364 152.13495827 C-78.1944036 158.43354755 -78.20145829 164.73161848 -78.22346926 171.03019524 C-78.24397061 177.14701249 -78.24159509 183.26360417 -78.22994232 189.38044167 C-78.22729537 191.95734672 -78.23047227 194.53426524 -78.23986053 197.11115456 C-78.30990762 221.73467183 -75.75441659 242.11272151 -57.69467926 260.53730202 C-38.44617179 277.09486265 -17.73137621 278.15703468 6.55532074 278.06855202 C9.18455397 278.07125272 11.81378621 278.07513993 14.44301605 278.0801487 C19.92975306 278.08737902 25.4162731 278.0779602 30.90297699 278.05878639 C37.20156627 278.03702635 43.4996372 278.04408104 49.79821396 278.06609201 C55.91503121 278.08659336 62.03162289 278.08421785 68.14846039 278.07256508 C70.72536545 278.06991813 73.30228396 278.07309502 75.87917328 278.08248329 C100.50269055 278.15253038 120.88074023 275.59703935 139.30532074 257.53730202 C155.86288137 238.28879455 156.9250534 217.57399897 156.83657074 193.28730202 C156.83927144 190.65806879 156.84315865 188.02883655 156.84816742 185.3996067 C156.85539774 179.91286969 156.84597892 174.42634966 156.82680511 168.93964577 C156.80504508 162.64105649 156.81209977 156.34298556 156.83411074 150.0444088 C156.85461208 143.92759155 156.85223657 137.81099987 156.8405838 131.69416237 C156.83793685 129.11725731 156.84111375 126.54033879 156.85050201 123.96344948 C156.91999256 99.53557124 154.18208832 79.29880654 136.7179184 60.92939186 C133.27563164 57.53707954 129.46847361 54.9552612 125.30532074 52.53730202 C124.55121918 52.07968483 123.79711761 51.62206764 123.02016449 51.15058327 C107.09259012 42.29602189 89.71429424 42.94171585 72.05532074 43.00605202 C69.42608751 43.00335131 66.79685527 42.9994641 64.16762543 42.99445534 C58.68088842 42.98722501 53.19436838 42.99664384 47.70766449 43.01581764 C41.40907521 43.03757768 35.11100428 43.03052299 28.81242752 43.00851202 C22.69561027 42.98801067 16.57901859 42.99038618 10.46218109 43.00203896 C7.88527603 43.00468591 5.30835752 43.00150901 2.7314682 42.99212074 C-22.40300197 42.92062013 -43.7453086 45.70339087 -61.94858551 64.91620827 Z " fill="#BB8C07" transform="translate(312.6946792602539,191.4626979827881)"/>
<path d="M0 0 C8.52462649 6.96550391 16.31981718 14.62424856 24.06201172 22.43847656 C26.10926601 24.50415909 28.16458237 26.5615548 30.22119141 28.61791992 C31.55239536 29.95403559 32.88314103 31.29060805 34.21337891 32.62768555 C35.11514359 33.53111946 35.11514359 33.53111946 36.03512573 34.45280457 C38.97831507 37.42847157 41.81093464 40.45237251 44.53735352 43.62841797 C48.8357016 48.59299283 53.49938379 53.16889228 58.17041016 57.7800293 C59.59913527 59.19934462 61.02785449 60.61866593 62.4562273 62.0383358 C65.94372103 65.50305772 69.43674582 68.96218724 72.93237305 72.41870117 C74.90622668 74.3708881 76.87733896 76.32577113 78.84565735 78.28353882 C80.69001793 80.11760773 82.53846804 81.94757588 84.39152527 83.77285767 C90.51302153 89.8696724 95.61148549 95.02325269 97.22119141 103.8034668 C97.22119141 110.66214561 96.350047 116.52924401 91.45556641 121.65112305 C86.32280955 126.42145242 82.01948736 128.74721577 74.97119141 129.2409668 C67.73906454 128.9406293 62.32315835 126.1810825 57.36425781 120.91088867 C56.26336629 119.70137676 55.16652361 118.48817282 54.07275391 117.2722168 C47.0447501 109.62541767 39.76478376 102.25684281 32.40869141 94.9284668 C31.8375423 94.35892776 31.2663932 93.78938873 30.67793655 93.20259094 C26.52921256 89.06600348 22.37574689 84.93419627 18.22119141 80.8034668 C14.03384794 76.63993176 9.84828627 72.4746338 5.66690063 68.30511475 C4.01674723 66.66134635 2.36357298 65.02066103 0.71020508 63.38012695 C-4.66745772 58.02857949 -9.86836247 52.59229905 -14.77880859 46.8034668 C-27.44510356 32.90143573 -43.55600671 24.12702637 -62.44287109 22.8425293 C-78.57725604 22.65360207 -94.60055194 27.6613201 -106.73583984 38.5612793 C-107.84184761 39.67477695 -108.93078091 40.80567383 -109.99640846 41.95787525 C-111.76095751 43.78498283 -113.59637263 45.42655162 -115.52767944 47.07511902 C-119.54166554 50.55858739 -123.34421746 54.20805386 -127.109375 57.95703125 C-127.79340897 58.63449402 -128.47744293 59.31195679 -129.1822052 60.00994873 C-131.41779228 62.22601747 -133.64951594 64.44591638 -135.88037109 66.66674805 C-136.64885754 67.43115896 -137.41734398 68.19556988 -138.20911789 68.98314476 C-142.27143908 73.02470335 -146.33054449 77.06946125 -150.38720703 81.11669922 C-154.55913337 85.27754164 -158.7426109 89.42656734 -162.92876625 93.57308674 C-166.16464719 96.78275042 -169.39154151 100.00133761 -172.61613083 103.22234154 C-174.15402704 104.75539038 -175.6952786 106.2850814 -177.24003983 107.81121254 C-188.46878922 118.68172103 -188.46878922 118.68172103 -196.77880859 131.8034668 C-197.30990234 132.86436523 -197.84099609 133.92526367 -198.38818359 135.01831055 C-205.20821172 151.29762427 -205.35084379 167.14300208 -199.77880859 183.8034668 C-194.60025882 196.25345175 -185.84610099 204.92990618 -176.33349609 214.1862793 C-174.46454057 216.10095851 -172.7707325 217.99227117 -171.05761719 220.03344727 C-165.66686209 226.21178576 -159.74642683 231.87844496 -153.90746307 237.62771606 C-150.97464827 240.51809163 -148.0514556 243.41811925 -145.12759781 246.31755066 C-139.69935482 251.70023483 -134.26729582 257.07892357 -128.81884766 262.44116211 C-125.01331276 266.18721701 -121.22018133 269.94544663 -117.43488312 273.71194458 C-115.9961376 275.13897893 -114.5528768 276.56147642 -113.10497284 277.97921753 C-111.08051009 279.96253078 -109.07226312 281.96103048 -107.06689453 283.96362305 C-106.47152893 284.53944122 -105.87616333 285.1152594 -105.26275635 285.70852661 C-100.2905917 290.72982224 -98.14570386 295.55382301 -97.34130859 302.6784668 C-97.61749807 308.52447731 -99.58793145 314.22534018 -103.39208984 318.7019043 C-109.09884125 323.88986012 -114.73211377 325.26430593 -122.34130859 325.0378418 C-134.14929785 323.90245821 -144.75629196 311.9482133 -152.03561401 303.31246948 C-157.45551564 296.91846869 -163.4061936 291.07603334 -169.35558701 285.18208885 C-171.31052788 283.2447599 -173.26171544 281.30371993 -175.21194458 279.36164856 C-180.75254245 273.84530581 -186.29876806 268.334648 -191.84960938 262.82861328 C-195.25961832 259.4456134 -198.66455326 256.05757203 -202.06656265 252.6665287 C-203.35225343 251.38698228 -204.63982946 250.10932689 -205.92943954 248.8337307 C-213.36094535 241.4822699 -220.37155299 234.08303892 -226.77880859 225.8034668 C-227.41156708 224.98988205 -228.04432556 224.1762973 -228.69625854 223.33805847 C-246.14141385 200.43637703 -250.80057181 170.22884761 -247.31787109 142.22924805 C-246.66226519 138.66198061 -245.82667053 135.27525087 -244.77880859 131.8034668 C-244.48079346 130.79848145 -244.48079346 130.79848145 -244.17675781 129.77319336 C-239.71257914 115.05310757 -232.94115106 102.45345255 -222.77880859 90.8034668 C-222.08013672 89.99522461 -221.38146484 89.18698242 -220.66162109 88.35424805 C-214.01569301 80.82140785 -207.06412166 73.42120211 -199.3918457 66.9230957 C-193.96421857 62.18527069 -188.93320236 57.0536004 -183.86764908 51.93690681 C-182.06082256 50.11245083 -180.25027157 48.29176475 -178.43869019 46.47203064 C-173.29363173 41.30272973 -168.1542916 36.12777208 -163.01953125 30.94824219 C-159.86346419 27.76517973 -156.70236776 24.58718142 -153.53826523 21.41210747 C-152.34441669 20.21211229 -151.1524598 19.01023167 -149.96255875 17.8063221 C-110.1905347 -22.42984741 -47.66660644 -37.67847989 0 0 Z " fill="#BB8C07" transform="translate(247.77880859375,21.196533203125)"/>
<path d="M0 0 C4.51595159 3.79750475 9.28342706 8.90913003 10 15 C10.4891914 22.33787096 9.51075768 28.01423411 4.6875 33.75 C-1.51427746 38.94218578 -5.72955831 41.33969001 -13.84765625 41.21875 C-19.70103207 40.62385155 -24.84930808 38.15069192 -29 34 C-33.23531064 27.87596975 -34.75488863 22.42756487 -34 15 C-32.58432013 9.34768993 -30.25202797 4.24906607 -25.328125 0.84375 C-17.09577171 -4.08158958 -8.51943406 -4.58034089 0 0 Z " fill="#BB8C07" transform="translate(204,109)"/>
<path d="M0 0 C4.90708223 4.90708223 7.04375389 10.15630831 7.5 17 C7.40116071 22.89741081 5.73006929 27.48991761 1.9375 32 C-4.25923987 37.18796827 -8.48187929 39.60086236 -16.59765625 39.46484375 C-23.07579351 38.81820573 -27.57139544 36.241111 -31.75 31.25 C-36.16867079 25.23569809 -37.49662443 20.72981929 -36.75 13.25 C-35.08419903 6.12771713 -31.5582004 2.31316764 -25.6875 -2 C-17.13142221 -7.09723783 -8.03343166 -5.11218378 0 0 Z " fill="#BB8C07" transform="translate(142.75,174.75)"/>
<path d="M0 0 C5.4887219 3.97932338 9.43685851 8.3031231 11.5 14.8125 C12.3969215 21.02753184 12.01429931 26.5384707 8.8359375 32.02734375 C4.78057193 37.44635564 -0.24942896 41.19221698 -7.04296875 42.18359375 C-14.20920869 42.36354365 -19.63285444 41.05164481 -25.5 36.8125 C-31.20643336 30.81746541 -31.86691848 25.0774208 -31.76953125 17.109375 C-31.31024245 11.49140764 -29.71748567 7.84705426 -25.55859375 4.03125 C-17.99997749 -1.87087393 -9.21371181 -3.12608079 0 0 Z " fill="#BA8C07" transform="translate(415.5,385.1875)"/>
<path d="M0 0 C5.52013044 3.08039076 8.60528998 6.87836995 10.625 12.9375 C11.25606462 20.49993008 11.64723759 27.81621319 6.625 33.9375 C-0.0649654 40.07557691 -5.20758247 41.24223835 -14.20703125 41.15234375 C-19.392995 40.80064461 -22.10040858 38.99965952 -26 35.75 C-31.08253758 29.73120549 -33.0951236 24.57135041 -32.75390625 16.61328125 C-31.78450791 9.76753009 -28.47349851 5.49959389 -23.25390625 1.1640625 C-16.04505584 -3.54192301 -7.71848698 -3.50735432 0 0 Z " fill="#BA8C07" transform="translate(309.375,279.0625)"/>
</svg>
