<?xml version="1.0" encoding="UTF-8"?>
<svg version="1.1" xmlns="http://www.w3.org/2000/svg" width="512" height="512">
<path d="M0 0 C0.78395574 -0.00350607 1.56791149 -0.00701215 2.37562346 -0.01062447 C5.00647415 -0.01993938 7.63710351 -0.01501491 10.26796341 -0.01015663 C12.17167442 -0.01389285 14.07538389 -0.01849425 15.97909093 -0.02388728 C21.21377335 -0.03613629 26.44839195 -0.03585457 31.68308544 -0.03349853 C37.32740581 -0.03309084 42.97170558 -0.04412492 48.61601639 -0.05361366 C59.6757165 -0.07023515 70.7353953 -0.07572373 81.79510686 -0.07683842 C90.7842031 -0.07778836 99.7732923 -0.08189598 108.76238632 -0.08823967 C130.09527378 -0.10298832 151.42815466 -0.11528906 172.76104736 -0.11424255 C173.7843971 -0.11419582 173.7843971 -0.11419582 174.82842057 -0.11414814 C178.28624176 -0.11398192 181.74406294 -0.11378384 185.20188412 -0.11357872 C185.88861623 -0.11353883 186.57534835 -0.11349894 187.28289052 -0.11345784 C188.67163053 -0.11337697 190.06037054 -0.11329337 191.44911054 -0.11320706 C213.05340759 -0.11198168 234.65764185 -0.12699236 256.26192093 -0.15435219 C280.5360684 -0.18508051 304.81016179 -0.20225888 329.0843327 -0.20042574 C341.93624934 -0.19976147 354.78809516 -0.20527023 367.63999557 -0.22678185 C378.58233846 -0.24497967 389.52457843 -0.24935244 400.46692988 -0.235763 C406.04991711 -0.2292263 411.63270683 -0.22914167 417.21567535 -0.2464695 C422.32818202 -0.26217395 427.44033416 -0.25936324 432.55283204 -0.24190123 C434.40073382 -0.23882557 436.24866189 -0.24248501 438.09653267 -0.25362138 C450.66810983 -0.32435748 460.79941957 0.39613125 470.32051468 9.39789391 C477.96125344 17.49809803 479.66560864 25.31076034 479.38301468 36.27289391 C478.68127316 45.33335402 474.87506869 52.25826921 468.07442093 58.25726891 C460.65135793 63.4205676 453.12836203 65.56744496 444.08826351 65.5117445 C443.30990742 65.51495098 442.53155133 65.51815746 441.72960868 65.5214611 C439.12382346 65.52975641 436.51826835 65.52383845 433.9124794 65.51796532 C432.02440484 65.52098622 430.13633149 65.52487539 428.24826032 65.52955788 C423.06144003 65.53985462 417.87468874 65.53765178 412.68786275 65.53337729 C407.09332428 65.5309131 401.49880254 65.53992044 395.90427017 65.54741478 C384.94430034 65.56017256 373.98435499 65.56195411 363.02437898 65.55961452 C354.11635198 65.55783232 345.20833243 65.55957888 336.30030632 65.56383896 C334.39938664 65.56473174 334.39938664 65.56473174 332.46006453 65.56564256 C329.88566658 65.5668543 327.31126863 65.56806843 324.73687068 65.56928494 C307.44800228 65.57707367 290.15913827 65.58099024 272.87026882 65.57696819 C272.19423312 65.57681182 271.51819742 65.57665544 270.82167578 65.57649433 C267.39531162 65.57568855 263.96894746 65.57484278 260.54258331 65.57398102 C259.86210529 65.57380994 259.18162728 65.57363885 258.48052872 65.57346258 C257.10443674 65.57311592 255.72834476 65.57276739 254.35225277 65.57241699 C232.9424872 65.56706034 211.53276281 65.57498872 190.12300491 65.59345055 C166.06456561 65.61417209 142.00615819 65.62486183 117.947707 65.62087506 C105.21095569 65.61896171 92.4742419 65.62146354 79.73749733 65.6355896 C68.89400427 65.64749408 58.05057182 65.64891878 47.20707794 65.63679943 C41.67474807 65.63090409 36.14252913 65.62982949 30.6102066 65.64180183 C25.54405035 65.65263793 20.47809796 65.64958425 15.41195134 65.63554015 C13.5809047 65.63288696 11.7498422 65.63527926 9.91881111 65.64327601 C-2.39540147 65.69331614 -13.04506199 65.50678937 -22.88261032 57.28851891 C-29.09180484 51.11494118 -33.12140104 44.06845381 -33.30619431 35.22968102 C-33.2785194 24.27643399 -31.49436789 17.26215539 -23.85136032 9.04633141 C-16.89029701 2.57946123 -9.46987406 -0.05387201 0 0 Z " fill="#BB8C08" transform="translate(32.92557907104492,372.74273109436035)"/>
<path d="M0 0 C0.77489456 -0.00205263 1.54978912 -0.00410527 2.34816533 -0.0062201 C4.96018072 -0.01190128 7.57214356 -0.01043147 10.18416405 -0.00901413 C12.06964853 -0.01159713 13.95513246 -0.01461011 15.84061563 -0.01801753 C21.03419564 -0.02609853 26.22776183 -0.02787772 31.42134738 -0.028615 C37.01797975 -0.03046366 42.61460492 -0.03801008 48.21123314 -0.04475021 C60.45507791 -0.05834218 72.69891942 -0.06435968 84.94277048 -0.06876087 C92.58600401 -0.071522 100.22923627 -0.07575914 107.87246895 -0.08026505 C129.0285599 -0.09245916 150.18464978 -0.10279337 171.34074402 -0.10614014 C172.70893578 -0.10636177 174.07712755 -0.10658355 175.44531932 -0.10680549 C176.81681344 -0.10702613 178.18830757 -0.10724661 179.5598017 -0.10746694 C182.31124727 -0.10790949 185.06269284 -0.1083566 187.81413841 -0.10880661 C188.49633723 -0.108916 189.17853605 -0.10902539 189.88140756 -0.1091381 C211.9986214 -0.11276822 234.11580245 -0.12868631 256.23300374 -0.15199697 C279.61790164 -0.17659865 303.00277558 -0.19030642 326.38768899 -0.19150805 C339.13454887 -0.19242517 351.88136582 -0.19818658 364.62821388 -0.21632767 C375.48275486 -0.23172102 386.33723965 -0.23685364 397.19178946 -0.22858956 C402.73017721 -0.22468029 408.26845178 -0.2256263 413.80682564 -0.23964691 C418.87864795 -0.25236901 423.95027185 -0.25120307 429.02209382 -0.2390562 C430.85525095 -0.23709627 432.68842206 -0.24019126 434.52155955 -0.24890056 C446.83909307 -0.30370841 457.50525997 -0.12926152 467.34001732 8.10408401 C473.7723987 14.48726936 477.55801128 21.73288823 477.7636013 30.89119339 C477.73432459 41.59374296 475.67238856 48.42686663 468.30876732 56.34236526 C461.34991543 62.80718101 453.92985052 65.44163952 444.46299362 65.39148998 C443.67963707 65.39529565 442.89628052 65.39910132 442.08918589 65.40302232 C439.46035749 65.4133409 436.83174489 65.40943143 434.20290184 65.40558243 C432.30061591 65.41003469 430.39833183 65.4153487 428.49605048 65.42145115 C423.26523257 65.4356431 418.03447405 65.43729422 412.80363965 65.43685424 C407.16336857 65.4385014 401.52312204 65.45156607 395.882864 65.46304703 C383.54809655 65.48590436 371.2133463 65.49381848 358.87856054 65.49887347 C351.17667033 65.50212974 343.47478511 65.50865181 335.77289772 65.51587486 C314.44859395 65.53544201 293.12429664 65.55192675 271.79998398 65.5547514 C270.77700989 65.55489249 270.77700989 65.55489249 269.73336967 65.55503643 C266.96964028 65.55541491 264.20591089 65.5557789 261.44218149 65.55613941 C259.36206557 65.55641113 257.28194965 65.55668781 255.20183372 65.55696487 C254.51448283 65.5570529 253.82713193 65.55714092 253.11895222 65.55723161 C231.52804951 65.56013625 209.93723639 65.58222517 188.34636497 65.61848831 C164.08464698 65.65923633 139.82300961 65.68289055 115.56125128 65.68321091 C102.71707639 65.68379559 89.87301677 65.6922945 77.02887154 65.72120857 C66.09169522 65.74571649 55.15467622 65.75300924 44.21747987 65.73796105 C38.63825228 65.73078977 33.05933539 65.73165943 27.48014259 65.75437164 C22.36870097 65.77498012 17.25780855 65.77234343 12.14637275 65.7514968 C10.30112461 65.74800552 8.45583669 65.7528965 6.61064069 65.76720124 C-5.8172621 65.85730776 -16.45078267 65.12447087 -26.11701393 56.31892776 C-33.59214338 48.11338027 -35.25675843 39.39379409 -35.01935768 28.58064651 C-34.52741788 20.36472667 -30.70802175 13.73916866 -24.80451393 8.13142776 C-17.25423966 2.18975319 -9.45881747 -0.0232001 0 0 Z " fill="#BA8C08" transform="translate(34.617013931274414,73.86857223510742)"/>
<path d="M0 0 C0.78733249 -0.00350607 1.57466498 -0.00701215 2.38585603 -0.01062447 C5.02819321 -0.01993982 7.67031005 -0.0150148 10.3126564 -0.01015663 C12.224617 -0.01389282 14.13657608 -0.01849422 16.04853272 -0.02388728 C21.30601822 -0.03613656 26.56344017 -0.03585453 31.82093668 -0.03349853 C37.48979711 -0.03309085 43.15863704 -0.04412485 48.82748795 -0.05361366 C59.93531498 -0.0702353 71.04312079 -0.07572374 82.15095922 -0.07683842 C91.17914776 -0.07778836 100.20732928 -0.08189594 109.23551559 -0.08823967 C130.66104944 -0.10298834 152.08657636 -0.11528906 173.51211548 -0.11424255 C174.5399138 -0.11419582 174.5399138 -0.11419582 175.58847572 -0.11414814 C179.06133 -0.11398192 182.53418428 -0.11378384 186.00703856 -0.11357872 C186.69675656 -0.11353883 187.38647455 -0.11349894 188.09709309 -0.11345784 C189.49187127 -0.11337697 190.88664946 -0.11329337 192.28142764 -0.11320706 C213.9797099 -0.11198167 235.67792963 -0.1269924 257.376194 -0.15435219 C281.75581637 -0.18508031 306.13538724 -0.2022589 330.51503205 -0.20042574 C343.42283991 -0.19976146 356.33057727 -0.20527051 369.23836899 -0.22678185 C380.22828888 -0.24497942 391.21810631 -0.24935265 402.20803472 -0.235763 C407.81532483 -0.22922617 413.4224183 -0.22914214 419.02968979 -0.2464695 C424.16440101 -0.26217338 429.29875922 -0.25936382 434.4334617 -0.24190123 C436.28943879 -0.23882544 438.14544205 -0.24248548 440.00138828 -0.25362138 C451.87730192 -0.32014993 462.37913744 0.02445451 471.51193619 8.55414391 C478.9055991 16.77770775 480.62508685 25.49172525 480.35568619 36.26898766 C479.88135984 44.65468221 476.26849096 51.6602059 470.04318619 57.25726891 C463.16414474 62.43030808 456.72814482 64.5634816 448.08637238 64.51453781 C447.29903988 64.51804389 446.51170739 64.52154996 445.70051634 64.52516228 C443.05817917 64.53447763 440.41606232 64.52955261 437.77371597 64.52469444 C435.86175537 64.52843063 433.9497963 64.53303203 432.03783965 64.53842509 C426.78035416 64.55067437 421.52293221 64.55039234 416.2654357 64.54803634 C410.59657526 64.54762866 404.92773534 64.55866266 399.25888443 64.56815147 C388.15105739 64.58477311 377.04325158 64.59026155 365.93541315 64.59137623 C356.90722462 64.59232617 347.8790431 64.59643375 338.85085678 64.60277748 C317.42532294 64.61752615 295.99979602 64.62982687 274.5742569 64.62878036 C273.54645858 64.62873363 273.54645858 64.62873363 272.49789665 64.62868595 C269.02504237 64.62851973 265.55218809 64.62832165 262.07933381 64.62811653 C261.38961582 64.62807664 260.69989783 64.62803675 259.98927929 64.62799565 C258.5945011 64.62791478 257.19972292 64.62783118 255.80494474 64.62774487 C234.10666248 64.62651948 212.40844274 64.64153021 190.71017838 64.66889 C166.330556 64.69961812 141.95098514 64.71679671 117.57134032 64.71496356 C104.66353246 64.71429927 91.7557951 64.71980832 78.84800339 64.74131966 C67.8580835 64.75951723 56.86826607 64.76389047 45.87833765 64.75030081 C40.27104754 64.74376398 34.66395408 64.74367995 29.05668259 64.76100731 C23.92197137 64.77671119 18.78761315 64.77390163 13.65291068 64.75643905 C11.79693359 64.75336325 9.94093033 64.75702329 8.08498409 64.7681592 C-3.79092954 64.83468774 -14.29276506 64.4900833 -23.42556381 55.96039391 C-30.81922672 47.73683006 -32.53871448 39.02281256 -32.26931381 28.24555016 C-31.79498746 19.8598556 -28.18211858 12.85433191 -21.95681381 7.25726891 C-15.07777236 2.08422974 -8.64177244 -0.04894379 0 0 Z " fill="#BB8C07" transform="translate(31.95681381225586,223.74273109436035)"/>
</svg>
