<?xml version="1.0" encoding="UTF-8"?>
<svg version="1.1" xmlns="http://www.w3.org/2000/svg" width="512" height="512">
<path d="M0 0 C0 14.85 0 29.7 0 45 C-6.6 46.65 -13.2 48.3 -20 50 C-23.81750514 51.20438922 -27.51872525 52.40629968 -31.25 53.8125 C-32.16201172 54.15087891 -33.07402344 54.48925781 -34.01367188 54.83789062 C-42.32355164 57.99272919 -50.20036687 61.75294672 -58 66 C-59.15371094 66.61359375 -60.30742187 67.2271875 -61.49609375 67.859375 C-110.5968153 94.83411873 -146.48866156 141.39423867 -162.1640625 194.96630859 C-176.11745045 245.60439231 -171.75944452 299.96848417 -148 347 C-147.66774414 347.67095703 -147.33548828 348.34191406 -146.99316406 349.03320312 C-136.90448231 369.32339438 -123.49825908 386.5547534 -108 403 C-106.96552734 404.09828125 -106.96552734 404.09828125 -105.91015625 405.21875 C-68.90839995 443.3555295 -13.63399224 464.39791942 38.90332031 465.23217773 C97.42072335 465.56896191 149.72200223 442.84345015 192 403 C192.7321875 402.31035156 193.464375 401.62070312 194.21875 400.91015625 C232.65994033 363.61304897 253.04431943 308.51706944 254.35595703 255.66381836 C254.55637433 227.62852227 249.26990939 199.84744055 238.66088867 173.91503906 C238 172 238 172 237 167 C252.51 167 268.02 167 284 167 C287.82253094 178.91730235 291.36634937 190.66121943 293.8125 202.9375 C294.00674561 203.90486084 294.20099121 204.87222168 294.40112305 205.86889648 C297.24123662 220.72804142 298.3500406 235.12359733 298.31567383 250.22460938 C298.31252664 253.10065141 298.33602754 255.97564747 298.36132812 258.8515625 C298.40661069 272.11885904 297.17638862 284.91808649 295 298 C294.71781616 299.70639648 294.71781616 299.70639648 294.42993164 301.44726562 C287.40015301 340.55877192 270.4225296 377.73840745 246 409 C245.24074219 409.97195313 244.48148437 410.94390625 243.69921875 411.9453125 C231.36486402 427.32491644 217.56395499 441.87765196 202 454 C201.06414062 454.76441406 200.12828125 455.52882813 199.1640625 456.31640625 C167.21128299 481.9032721 128.04488322 498.41301276 88 506 C87.19062988 506.16371094 86.38125977 506.32742188 85.54736328 506.49609375 C55.50610013 512.36727137 20.8634824 511.27262909 -9 505 C-10.52294678 504.68651611 -10.52294678 504.68651611 -12.07666016 504.36669922 C-49.22046555 496.47445344 -84.08445445 480.37095578 -114 457 C-114.97195312 456.24074219 -115.94390625 455.48148437 -116.9453125 454.69921875 C-132.32491644 442.36486402 -146.87765196 428.56395499 -159 413 C-160.14662109 411.59621094 -160.14662109 411.59621094 -161.31640625 410.1640625 C-169.15316849 400.37754401 -175.63470982 389.78604746 -182 379 C-182.39461426 378.33242676 -182.78922852 377.66485352 -183.19580078 376.97705078 C-196.17196384 354.69541592 -204.45728285 329.74576387 -209.8125 304.625 C-210.00755127 303.71169922 -210.20260254 302.79839844 -210.40356445 301.85742188 C-213.62351546 285.82442368 -214.40668988 270.00091441 -214.375 253.6875 C-214.37478851 252.67931213 -214.37457703 251.67112427 -214.37435913 250.63238525 C-214.33984068 234.09461049 -213.39511326 218.23063526 -210 202 C-209.81276367 201.0929834 -209.62552734 200.1859668 -209.43261719 199.25146484 C-208.1882829 193.42845316 -206.69001968 187.70861432 -205 182 C-204.75942871 181.18080078 -204.51885742 180.36160156 -204.27099609 179.51757812 C-194.56813477 147.14558805 -178.77870661 116.88714394 -157 91 C-156.37303223 90.23985596 -156.37303223 90.23985596 -155.73339844 89.46435547 C-144.68631844 76.0759894 -132.76056242 63.62775426 -119 53 C-117.56527344 51.83984375 -117.56527344 51.83984375 -116.1015625 50.65625 C-86.30350892 26.93790004 -39.455568 0 0 0 Z " fill="#686868" transform="translate(214,3)"/>
<path d="M0 0 C35.31 0 70.62 0 107 0 C107 43 107 43 97.8125 56.38671875 C93.92579031 59.98919627 90.0855385 63.34588466 86 66.6875 C83.95450313 68.49095375 81.94122684 70.32874169 79.9296875 72.16992188 C75.06030405 76.60953626 70.07508632 80.75997253 65 85 C78.86 85.33 92.72 85.66 107 86 C107 100.19 107 114.38 107 129 C71.69 129 36.38 129 0 129 C0 86 0 86 8.96875 72.83203125 C12.76349183 69.3215645 16.50694344 66.06073941 20.5 62.8125 C22.48499547 61.04407017 24.46035089 59.2647587 26.42578125 57.47460938 C31.17737828 53.15261427 36.04224294 49.12210724 41 45 C20.705 44.505 20.705 44.505 0 44 C0 29.48 0 14.96 0 0 Z " fill="#686868" transform="translate(256,42)"/>
<path d="M0 0 C35.31 0 70.62 0 107 0 C107 42 107 42 97.8125 55.2890625 C93.92625152 58.8977218 90.08092613 62.26987617 86 65.625 C83.95502144 67.43362425 81.941492 69.2757085 79.9296875 71.12109375 C75.05846011 75.57238774 70.07172372 79.74337473 65 84 C78.86 84.33 92.72 84.66 107 85 C107 99.19 107 113.38 107 128 C71.69 128 36.38 128 0 128 C0 86 0 86 9.1875 72.7109375 C13.07374848 69.1022782 16.91907387 65.73012383 21 62.375 C23.04497856 60.56637575 25.058508 58.7242915 27.0703125 56.87890625 C31.94153989 52.42761226 36.92827628 48.25662527 42 44 C28.14 43.67 14.28 43.34 0 43 C0 28.81 0 14.62 0 0 Z " fill="#686868" transform="translate(405,0)"/>
<path d="M0 0 C9.01643625 7.03880521 15.1108423 16.14007339 17.25 27.4375 C18.5771194 41.2201879 16.25555869 52.7895947 7.5703125 63.89453125 C-0.58233427 72.82950271 -10.236591 77.52023034 -22.23046875 78.8125 C-35.56819798 79.28620403 -46.91093999 75.55625499 -56.75 66.4375 C-65.54345587 56.80022766 -69.41534676 46.36847084 -69.21875 33.37158203 C-68.64703339 20.93376809 -63.4751983 10.95670123 -54.58203125 2.3359375 C-38.86414652 -10.73911706 -16.78317981 -11.21180873 0 0 Z " fill="#686868" transform="translate(281.75,349.5625)"/>
<path d="M0 0 C0.50789063 0.39541992 1.01578125 0.79083984 1.5390625 1.19824219 C14.79242611 11.35543143 27.4648312 15.30070158 44 14 C53.34931318 11.94571895 62.42588723 6.94849276 69 0 C71.80969467 1.28022875 73.8539238 2.60714129 76.02441406 4.79736328 C76.58469299 5.35779327 77.14497192 5.91822327 77.722229 6.49563599 C78.31404968 7.09777924 78.90587036 7.69992249 79.515625 8.3203125 C80.13145447 8.93897186 80.74728394 9.55763123 81.3817749 10.19503784 C83.34260336 12.16703814 85.29635301 14.14588737 87.25 16.125 C88.58026799 17.46530164 89.910992 18.80515083 91.2421875 20.14453125 C94.5001015 23.42446589 97.75168533 26.71055942 101 30 C100.06826704 31.11469895 99.13249071 32.22601886 98.19506836 33.3359375 C97.67440292 33.9551709 97.15373749 34.5744043 96.61729431 35.21240234 C94.20311962 37.88079299 91.50350857 39.94645961 88.5625 42 C87.65733643 42.63446045 87.65733643 42.63446045 86.73388672 43.28173828 C73.26266476 52.44661447 57.37491825 58.28125359 41 59 C40.26265625 59.03996094 39.5253125 59.07992187 38.765625 59.12109375 C14.89436625 59.78418427 -7.8070557 51.23588679 -26 36 C-27.35241808 34.68602858 -28.69300036 33.3591569 -30 32 C-28.71977125 29.19030533 -27.39285871 27.1460762 -25.20263672 24.97558594 C-24.64220673 24.41530701 -24.08177673 23.85502808 -23.50436401 23.277771 C-22.90222076 22.68595032 -22.30007751 22.09412964 -21.6796875 21.484375 C-21.06102814 20.86854553 -20.44236877 20.25271606 -19.80496216 19.6182251 C-17.83296186 17.65739664 -15.85411263 15.70364699 -13.875 13.75 C-12.53469836 12.41973201 -11.19484917 11.089008 -9.85546875 9.7578125 C-6.57553411 6.4998985 -3.28944058 3.24831467 0 0 Z " fill="#686868" transform="translate(132,240)"/>
<path d="M0 0 C3.65543234 1.39042834 6.21710846 2.822581 9.1875 5.375 C19.04056955 13.28381837 30.648708 15.29952258 43 14 C52.1452594 12.3151696 59.63501965 8.46995385 66.828125 2.671875 C69 1 69 1 72 0 C72.37261963 0.44408203 72.74523926 0.88816406 73.12915039 1.34570312 C78.58086939 7.71769608 84.48770527 13.60118977 90.4375 19.5 C91.4657298 20.52320139 92.49372626 21.54663733 93.52148438 22.5703125 C96.01164338 25.04957999 98.50492833 27.52567538 101 30 C95.23728379 42.01170502 79.24168965 49.19895776 67.1875 53.4375 C61.2094264 55.43882907 55.27558989 57.24193945 49 58 C47.36417969 58.19916016 47.36417969 58.19916016 45.6953125 58.40234375 C22.29256061 60.60408256 -1.25536761 54.93622376 -19.75390625 40.04296875 C-22.90122763 37.43251636 -25.96634465 34.74137626 -29 32 C-28.42164796 28.84770914 -27.59031477 27.21914462 -25.31616211 24.97558594 C-24.47540382 24.13516754 -24.47540382 24.13516754 -23.61766052 23.277771 C-23.01035599 22.68595032 -22.40305145 22.09412964 -21.77734375 21.484375 C-21.15726944 20.86854553 -20.53719513 20.25271606 -19.89833069 19.6182251 C-17.91832095 17.65499365 -15.92813081 15.70245564 -13.9375 13.75 C-12.59241465 12.41996252 -11.24800512 11.08924121 -9.90429688 9.7578125 C-6.61065094 6.49722463 -3.30783661 3.24618812 0 0 Z " fill="#686868" transform="translate(308,240)"/>
</svg>
