<?xml version="1.0" encoding="UTF-8"?>
<svg version="1.1" xmlns="http://www.w3.org/2000/svg" width="512" height="512">
<path d="M0 0 C1.01790619 0.00215515 2.03581238 0.0043103 3.08456421 0.00653076 C17.69363523 0.05620146 32.02575853 0.30709809 46.375 3.3125 C47.34985352 3.51117676 48.32470703 3.70985352 49.32910156 3.91455078 C98.5477554 14.2102109 141.97749696 36.64668433 178.375 71.3125 C179.273396 72.16787354 179.273396 72.16787354 180.18994141 73.04052734 C188.52743043 81.03806198 196.17259045 89.25204073 203.05566406 98.53564453 C204.41568182 100.36728947 205.79649374 102.18190483 207.1796875 103.99609375 C213.5480373 112.42343333 219.17969786 121.11991515 224.375 130.3125 C224.73803223 130.94285156 225.10106445 131.57320312 225.47509766 132.22265625 C247.08503355 169.97093421 256.85198837 212.73995161 256.6875 255.9375 C256.68534485 256.95540619 256.6831897 257.97331238 256.68096924 259.02206421 C256.63129854 273.63113523 256.38040191 287.96325853 253.375 302.3125 C253.07698486 303.77478027 253.07698486 303.77478027 252.77294922 305.26660156 C244.60465634 344.31532454 228.98596689 380.77563271 204.375 412.3125 C203.69050781 413.20839844 203.00601562 414.10429687 202.30078125 415.02734375 C197.03283437 421.79125932 191.28530885 428.10992313 185.375 434.3125 C184.51745117 435.21307129 184.51745117 435.21307129 183.64257812 436.13183594 C175.6343274 444.48058817 167.41011118 452.12586051 158.11230469 459.01513672 C156.39124144 460.30037142 154.698612 461.6167016 153.0078125 462.94140625 C122.05599233 486.84699932 84.66878791 502.15926624 46.375 509.3125 C45.56998047 509.47476074 44.76496094 509.63702148 43.93554688 509.80419922 C13.91376741 515.67407499 -20.78272031 514.62143832 -50.625 508.3125 C-51.66688477 508.09287598 -52.70876953 507.87325195 -53.78222656 507.64697266 C-99.93611955 497.57975271 -142.92020011 475.10505313 -176.79589844 442.09472656 C-178.61677762 440.32051167 -180.45253929 438.56268486 -182.2890625 436.8046875 C-189.62889839 429.70312574 -196.19821369 422.28908994 -202.29394531 414.09667969 C-203.6464254 412.28378085 -205.02093443 410.48924757 -206.3984375 408.6953125 C-212.78515123 400.28874472 -218.32673367 391.54725388 -223.48583984 382.33984375 C-224.53265887 380.47683792 -225.60178881 378.62866361 -226.67578125 376.78125 C-247.24290095 340.1808446 -256.09605121 298.32584482 -255.9375 256.6875 C-255.93534485 255.66959381 -255.9331897 254.65168762 -255.93096924 253.60293579 C-255.88129854 238.99386477 -255.63040191 224.66174147 -252.625 210.3125 C-252.42632324 209.33764648 -252.22764648 208.36279297 -252.02294922 207.35839844 C-241.7272891 158.1397446 -219.29081567 114.71000304 -184.625 78.3125 C-184.05475098 77.71356934 -183.48450195 77.11463867 -182.89697266 76.49755859 C-174.89943802 68.16006957 -166.68545927 60.51490955 -157.40185547 53.63183594 C-155.57021053 52.27181818 -153.75559517 50.89100626 -151.94140625 49.5078125 C-143.51406667 43.1394627 -134.81758485 37.50780214 -125.625 32.3125 C-124.99464844 31.94946777 -124.36429688 31.58643555 -123.71484375 31.21240234 C-85.96656579 9.60246645 -43.19754839 -0.16448837 0 0 Z M-137.625 94.3125 C-138.10727051 94.74127441 -138.58954102 95.17004883 -139.08642578 95.61181641 C-142.65062479 98.79240425 -146.14824397 102.03660196 -149.625 105.3125 C-150.40746094 106.04082031 -151.18992188 106.76914063 -151.99609375 107.51953125 C-158.61040753 113.87446018 -164.10540456 121.01580215 -169.625 128.3125 C-170.33785156 129.24191406 -171.05070312 130.17132813 -171.78515625 131.12890625 C-205.07419705 175.53635431 -217.99028045 232.1100018 -210.66015625 286.72265625 C-204.7922132 326.16665479 -188.30386403 364.42272844 -161.625 394.3125 C-161.19622559 394.79477051 -160.76745117 395.27704102 -160.32568359 395.77392578 C-157.14509575 399.33812479 -153.90089804 402.83574397 -150.625 406.3125 C-149.89667969 407.09496094 -149.16835937 407.87742187 -148.41796875 408.68359375 C-142.06260895 415.29835599 -134.94111738 420.81609769 -127.625 426.3125 C-127.05088379 426.74739746 -126.47676758 427.18229492 -125.88525391 427.63037109 C-116.91814975 434.38451381 -107.58078152 440.13122132 -97.625 445.3125 C-96.54871338 445.87517578 -96.54871338 445.87517578 -95.45068359 446.44921875 C-45.37328771 472.26435311 13.00332589 476.08060686 66.4453125 458.99609375 C88.78423213 451.53660012 109.64381393 440.5515444 128.375 426.3125 C129.31601562 425.60351562 130.25703125 424.89453125 131.2265625 424.1640625 C137.95154997 418.93351669 144.18168697 413.15239028 150.375 407.3125 C151.550625 406.21808594 151.550625 406.21808594 152.75 405.1015625 C159.36354691 398.74783351 164.87981366 391.62699884 170.375 384.3125 C170.80989746 383.73838379 171.24479492 383.16426758 171.69287109 382.57275391 C178.44701381 373.60564975 184.19372132 364.26828152 189.375 354.3125 C189.75011719 353.59497559 190.12523437 352.87745117 190.51171875 352.13818359 C216.20978694 302.28787811 219.80838589 244.78824598 203.49609375 191.43798828 C194.91124546 164.71253794 181.11283597 139.30550915 162.375 118.3125 C161.94622559 117.83022949 161.51745117 117.34795898 161.07568359 116.85107422 C157.89509575 113.28687521 154.65089804 109.78925603 151.375 106.3125 C150.28251953 105.13880859 150.28251953 105.13880859 149.16796875 103.94140625 C142.81303982 97.32709247 135.67169785 91.83209544 128.375 86.3125 C127.44558594 85.59964844 126.51617187 84.88679688 125.55859375 84.15234375 C96.16380802 62.11720631 60.70788588 48.86009441 24.375 44.3125 C23.51003906 44.20035156 22.64507812 44.08820312 21.75390625 43.97265625 C-34.78574676 37.98224309 -95.08951878 56.34639117 -137.625 94.3125 Z " fill="#686868" transform="translate(255.625,-0.3125)"/>
<path d="M0 0 C0.9517476 -0.00583219 1.90349519 -0.01166439 2.88408363 -0.01767331 C4.44797441 -0.01200433 4.44797441 -0.01200433 6.04345894 -0.00622082 C7.15336949 -0.01004636 8.26328003 -0.01387191 9.40682423 -0.01781338 C13.13935732 -0.02816184 16.87173711 -0.02414768 20.60428047 -0.02018261 C23.27490948 -0.02452807 25.94552709 -0.02964592 28.61615181 -0.03567028 C35.12545846 -0.04842935 41.63472388 -0.05020945 48.14404093 -0.04787002 C53.43470778 -0.04608793 58.7253621 -0.04783415 64.01602745 -0.05209446 C64.76865141 -0.05268965 65.52127537 -0.05328484 66.29670612 -0.05389806 C67.8256096 -0.0551098 69.35451307 -0.05632393 70.88341655 -0.05754044 C85.22665741 -0.06842078 99.56987476 -0.06625124 113.91311695 -0.06015559 C127.0358876 -0.05498684 140.15858402 -0.06623988 153.28133999 -0.08525381 C166.75351047 -0.10462447 180.22564582 -0.11288952 193.69783032 -0.10913056 C201.26232287 -0.10721723 208.82675224 -0.10971882 216.39123344 -0.1238451 C222.83147969 -0.13575009 229.27162387 -0.1371738 235.71187149 -0.12505493 C238.99770195 -0.11915977 242.28330677 -0.11970707 245.56913185 -0.13005733 C249.13154932 -0.14047104 252.69346227 -0.13246681 256.25586128 -0.11974621 C257.8130599 -0.13080764 257.8130599 -0.13080764 259.40171707 -0.14209253 C266.3007741 -0.09013822 270.60729388 0.95759315 275.96414375 5.56697559 C280.20513121 10.49569074 281.97243752 14.7014565 281.7493 21.17244434 C276.72469598 53.93618465 250.64226711 87.12116944 224.65164375 106.25447559 C189.72295352 131.12862771 146.89750578 141.73925366 104.38186836 134.73494434 C64.10151557 127.23552329 27.26812124 104.40088691 3.71414375 70.69197559 C-4.44778831 58.61655008 -11.10357977 45.96440532 -15.91085625 32.19197559 C-16.21475273 31.34804249 -16.51864922 30.50410938 -16.83175468 29.63460255 C-18.78561512 23.65458761 -19.1138475 18.4244765 -17.72335625 12.25447559 C-14.0634598 5.19610388 -8.14097436 0.00858967 0 0 Z M149.8743 64.59431934 C141.85438682 73.05292863 134.22631916 83.80416082 131.27664375 95.25447559 C131.60664375 95.91447559 131.93664375 96.57447559 132.27664375 97.25447559 C167.5638818 94.53180545 196.62091432 82.17939744 220.27664375 55.25447559 C226.61875327 48.26286616 226.61875327 48.26286616 230.27664375 40.25447559 C199.26952447 38.06533057 173.21173607 41.86403609 149.8743 64.59431934 Z " fill="#686868" transform="translate(124.72335624694824,283.7455244064331)"/>
<path d="M0 0 C1.50880737 0.01135986 1.50880737 0.01135986 3.0480957 0.02294922 C10.91094384 0.19676288 17.37134135 1.25028635 24.625 4.4375 C25.62273437 4.83839844 26.62046875 5.23929688 27.6484375 5.65234375 C43.03053599 12.47345426 54.23324799 25.89153224 60.81958008 41.16210938 C64.32957961 51.07820384 65.13646377 61.19362997 65.07104492 71.61621094 C65.06244493 73.70084846 65.09159104 75.78281178 65.12304688 77.8671875 C65.16827782 86.33873624 64.83431746 94.79427466 58.87475586 101.36816406 C53.03990507 106.7952254 47.46376238 107.9039253 39.6328125 107.75 C33.65747273 107.12918548 30.04906099 104.82991519 25.8125 100.6875 C19.80914342 91.76822737 20.28600789 83.78303692 20.625 73.4375 C19.90957031 73.75976562 19.19414062 74.08203125 18.45703125 74.4140625 C12.56084404 76.54482257 5.98110363 76.42249027 0.25 73.8125 C-5.39055713 70.51352385 -8.77861533 65.77168253 -10.8828125 59.671875 C-11.77628558 55.61579085 -11.60329471 51.56371547 -11.375 47.4375 C-12.52113969 48.56218788 -13.6408647 49.71380324 -14.75 50.875 C-15.37648438 51.51308594 -16.00296875 52.15117187 -16.6484375 52.80859375 C-22.17320205 61.22073525 -20.74881683 72.76918112 -20.85351562 82.39648438 C-20.87994141 83.59982422 -20.90636719 84.80316406 -20.93359375 86.04296875 C-20.94704834 87.12731201 -20.96050293 88.21165527 -20.97436523 89.32885742 C-21.7612138 95.43424612 -24.75108464 99.53286036 -29.375 103.4375 C-35.35785512 107.62141007 -41.18917296 108.45505507 -48.375 107.4375 C-54.55380916 105.6402216 -58.88767532 101.77954831 -62.375 96.4375 C-64.55212799 92.10032742 -64.68159557 88.03567243 -64.67578125 83.27734375 C-64.68006638 82.49162491 -64.6843515 81.70590607 -64.68876648 80.89637756 C-64.69449637 79.23472045 -64.69501993 77.57303826 -64.69067383 75.91137695 C-64.68754037 73.40726089 -64.71089585 70.90435854 -64.73632812 68.40039062 C-64.81172138 49.88108712 -60.52152038 34.02093556 -47.41723633 20.42504883 C-46.08256126 19.08307672 -44.72942699 17.75953412 -43.375 16.4375 C-42.79105469 15.83292969 -42.20710938 15.22835937 -41.60546875 14.60546875 C-30.73118979 4.17166691 -14.65696124 -0.15601733 0 0 Z " fill="#686868" transform="translate(341.375,127.5625)"/>
<path d="M0 0 C1.00256836 0.00757324 2.00513672 0.01514648 3.03808594 0.02294922 C20.60499217 0.410996 34.30230137 7.09358537 46.6875 19.4375 C47.3990625 20.12585938 48.110625 20.81421875 48.84375 21.5234375 C62.27853604 35.42327382 65.23472851 52.8010226 65.13354492 71.35961914 C65.12494751 73.76468266 65.15405527 76.16742976 65.18554688 78.57226562 C65.22726879 87.52309186 65.05557093 94.37561915 58.94140625 101.4609375 C58.38324219 101.90695313 57.82507813 102.35296875 57.25 102.8125 C56.41662109 103.50472656 56.41662109 103.50472656 55.56640625 104.2109375 C49.8954735 107.91296013 44.27971707 108.28469256 37.6875 107.4375 C30.56296829 105.18022262 26.38214492 101.87333309 22.6875 95.4375 C21.77916031 92.71248092 21.50390015 90.81516029 21.37109375 87.98828125 C21.32919922 87.14072266 21.28730469 86.29316406 21.24414062 85.41992188 C21.20482422 84.53884766 21.16550781 83.65777344 21.125 82.75 C21.06022461 81.41098633 21.06022461 81.41098633 20.99414062 80.04492188 C20.88814647 77.84259892 20.78607949 75.64016527 20.6875 73.4375 C19.95917969 73.75847656 19.23085937 74.07945312 18.48046875 74.41015625 C12.22677431 76.71046623 6.39572928 76.10679358 0.375 73.375 C-5.19292745 70.30213438 -8.27932505 66.53702485 -10.3125 60.4375 C-10.38187062 58.20931559 -10.39707084 55.97915476 -10.375 53.75 C-10.36597656 52.57050781 -10.35695312 51.39101562 -10.34765625 50.17578125 C-10.33605469 49.27214844 -10.32445312 48.36851562 -10.3125 47.4375 C-11.7046875 48.4584375 -11.7046875 48.4584375 -13.125 49.5 C-13.64707031 49.88285156 -14.16914063 50.26570313 -14.70703125 50.66015625 C-21.48716816 58.16614723 -19.74733274 68.80612015 -19.75195312 78.23632812 C-19.87332102 86.610713 -20.17283319 94.86463239 -26.06225586 101.37036133 C-31.90179843 106.7926127 -37.47186508 107.90396211 -45.3046875 107.75 C-51.28002727 107.12918548 -54.88843901 104.82991519 -59.125 100.6875 C-64.87152973 92.14979869 -64.83981857 83.88985271 -64.75 73.9375 C-64.74662628 73.22096252 -64.74325256 72.50442505 -64.73977661 71.76617432 C-64.59816156 51.08110928 -60.04029427 33.08386645 -45 17.9921875 C-32.47999825 6.09090676 -17.29436183 -0.1848566 0 0 Z " fill="#686868" transform="translate(170.3125,127.5625)"/>
</svg>
