<?xml version="1.0" encoding="UTF-8"?>
<svg version="1.1" xmlns="http://www.w3.org/2000/svg" width="512" height="512">
<path d="M0 0 C14.69625952 10.21676901 25.56115782 23.73879206 29.73413086 41.47021484 C30.51590408 46.02998893 30.60460841 50.63381696 30.75 55.25 C30.78867187 56.26320313 30.82734375 57.27640625 30.8671875 58.3203125 C30.96063619 60.79670284 31.04639873 63.27310151 31.125 65.75 C31.66688965 65.97026855 32.2087793 66.19053711 32.76708984 66.41748047 C52.26030412 74.4011195 72.27169946 83.39029779 87.66796875 98.1953125 C90.05125042 100.08984923 90.05125042 100.08984923 92.9453125 99.25 C97.36675431 97.16420927 101.71121944 94.96715498 106.02734375 92.671875 C120.33077231 85.28590418 137.31518446 85.31271507 152.57421875 89.75390625 C169.20852322 95.71863318 182.32040426 106.48745356 190.46875 122.1796875 C198.51064137 139.51527408 198.98780029 156.83004456 193.09375 174.9140625 C187.28550553 190.10183689 176.90451278 200.91196706 163.078125 208.98828125 C160.61908524 210.45524809 158.36942049 211.97952267 156.125 213.75 C156.25777344 214.51699219 156.39054687 215.28398437 156.52734375 216.07421875 C160.00614678 237.9373531 159.79067907 259.93387115 156.125 281.75 C157.01960938 282.29527344 157.91421875 282.84054687 158.8359375 283.40234375 C166.61269422 288.22073936 173.60702746 293.26837303 180.125 299.75 C180.67414063 300.26433594 181.22328125 300.77867187 181.7890625 301.30859375 C192.67051882 312.5100929 197.02396715 329.18930238 197.5 344.3125 C196.93593989 362.10208807 190.37785348 377.75867803 177.77734375 390.265625 C165.17448566 402.07036395 150.12725566 408.3754485 132.8125 408.1875 C131.80703125 408.17847656 130.8015625 408.16945313 129.765625 408.16015625 C117.47866036 407.87551614 107.63783497 404.66104328 97.18359375 398.21679688 C94.33539258 396.533485 92.77024239 395.61565334 89.4609375 396.3046875 C87.04362977 397.80034613 84.96075307 399.3879263 82.8125 401.25 C67.4559946 413.80820886 49.34739778 422.23326092 31.125 429.75 C31.1156543 430.3483667 31.10630859 430.9467334 31.09667969 431.56323242 C30.65740671 453.98553407 30.65740671 453.98553407 26.125 464.75 C25.7640625 465.62527344 25.403125 466.50054687 25.03125 467.40234375 C17.29395716 484.36688109 3.09577018 495.04336027 -13.734375 501.91796875 C-30.02500275 506.93228047 -49.3872321 504.84818754 -64.375 497.25 C-80.76159761 488.36514714 -91.5602081 473.95349645 -96.97265625 456.13671875 C-98.22333217 450.89599718 -98.33100167 445.61569705 -98.5 440.25 C-98.55800781 438.73019531 -98.55800781 438.73019531 -98.6171875 437.1796875 C-98.71063619 434.70329716 -98.79639873 432.22689849 -98.875 429.75 C-99.49842285 429.48896484 -100.1218457 429.22792969 -100.76416016 428.95898438 C-120.65011007 420.58980995 -139.68519491 411.45401697 -155.77734375 396.76953125 C-157.91725647 395.46535909 -157.91725647 395.46535909 -160.63671875 396.32421875 C-165.12396397 398.29990573 -169.44983382 400.52679024 -173.77734375 402.828125 C-187.00255243 409.65732717 -204.88078368 410.27884194 -219.125 406.125 C-221.06169233 405.38367009 -222.98033059 404.59295613 -224.875 403.75 C-225.87144531 403.34910156 -226.86789063 402.94820313 -227.89453125 402.53515625 C-242.79741785 395.93503317 -254.54694583 382.67408267 -260.84375 367.76171875 C-266.9985528 349.78689695 -266.09470261 331.96911424 -258.3828125 314.62890625 C-251.87035442 302.19449794 -242.79931408 293.50436829 -230.828125 286.51171875 C-228.36908524 285.04475191 -226.11942049 283.52047733 -223.875 281.75 C-224.00777344 280.98300781 -224.14054687 280.21601563 -224.27734375 279.42578125 C-227.75614678 257.5626469 -227.54067907 235.56612885 -223.875 213.75 C-224.76960938 213.20472656 -225.66421875 212.65945312 -226.5859375 212.09765625 C-234.36269422 207.27926064 -241.35702746 202.23162697 -247.875 195.75 C-248.42414063 195.23566406 -248.97328125 194.72132813 -249.5390625 194.19140625 C-260.42051882 182.9899071 -264.77396715 166.31069762 -265.25 151.1875 C-264.67761926 133.13549206 -257.93029372 117.22557375 -244.875 104.75 C-244.26269531 104.11835937 -243.65039062 103.48671875 -243.01953125 102.8359375 C-231.09649432 91.29423437 -214.06574841 86.76752245 -197.875 86.75 C-184.69937059 87.54808328 -173.41180004 91.7869329 -162.3125 98.80859375 C-159.89107361 100.01051386 -159.89107361 100.01051386 -157.33203125 99.12890625 C-154.79157356 97.70318039 -152.762831 96.15721408 -150.5625 94.25 C-135.2059946 81.69179114 -117.09739778 73.26673908 -98.875 65.75 C-98.8656543 65.1516333 -98.85630859 64.5532666 -98.84667969 63.93676758 C-98.40740671 41.51446593 -98.40740671 41.51446593 -93.875 30.75 C-93.33359375 29.43708984 -93.33359375 29.43708984 -92.78125 28.09765625 C-85.81788245 12.83000241 -73.25255438 1.78793826 -57.87109375 -4.47265625 C-38.93392049 -11.50790437 -17.48941603 -10.43527048 0 0 Z M-90.875 184.75 C-91.63683594 185.41644531 -92.39867187 186.08289063 -93.18359375 186.76953125 C-107.45671551 200.10265539 -118.02335561 221.1621791 -118.875 240.75 C-118.9265625 241.7503125 -118.978125 242.750625 -119.03125 243.78125 C-119.64512809 266.49473925 -111.90528695 287.66381428 -96.875 304.75 C-95.87533203 305.89275391 -95.87533203 305.89275391 -94.85546875 307.05859375 C-81.52234461 321.33171551 -60.4628209 331.89835561 -40.875 332.75 C-39.8746875 332.8015625 -38.874375 332.853125 -37.84375 332.90625 C-15.13026075 333.52012809 6.03881428 325.78028695 23.125 310.75 C23.88683594 310.08355469 24.64867187 309.41710937 25.43359375 308.73046875 C39.70671551 295.39734461 50.27335561 274.3378209 51.125 254.75 C51.1765625 253.7496875 51.228125 252.749375 51.28125 251.71875 C51.89512809 229.00526075 44.15528695 207.83618572 29.125 190.75 C28.45855469 189.98816406 27.79210937 189.22632813 27.10546875 188.44140625 C13.77234461 174.16828449 -7.2871791 163.60164439 -26.875 162.75 C-27.8753125 162.6984375 -28.875625 162.646875 -29.90625 162.59375 C-52.61973925 161.97987191 -73.78881428 169.71971305 -90.875 184.75 Z " fill="#BB8C07" transform="translate(289.875,8.25)"/>
</svg>
