<?xml version="1.0" encoding="UTF-8"?>
<svg version="1.1" xmlns="http://www.w3.org/2000/svg" width="512" height="512">
<path d="M0 0 C3.97555216 0.00914976 7.95103737 -0.00496778 11.92657566 -0.01591969 C19.69066702 -0.0336049 27.45460275 -0.02990988 35.21869993 -0.01826912 C41.53487158 -0.00919539 47.85099994 -0.00802773 54.16717625 -0.01236439 C55.0698589 -0.01297732 55.97254156 -0.01359025 56.90257823 -0.01422176 C58.73698347 -0.0155008 60.57138869 -0.01679766 62.40579391 -0.01811212 C79.56315486 -0.02948863 96.72042999 -0.01645037 113.87777686 0.00508934 C128.56480139 0.02295765 143.25169941 0.01985271 157.93872166 0.0014143 C175.03925053 -0.02004437 192.1397044 -0.02839027 209.24024487 -0.01613665 C211.06749184 -0.0148626 212.89473882 -0.01360511 214.72198582 -0.01236439 C216.07016417 -0.01143873 216.07016417 -0.01143873 217.44557846 -0.01049438 C223.74618813 -0.00705644 230.04674979 -0.01283607 236.34735203 -0.0222826 C244.03712363 -0.0335597 251.72673214 -0.03034354 259.41648531 -0.00915962 C263.33174667 0.00127462 267.2467372 0.00560491 271.16199589 -0.00775623 C301.73904794 -0.10326944 328.23657831 4.07868436 352.44458103 24.52289867 C353.25669041 25.20094555 354.06879978 25.87899242 354.90551853 26.57758617 C374.26668781 43.31755099 387.24228801 67.058507 390.44458103 92.52289867 C391.12748954 102.35441146 391.00109486 112.22796109 390.96747971 122.07831764 C390.95832995 126.0538698 390.97244748 130.02935501 390.98339939 134.0048933 C391.0010846 141.76898466 390.99738959 149.53292039 390.98574883 157.29701757 C390.9766751 163.61318922 390.97550744 169.92931758 390.97984409 176.24549389 C390.98045703 177.14817654 390.98106996 178.0508592 390.98170146 178.98089588 C390.98298051 180.81530111 390.98427736 182.64970634 390.98559183 184.48411155 C390.99696833 201.6414725 390.98393008 218.79874763 390.96239036 235.9560945 C390.94452206 250.64311903 390.94762699 265.33001705 390.96606541 280.0170393 C390.98752408 297.11756817 390.99586997 314.21802205 390.98361635 331.31856251 C390.9823423 333.14580948 390.98108482 334.97305646 390.97984409 336.80030346 C390.97922699 337.69908903 390.97860989 338.5978746 390.97797409 339.5238961 C390.97453614 345.82450577 390.98031577 352.12506744 390.98976231 358.42566967 C391.00103941 366.11544127 390.99782325 373.80504978 390.97663933 381.49480295 C390.96620508 385.41006431 390.9618748 389.32505484 390.97523594 393.24031353 C391.08848711 429.48594293 383.1975598 457.5668075 357.93286228 484.16742992 C332.97520218 508.43713003 302.20185446 513.15947966 268.88916206 513.04579735 C264.9136099 513.03664759 260.9381247 513.05076512 256.9625864 513.06171703 C249.19849505 513.07940225 241.43455931 513.07570723 233.67046213 513.06406647 C227.35429049 513.05499274 221.03816212 513.05382508 214.72198582 513.05816174 C213.36796183 513.05908113 213.36796183 513.05908113 211.98658383 513.06001911 C210.15217859 513.06129815 208.31777337 513.062595 206.48336816 513.06390947 C189.32600721 513.07528598 172.16873207 513.06224772 155.0113852 513.04070801 C140.32436067 513.0228397 125.63746266 513.02594463 110.95044041 513.04438305 C93.84991153 513.06584172 76.74945766 513.07418761 59.6489172 513.06193399 C57.82167023 513.06065994 55.99442324 513.05940246 54.16717625 513.05816174 C53.26839068 513.05754463 52.3696051 513.05692753 51.44358361 513.05629173 C45.14297393 513.05285378 38.84241227 513.05863341 32.54181004 513.06807995 C24.85203844 513.07935705 17.16242993 513.07614089 9.47267675 513.05495697 C5.5574154 513.04452272 1.64242486 513.04019244 -2.27283382 513.05355358 C-38.51846323 513.16680476 -66.5993278 505.27587744 -93.19995022 480.01117992 C-117.46965032 455.05351982 -122.19199996 424.2801721 -122.07831764 390.96747971 C-122.06916789 386.99192755 -122.08328542 383.01644234 -122.09423733 379.04090405 C-122.11192254 371.27681269 -122.10822753 363.51287695 -122.09658676 355.74877977 C-122.08751303 349.43260813 -122.08634537 343.11647977 -122.09068203 336.80030346 C-122.09129496 335.8976208 -122.09190789 334.99493815 -122.0925394 334.06490147 C-122.09381844 332.23049624 -122.0951153 330.39609101 -122.09642977 328.5616858 C-122.10780627 311.40432485 -122.09476802 294.24704972 -122.0732283 277.08970284 C-122.05535999 262.40267832 -122.05846493 247.7157803 -122.07690334 233.02875805 C-122.09836201 215.92822917 -122.10670791 198.8277753 -122.09445429 181.72723484 C-122.09318024 179.89998787 -122.09192275 178.07274088 -122.09068203 176.24549389 C-122.09006493 175.34670832 -122.08944783 174.44792275 -122.08881202 173.52190125 C-122.08537408 167.22129158 -122.09115371 160.92072991 -122.10060024 154.62012768 C-122.11187734 146.93035608 -122.10866119 139.24074757 -122.08747727 131.5509944 C-122.07704302 127.63573304 -122.07271273 123.72074251 -122.08607388 119.80548382 C-122.19932505 83.55985441 -114.30839773 55.47898985 -89.04370022 28.87836742 C-64.08604011 4.60866732 -33.31269239 -0.11368232 0 0 Z M116.67114353 159.54633617 C113.71729522 164.30635924 113.19705166 168.93749769 113.21753025 174.44623852 C113.2172382 175.11035748 113.21694614 175.77447643 113.21664524 176.45872021 C113.21802842 178.63389604 113.23354115 180.80872086 113.24926853 182.98383617 C113.25300227 184.49983565 113.25584754 186.01583756 113.25784397 187.53184032 C113.26545201 191.5069965 113.28507593 195.48200474 113.30725193 199.45710278 C113.32777155 203.51937897 113.33685873 207.58167925 113.34692478 211.64399242 C113.36832472 219.60369546 113.40242618 227.56327862 113.44458103 235.52289867 C112.61265736 235.51401623 111.78073368 235.50513378 110.9236002 235.49598217 C103.05332397 235.41557221 95.18318729 235.35480077 87.31259346 235.31564999 C83.26697305 235.29484487 79.22169431 235.26665842 75.17627048 235.22114086 C71.26643077 235.1774281 67.35691806 235.15370845 63.44685268 235.1433897 C61.96100758 235.13604361 60.47517879 235.12169908 58.9894743 235.09997845 C45.76489218 234.89033466 45.76489218 234.89033466 34.58082676 241.26282787 C29.53550698 246.70512226 27.94950718 251.58188675 28.13598728 258.96430492 C28.94584763 265.67896987 32.43468804 270.02635438 37.46801853 274.29633617 C42.2280416 277.25018448 46.85918005 277.77042805 52.36792088 277.74994946 C53.03203983 277.75024151 53.69615879 277.75053356 54.38040257 277.75083447 C56.5555784 277.74945129 58.73040321 277.73393855 60.90551853 277.71821117 C62.42151801 277.71447743 63.93751992 277.71163217 65.45352268 277.70963573 C69.42867886 277.7020277 73.4036871 277.68240378 77.37878513 277.66022778 C81.44106133 277.63970815 85.50336161 277.63062098 89.56567478 277.62055492 C97.52537781 277.59915499 105.48496098 277.56505353 113.44458103 277.52289867 C113.43125736 278.77078419 113.43125736 278.77078419 113.41766453 280.04387951 C113.33725456 287.91415573 113.27648313 295.78429242 113.23733234 303.65488625 C113.21652723 307.70050665 113.18834077 311.7457854 113.14282322 315.79120922 C113.09911045 319.70104894 113.07539081 323.61056165 113.06507206 327.52062702 C113.05772597 329.00647212 113.04338144 330.49230092 113.0216608 331.97800541 C112.81201702 345.20258753 112.81201702 345.20258753 119.18451023 356.38665295 C124.62680462 361.43197273 129.5035691 363.01797253 136.88598728 362.83149242 C143.60065223 362.02163207 147.94803674 358.53279167 152.21801853 353.49946117 C155.17186684 348.7394381 155.6921104 344.10829966 155.67163181 338.59955883 C155.67192387 337.93543987 155.67221592 337.27132092 155.67251682 336.58707714 C155.67113364 334.41190131 155.65562091 332.23707649 155.63989353 330.06196117 C155.63615979 328.54596169 155.63331452 327.02995979 155.63131809 325.51395702 C155.62371005 321.53880085 155.60408613 317.56379261 155.58191013 313.58869457 C155.56139051 309.52641837 155.55230333 305.4641181 155.54223728 301.40180492 C155.52083734 293.44210189 155.48673588 285.48251873 155.44458103 277.52289867 C156.27650471 277.53178112 157.10842838 277.54066357 157.96556187 277.54981518 C165.83583809 277.63022514 173.70597478 277.69099657 181.5765686 277.73014736 C185.62218901 277.75095248 189.66746775 277.77913893 193.71289158 277.82465649 C197.62273129 277.86836925 201.53224401 277.8920889 205.44230938 277.90240765 C206.92815448 277.90975374 208.41398327 277.92409827 209.89968777 277.9458189 C223.12426988 278.15546269 223.12426988 278.15546269 234.3083353 271.78296947 C239.35365508 266.34067509 240.93965488 261.4639106 240.75317478 254.08149242 C239.94331443 247.36682748 236.45447402 243.01944297 231.42114353 238.74946117 C226.66112046 235.79561287 222.02998201 235.2753693 216.52124119 235.29584789 C215.85712223 235.29555584 215.19300327 235.29526379 214.5087595 235.29496288 C212.33358366 235.29634606 210.15875885 235.3118588 207.98364353 235.32758617 C206.46764405 235.33131992 204.95164215 235.33416518 203.43563938 235.33616161 C199.46048321 235.34376965 195.48547497 235.36339357 191.51037693 235.38556957 C187.44810073 235.4060892 183.38580045 235.41517637 179.32348728 235.42524242 C171.36378425 235.44664236 163.40420108 235.48074382 155.44458103 235.52289867 C155.4579047 234.27501316 155.4579047 234.27501316 155.47149754 233.00191784 C155.5519075 225.13164162 155.61267893 217.26150493 155.65182972 209.3909111 C155.67263484 205.3452907 155.70082129 201.30001195 155.74633884 197.25458813 C155.79005161 193.34474841 155.81377126 189.4352357 155.82409 185.52517033 C155.83143609 184.03932523 155.84578062 182.55349643 155.86750126 181.06779194 C156.07714505 167.84320982 156.07714505 167.84320982 149.70465183 156.6591444 C144.26235745 151.61382462 139.38559296 150.02782482 132.00317478 150.21430492 C125.28850983 151.02416528 120.94112532 154.51300568 116.67114353 159.54633617 Z " fill="#518B40" transform="translate(121.55541896820068,-0.5228986740112305)"/>
</svg>
