<?xml version="1.0" encoding="UTF-8"?>
<svg version="1.1" xmlns="http://www.w3.org/2000/svg" width="512" height="512">
<path d="M0 0 C3.97555216 0.00914976 7.95103737 -0.00496778 11.92657566 -0.01591969 C19.69066702 -0.0336049 27.45460275 -0.02990988 35.21869993 -0.01826912 C41.53487158 -0.00919539 47.85099994 -0.00802773 54.16717625 -0.01236439 C55.0698589 -0.01297732 55.97254156 -0.01359025 56.90257823 -0.01422176 C58.73698347 -0.0155008 60.57138869 -0.01679766 62.40579391 -0.01811212 C79.56315486 -0.02948863 96.72042999 -0.01645037 113.87777686 0.00508934 C128.56480139 0.02295765 143.25169941 0.01985271 157.93872166 0.0014143 C175.03925053 -0.02004437 192.1397044 -0.02839027 209.24024487 -0.01613665 C211.06749184 -0.0148626 212.89473882 -0.01360511 214.72198582 -0.01236439 C216.07016417 -0.01143873 216.07016417 -0.01143873 217.44557846 -0.01049438 C223.74618813 -0.00705644 230.04674979 -0.01283607 236.34735203 -0.0222826 C244.03712363 -0.0335597 251.72673214 -0.03034354 259.41648531 -0.00915962 C263.33174667 0.00127462 267.2467372 0.00560491 271.16199589 -0.00775623 C301.73904794 -0.10326944 328.23657831 4.07868436 352.44458103 24.52289867 C353.25669041 25.20094555 354.06879978 25.87899242 354.90551853 26.57758617 C374.26668781 43.31755099 387.24228801 67.058507 390.44458103 92.52289867 C391.12748954 102.35441146 391.00109486 112.22796109 390.96747971 122.07831764 C390.95832995 126.0538698 390.97244748 130.02935501 390.98339939 134.0048933 C391.0010846 141.76898466 390.99738959 149.53292039 390.98574883 157.29701757 C390.9766751 163.61318922 390.97550744 169.92931758 390.97984409 176.24549389 C390.98045703 177.14817654 390.98106996 178.0508592 390.98170146 178.98089588 C390.98298051 180.81530111 390.98427736 182.64970634 390.98559183 184.48411155 C390.99696833 201.6414725 390.98393008 218.79874763 390.96239036 235.9560945 C390.94452206 250.64311903 390.94762699 265.33001705 390.96606541 280.0170393 C390.98752408 297.11756817 390.99586997 314.21802205 390.98361635 331.31856251 C390.9823423 333.14580948 390.98108482 334.97305646 390.97984409 336.80030346 C390.97922699 337.69908903 390.97860989 338.5978746 390.97797409 339.5238961 C390.97453614 345.82450577 390.98031577 352.12506744 390.98976231 358.42566967 C391.00103941 366.11544127 390.99782325 373.80504978 390.97663933 381.49480295 C390.96620508 385.41006431 390.9618748 389.32505484 390.97523594 393.24031353 C391.08848711 429.48594293 383.1975598 457.5668075 357.93286228 484.16742992 C332.97520218 508.43713003 302.20185446 513.15947966 268.88916206 513.04579735 C264.9136099 513.03664759 260.9381247 513.05076512 256.9625864 513.06171703 C249.19849505 513.07940225 241.43455931 513.07570723 233.67046213 513.06406647 C227.35429049 513.05499274 221.03816212 513.05382508 214.72198582 513.05816174 C213.36796183 513.05908113 213.36796183 513.05908113 211.98658383 513.06001911 C210.15217859 513.06129815 208.31777337 513.062595 206.48336816 513.06390947 C189.32600721 513.07528598 172.16873207 513.06224772 155.0113852 513.04070801 C140.32436067 513.0228397 125.63746266 513.02594463 110.95044041 513.04438305 C93.84991153 513.06584172 76.74945766 513.07418761 59.6489172 513.06193399 C57.82167023 513.06065994 55.99442324 513.05940246 54.16717625 513.05816174 C53.26839068 513.05754463 52.3696051 513.05692753 51.44358361 513.05629173 C45.14297393 513.05285378 38.84241227 513.05863341 32.54181004 513.06807995 C24.85203844 513.07935705 17.16242993 513.07614089 9.47267675 513.05495697 C5.5574154 513.04452272 1.64242486 513.04019244 -2.27283382 513.05355358 C-38.51846323 513.16680476 -66.5993278 505.27587744 -93.19995022 480.01117992 C-117.46965032 455.05351982 -122.19199996 424.2801721 -122.07831764 390.96747971 C-122.06916789 386.99192755 -122.08328542 383.01644234 -122.09423733 379.04090405 C-122.11192254 371.27681269 -122.10822753 363.51287695 -122.09658676 355.74877977 C-122.08751303 349.43260813 -122.08634537 343.11647977 -122.09068203 336.80030346 C-122.09129496 335.8976208 -122.09190789 334.99493815 -122.0925394 334.06490147 C-122.09381844 332.23049624 -122.0951153 330.39609101 -122.09642977 328.5616858 C-122.10780627 311.40432485 -122.09476802 294.24704972 -122.0732283 277.08970284 C-122.05535999 262.40267832 -122.05846493 247.7157803 -122.07690334 233.02875805 C-122.09836201 215.92822917 -122.10670791 198.8277753 -122.09445429 181.72723484 C-122.09318024 179.89998787 -122.09192275 178.07274088 -122.09068203 176.24549389 C-122.09006493 175.34670832 -122.08944783 174.44792275 -122.08881202 173.52190125 C-122.08537408 167.22129158 -122.09115371 160.92072991 -122.10060024 154.62012768 C-122.11187734 146.93035608 -122.10866119 139.24074757 -122.08747727 131.5509944 C-122.07704302 127.63573304 -122.07271273 123.72074251 -122.08607388 119.80548382 C-122.19932505 83.55985441 -114.30839773 55.47898985 -89.04370022 28.87836742 C-64.08604011 4.60866732 -33.31269239 -0.11368232 0 0 Z M33.00708103 242.96039867 C28.50947892 248.86583746 27.5578279 254.17070499 28.44458103 261.52289867 C30.24065916 267.62096033 34.06430736 272.18415177 39.44458103 275.52289867 C44.04806813 277.35736257 47.92258011 277.77754131 52.86311436 277.79032421 C53.58876313 277.79485532 54.31441191 277.79938644 55.06205004 277.80405486 C57.48235057 277.81666828 59.90242519 277.81508049 62.32275486 277.81342602 C64.06271242 277.81941319 65.80266732 277.82621918 67.54261875 277.83378124 C72.26173975 277.85142946 76.9807882 277.85613613 81.69993901 277.85741282 C84.65056532 277.85883567 87.60117326 277.86310782 90.55179501 277.86840725 C100.85208778 277.88690382 111.15232884 277.89507835 121.45263767 277.89350414 C131.04341843 277.89230293 140.63397408 277.91340225 150.22469789 277.94499147 C158.46778952 277.97117129 166.7108077 277.98187072 174.95394057 277.98059332 C179.87321686 277.98008418 184.79229306 277.98574096 189.71152782 278.00694942 C194.34011575 278.02636047 198.96831329 278.02643672 203.59691525 278.01191616 C205.29116863 278.0098305 206.98544664 278.01451446 208.67965794 278.02663708 C222.52397458 278.30774562 222.52397458 278.30774562 234.30242729 271.78334141 C239.35780112 266.34940672 240.93960118 261.46178439 240.75317478 254.08149242 C239.94331443 247.36682748 236.45447402 243.01944297 231.42114353 238.74946117 C226.50462099 235.69849659 221.71052914 235.27018089 216.02604771 235.25547314 C215.30039893 235.25094202 214.57475015 235.24641091 213.82711202 235.24174249 C211.40681149 235.22912907 208.98673687 235.23071686 206.5664072 235.23237133 C204.82644964 235.22638415 203.08649474 235.21957817 201.34654331 235.21201611 C196.62742231 235.19436789 191.90837387 235.18966121 187.18922305 235.18838453 C184.23859674 235.18696168 181.2879888 235.18268952 178.33736706 235.1773901 C168.03707428 235.15889353 157.73683323 235.150719 147.43652439 235.15229321 C137.84574363 235.15349442 128.25518798 235.1323951 118.66446418 235.10080588 C110.42137255 235.07462606 102.17835436 235.06392663 93.93522149 235.06520402 C89.0159452 235.06571317 84.096869 235.06005639 79.17763424 235.03884792 C74.54904631 235.01943688 69.92084878 235.01936063 65.29224682 235.03388119 C63.59799343 235.03596685 61.90371543 235.03128289 60.20950413 235.01916027 C45.17749485 234.89723011 45.17749485 234.89723011 33.00708103 242.96039867 Z " fill="#851111" transform="translate(121.55541896820068,-0.5228986740112305)"/>
</svg>
