<?xml version="1.0" encoding="UTF-8"?>
<svg version="1.1" xmlns="http://www.w3.org/2000/svg" width="512" height="512">
<path d="M0 0 C1.3661014 -0.00374414 2.73220066 -0.00834869 4.09829658 -0.01373065 C7.82404016 -0.02588201 11.54969342 -0.02570954 15.27545226 -0.02334189 C19.30496622 -0.02293171 23.334452 -0.03399206 27.36395264 -0.04345703 C35.24860712 -0.06002546 43.1332317 -0.06556472 51.01790214 -0.06668179 C57.43244014 -0.06763437 63.84696833 -0.07175513 70.26150322 -0.07808304 C88.47739607 -0.09568517 106.69326541 -0.10492368 124.90916682 -0.10342209 C126.38026793 -0.10330222 126.38026793 -0.10330222 127.88108826 -0.10317993 C128.86303026 -0.10309817 129.84497226 -0.10301641 130.85667007 -0.10293217 C146.75797294 -0.10211987 162.65918095 -0.12124614 178.5604564 -0.14945666 C194.91669779 -0.1782436 211.272893 -0.19199373 227.62916034 -0.19026911 C236.80026473 -0.18960715 245.9712697 -0.195014 255.14235115 -0.21662521 C262.95304876 -0.23491378 270.7636019 -0.23912186 278.57431174 -0.22560637 C282.55231771 -0.2191148 286.53004715 -0.21881971 290.50802612 -0.23631287 C322.57788904 -0.36851576 350.2496385 4.3456306 374.31150818 27.17001343 C390.88746685 43.62873451 402.05778997 66.70983752 402.32574844 90.25341702 C402.33384203 92.69146015 402.33644372 95.12952518 402.33476257 97.56758118 C402.33734896 98.92752925 402.34036288 100.28747657 402.34376597 101.64742285 C402.35180736 105.37464236 402.35362395 109.10184258 402.35436344 112.82906973 C402.35621905 116.85315375 402.36376903 120.87722788 402.37049866 124.90130615 C402.38406317 133.6971386 402.39010405 142.49296647 402.39450932 151.28880763 C402.39727549 156.78613745 402.40151358 162.28346551 402.40601349 167.78079414 C402.41820477 183.01535271 402.42850367 198.24990989 402.43188858 213.48447323 C402.43210815 214.45898171 402.43232771 215.4334902 402.43255393 216.43752924 C402.43277221 217.41431297 402.43299049 218.39109671 402.43321538 219.39747995 C402.43365884 221.3766708 402.4341054 223.35586164 402.43455505 225.33505249 C402.43477648 226.3167905 402.43499791 227.29852851 402.43522605 228.31001616 C402.43917064 244.20320514 402.45661492 260.09634817 402.47991458 275.98951941 C402.50366875 292.32527936 402.51609232 308.66101631 402.5172565 324.99679381 C402.51817109 334.16117167 402.52386862 343.32548969 402.54207611 352.489851 C402.55753222 360.2966549 402.5625653 368.10338047 402.55433801 375.91019677 C402.55045063 379.88788502 402.55126658 383.86541581 402.56539536 387.84308434 C402.66829088 418.56186 402.66829088 418.56186 399.19432068 431.26742554 C398.97703938 432.07245482 398.75975807 432.87748411 398.53589249 433.70690823 C393.59736306 450.11823477 384.27022879 463.36082564 372.19432068 475.26742554 C371.45568787 476.01637085 370.71705505 476.76531616 369.95603943 477.53695679 C359.60255965 487.42248267 345.97023818 494.55188083 332.19432068 498.26742554 C331.26167641 498.52102655 330.32903214 498.77462757 329.36812592 499.03591347 C315.34393666 502.21806252 301.05418304 501.69593844 286.75717187 501.65959954 C282.76391111 501.65275037 278.77068827 501.66331905 274.7774353 501.67153931 C266.97499405 501.68481686 259.17263981 501.68202573 251.37019527 501.67330138 C245.02392994 501.66650156 238.67768884 501.66561801 232.3314209 501.66887283 C230.97196123 501.66956238 230.97196123 501.66956238 229.58503774 501.67026586 C227.74338098 501.67122512 225.90172422 501.67219776 224.06006747 501.67318363 C206.82696464 501.68172001 189.59390983 501.67193098 172.36081487 501.65578254 C157.60265606 501.64238096 142.84456806 501.64470954 128.08641052 501.65853882 C110.911213 501.67462568 93.73605748 501.6808962 76.56085348 501.67170203 C74.72630915 501.67074647 72.89176481 501.66980336 71.05722046 501.66887283 C70.15479938 501.66841001 69.2523783 501.66794718 68.32261112 501.66747033 C61.99053576 501.66488974 55.65848723 501.66923125 49.32641602 501.67631149 C41.60033353 501.6847613 33.87434239 501.68237367 26.14827025 501.66646926 C22.21305802 501.65863308 18.27799759 501.65541454 14.34278679 501.66541672 C-16.04851867 501.73630324 -16.04851867 501.73630324 -28.80567932 498.26742554 C-29.61112938 498.05018515 -30.41657944 497.83294476 -31.24643707 497.60912132 C-47.0927941 492.83676258 -60.28088472 483.94167713 -71.80567932 472.26742554 C-72.6177887 471.4540271 -73.42989807 470.64062866 -74.26661682 469.80258179 C-91.70939857 451.43705903 -98.96323178 427.78828762 -98.94612122 402.96054077 C-98.9487076 401.59988 -98.95172152 400.23921999 -98.95512462 398.87856102 C-98.96316599 395.1494109 -98.96498259 391.42028006 -98.96572208 387.69112229 C-98.96757767 383.66501239 -98.97512761 379.63891238 -98.9818573 375.61280823 C-98.99542145 366.81291083 -99.00146253 358.01301799 -99.00586796 349.21311188 C-99.00863399 343.71377974 -99.01287204 338.21444936 -99.01737213 332.71511841 C-99.02956299 317.47626862 -99.03986221 302.23742023 -99.04324722 286.99856567 C-99.04346679 286.02380563 -99.04368636 285.04904558 -99.04391257 284.04474735 C-99.04413085 283.06770816 -99.04434913 282.09066896 -99.04457402 281.08402252 C-99.04501748 279.104304 -99.04546405 277.12458547 -99.0459137 275.14486694 C-99.04613513 274.16286662 -99.04635656 273.1808663 -99.0465847 272.16910839 C-99.05052997 256.26877734 -99.06797656 240.3684922 -99.09127322 224.46817887 C-99.11502199 208.12677368 -99.1274507 191.78539149 -99.12861514 175.44396877 C-99.12952999 166.27571041 -99.13523427 157.10751185 -99.15343475 147.93927002 C-99.16888348 140.12987569 -99.17392822 132.32055964 -99.16569665 124.51115292 C-99.16180679 120.53156335 -99.16263762 116.55213117 -99.176754 112.57256126 C-99.18959379 108.91922949 -99.18820837 105.26617176 -99.17616329 101.61283982 C-99.17331467 99.68665258 -99.18506527 97.76046014 -99.19758534 95.83431149 C-99.04710162 68.92123125 -88.05411139 46.10919527 -69.74317932 26.76742554 C-50.84544806 8.26285096 -26.14438963 -0.0649107 0 0 Z M19.31150818 192.48226929 C16.21861912 197.4244032 15.48017026 202.52074638 16.19432068 208.26742554 C18.0841077 214.03624907 20.77483761 219.22587561 26.09002489 222.39922667 C31.95415746 225.15370332 36.82401461 225.83955179 43.25817871 225.77536011 C44.23210947 225.78160007 45.20604023 225.78784003 46.20948404 225.79426908 C49.45215776 225.81014255 52.69407388 225.79761671 55.93675232 225.78500366 C58.2699019 225.79042723 60.60304805 225.79755121 62.93618774 225.8062439 C69.25839008 225.82445096 75.58033078 225.81742059 81.90253758 225.80472755 C87.85226012 225.79561612 93.80195059 225.80257736 99.75167399 225.80843633 C112.2523212 225.81982705 124.75285084 225.80675173 137.25347876 225.78523487 C147.96925116 225.76736104 158.68485022 225.77047319 169.40061951 225.78890991 C181.85970948 225.81033617 194.31869659 225.81873294 206.77780241 225.80646086 C213.36755658 225.80022858 219.95719146 225.79938328 226.54693794 225.81260681 C232.74159812 225.82416976 238.93593122 225.81613091 245.13055611 225.79302979 C247.40251625 225.78774538 249.67450396 225.78925183 251.94645309 225.79808044 C255.05048783 225.80902954 258.15347791 225.7952791 261.25744629 225.77536011 C262.60235212 225.78874444 262.60235212 225.78874444 263.97442776 225.80239916 C270.77304738 225.71791725 275.98722081 223.97922041 281.21775818 219.55648804 C285.50954053 214.27238607 287.80406076 209.51238801 287.56150818 202.47836304 C286.63729365 196.91341173 284.24336919 192.07219246 279.99900818 188.33383179 C275.08567302 184.95287344 271.05805349 183.1483798 265.05998039 183.13320446 C264.23958523 183.12874662 263.41919006 183.12428877 262.57393444 183.11969584 C261.67803415 183.1198802 260.78213386 183.12006457 259.85908508 183.12025452 C258.90308824 183.11657783 257.94709139 183.11290114 256.96212494 183.10911304 C253.75029285 183.0980769 250.53849311 183.09423246 247.3266449 183.09042358 C245.02703753 183.08415887 242.72743117 183.07751206 240.42782593 183.07051086 C232.86822718 183.04946857 225.30862823 183.03910812 217.74900818 183.02914429 C215.14648045 183.02509676 212.54395283 183.02097984 209.94142532 183.0167942 C199.11539665 182.99992516 188.2893709 182.98529067 177.46333122 182.97804546 C174.65523655 182.97613567 171.84714188 182.97421533 169.03904724 182.97225952 C168.34113788 182.97177578 167.64322852 182.97129204 166.92417039 182.97079364 C155.62440808 182.96249747 144.32475177 182.93716678 133.02503572 182.90467884 C121.41510936 182.87157208 109.80524227 182.85392593 98.19526875 182.85040122 C91.68024242 182.84805099 85.16538365 182.83909362 78.65040207 182.81394005 C72.51904077 182.7906502 66.38795726 182.78643001 60.25656319 182.79670143 C58.0096208 182.79719668 55.7626647 182.7908796 53.51576424 182.77714539 C50.44066451 182.75940475 47.36655938 182.76654387 44.29145813 182.77967834 C43.40894217 182.7687091 42.52642622 182.75773985 41.61716735 182.74643821 C32.79354692 182.83700133 24.76623899 185.22470372 19.31150818 192.48226929 Z M19.34666443 286.48226929 C16.19899085 291.35849582 15.38329751 296.55907017 16.19432068 302.26742554 C17.88447738 308.56807299 20.7164937 312.32265374 25.99900818 316.07601929 C31.91701311 319.28774794 37.25314345 319.55584793 43.82148743 319.52812195 C44.78468781 319.5319475 45.74788819 319.53577304 46.74027646 319.53971452 C49.96443412 319.55002466 53.18841304 319.54605609 56.4125824 319.54208374 C58.72558253 319.54643132 61.03858121 319.55161462 63.35157776 319.55757141 C69.63256725 319.57096794 75.91349659 319.57153932 82.19449759 319.56900811 C87.43809212 319.56793881 92.68167446 319.57282074 97.92526639 319.57761353 C111.00341634 319.58934562 124.08153202 319.58848235 137.1596842 319.58205672 C148.50915296 319.57688853 159.85853587 319.58814104 171.20798765 319.60715494 C182.86995358 319.62654217 194.53187522 319.63449647 206.19385731 319.63103169 C212.73781336 319.62921831 219.28169077 319.63186057 225.825634 319.64574623 C231.9799738 319.65831637 238.13414171 319.65638799 244.28847885 319.64333534 C246.54592954 319.64096823 248.8033923 319.64370904 251.06082916 319.65195847 C254.1451478 319.66241597 257.22888869 319.65433283 260.31318665 319.64164734 C261.64948917 319.65270877 261.64948917 319.65270877 263.0127877 319.66399366 C269.50321392 319.60793109 275.24877979 318.67414797 280.43650818 314.43539429 C285.15111293 308.71696221 287.75268727 304.09614493 287.50291443 296.41195679 C286.52926194 289.64568825 283.35149125 284.76782097 278.17088318 280.45883179 C272.49263551 277.03617262 266.95358664 276.97787872 260.53591919 277 C259.56934082 276.99546889 258.60276246 276.99093777 257.60689384 276.98626935 C254.37125756 276.97361916 251.13578948 276.97524614 247.90013123 276.97689819 C245.578901 276.97091334 243.25767276 276.9641079 240.93644714 276.95654297 C234.63266954 276.93887151 228.32894623 276.9341871 222.02514625 276.9329114 C216.76176245 276.93101193 211.49839129 276.92365386 206.23501235 276.91656721 C194.52550529 276.90092759 182.81602175 276.89522968 171.10650518 276.89657791 C170.40434416 276.89665782 169.70218314 276.89673773 168.97874451 276.89682007 C167.92421166 276.89694271 167.92421166 276.89694271 166.84837512 276.89706783 C155.45752693 276.89788056 144.06681103 276.87874476 132.67600109 276.85054334 C120.9699598 276.82179097 109.26398298 276.80800433 97.5579055 276.80973089 C90.98985454 276.8102407 84.4219533 276.80454646 77.85393333 276.78337479 C71.67575198 276.76400349 65.49786334 276.76386067 59.31967163 276.77840805 C57.05457443 276.78049859 54.78945896 276.77578074 52.52439308 276.76368713 C49.42714333 276.74822386 46.33090155 276.75755065 43.2336731 276.77294922 C41.89590341 276.75751853 41.89590341 276.75751853 40.53110808 276.74177611 C31.82477436 276.83713075 24.74038327 279.44503501 19.34666443 286.48226929 Z " fill="#BB8C07" transform="translate(103.80567932128906,4.732574462890625)"/>
</svg>
